<svg width="966" height="168" viewBox="0 0 966 168" fill="none" xmlns="http://www.w3.org/2000/svg">
<g clip-path="url(#clip0_821_532)">
<path d="M116.58 -0.148004V122H86.826V71.714H40.542V122H10.788V-0.148004H40.542V47.702H86.826V-0.148004H116.58ZM237.239 24.908L176.339 168.11H144.323L166.595 118.694L127.097 24.908H160.331L182.777 85.634L205.049 24.908H237.239ZM277.753 38.654C280.653 34.13 284.655 30.476 289.759 27.692C294.863 24.908 300.837 23.516 307.681 23.516C315.685 23.516 322.935 25.546 329.431 29.606C335.927 33.666 341.031 39.466 344.743 47.006C348.571 54.546 350.485 63.304 350.485 73.28C350.485 83.256 348.571 92.072 344.743 99.728C341.031 107.268 335.927 113.126 329.431 117.302C322.935 121.362 315.685 123.392 307.681 123.392C300.953 123.392 294.979 122 289.759 119.216C284.655 116.432 280.653 112.836 277.753 108.428V168.284H247.999V24.908H277.753V38.654ZM320.209 73.28C320.209 65.856 318.121 60.056 313.945 55.88C309.885 51.588 304.839 49.442 298.807 49.442C292.891 49.442 287.845 51.588 283.669 55.88C279.609 60.172 277.579 66.03 277.579 73.454C277.579 80.878 279.609 86.736 283.669 91.028C287.845 95.32 292.891 97.466 298.807 97.466C304.723 97.466 309.769 95.32 313.945 91.028C318.121 86.62 320.209 80.704 320.209 73.28ZM457.619 71.888C457.619 74.672 457.445 77.572 457.097 80.588H389.759C390.223 86.62 392.137 91.26 395.501 94.508C398.981 97.64 403.215 99.206 408.203 99.206C415.627 99.206 420.789 96.074 423.689 89.81H455.357C453.733 96.19 450.775 101.932 446.483 107.036C442.307 112.14 437.029 116.142 430.649 119.042C424.269 121.942 417.135 123.392 409.247 123.392C399.735 123.392 391.267 121.362 383.843 117.302C376.419 113.242 370.619 107.442 366.443 99.902C362.267 92.362 360.179 83.546 360.179 73.454C360.179 63.362 362.209 54.546 366.269 47.006C370.445 39.466 376.245 33.666 383.669 29.606C391.093 25.546 399.619 23.516 409.247 23.516C418.643 23.516 426.995 25.488 434.303 29.432C441.611 33.376 447.295 39.002 451.355 46.31C455.531 53.618 457.619 62.144 457.619 71.888ZM427.169 64.058C427.169 58.954 425.429 54.894 421.949 51.878C418.469 48.862 414.119 47.354 408.899 47.354C403.911 47.354 399.677 48.804 396.197 51.704C392.833 54.604 390.745 58.722 389.933 64.058H427.169Z" fill="#F9C337"/>
<path d="M513.335 123.218C505.331 123.218 498.255 121.826 492.107 119.042C486.075 116.258 481.319 112.372 477.839 107.384C474.359 102.396 472.503 96.828 472.271 90.68H485.147C485.727 96.596 488.337 101.816 492.977 106.34C497.617 110.748 504.403 112.952 513.335 112.952C521.571 112.952 528.067 110.864 532.823 106.688C537.695 102.396 540.131 97.002 540.131 90.506C540.131 85.286 538.797 81.11 536.129 77.978C533.461 74.73 530.155 72.352 526.211 70.844C522.267 69.22 516.815 67.48 509.855 65.624C501.735 63.42 495.297 61.274 490.541 59.186C485.785 57.098 481.725 53.85 478.361 49.442C474.997 45.034 473.315 39.06 473.315 31.52C473.315 25.256 474.939 19.688 478.187 14.816C481.435 9.82799 486.017 5.94199 491.933 3.158C497.849 0.373996 504.635 -1.018 512.291 -1.018C523.543 -1.018 532.591 1.766 539.435 7.33399C546.395 12.786 550.397 19.862 551.441 28.562H538.217C537.405 23.574 534.679 19.166 530.039 15.338C525.399 11.394 519.135 9.422 511.247 9.422C503.939 9.422 497.849 11.394 492.977 15.338C488.105 19.166 485.669 24.444 485.669 31.172C485.669 36.276 487.003 40.394 489.671 43.526C492.339 46.658 495.645 49.036 499.589 50.66C503.649 52.284 509.101 54.024 515.945 55.88C523.833 58.084 530.213 60.288 535.085 62.492C539.957 64.58 544.075 67.828 547.439 72.236C550.803 76.644 552.485 82.56 552.485 89.984C552.485 95.668 550.977 101.062 547.961 106.166C544.945 111.27 540.479 115.388 534.563 118.52C528.647 121.652 521.571 123.218 513.335 123.218ZM591.856 37.262V96.248C591.856 102.048 592.958 106.05 595.162 108.254C597.366 110.458 601.252 111.56 606.82 111.56H617.956V122H604.906C596.322 122 589.942 120.028 585.766 116.084C581.59 112.024 579.502 105.412 579.502 96.248V37.262H566.278V26.996H579.502V3.158H591.856V26.996H617.956V37.262H591.856ZM650.223 43.874C652.891 37.958 656.951 33.376 662.403 30.128C667.971 26.88 674.757 25.256 682.761 25.256V37.958H679.455C670.639 37.958 663.563 40.336 658.227 45.092C652.891 49.848 650.223 57.794 650.223 68.93V122H638.043V26.996H650.223V43.874ZM787.04 69.626C787.04 73.802 786.924 76.992 786.692 79.196H707.87C708.218 86.388 709.958 92.536 713.09 97.64C716.222 102.744 720.34 106.63 725.444 109.298C730.548 111.85 736.116 113.126 742.148 113.126C750.036 113.126 756.648 111.212 761.984 107.384C767.436 103.556 771.032 98.394 772.772 91.898H785.648C783.328 101.178 778.34 108.776 770.684 114.692C763.144 120.492 753.632 123.392 742.148 123.392C733.216 123.392 725.212 121.42 718.136 117.476C711.06 113.416 705.492 107.732 701.432 100.424C697.488 93 695.516 84.358 695.516 74.498C695.516 64.638 697.488 55.996 701.432 48.572C705.376 41.148 710.886 35.464 717.962 31.52C725.038 27.576 733.1 25.604 742.148 25.604C751.196 25.604 759.084 27.576 765.812 31.52C772.656 35.464 777.876 40.8 781.472 47.528C785.184 54.14 787.04 61.506 787.04 69.626ZM774.686 69.278C774.802 62.202 773.352 56.17 770.336 51.182C767.436 46.194 763.434 42.424 758.33 39.872C753.226 37.32 747.658 36.044 741.626 36.044C732.578 36.044 724.864 38.944 718.484 44.744C712.104 50.544 708.566 58.722 707.87 69.278H774.686ZM895.28 69.626C895.28 73.802 895.164 76.992 894.932 79.196H816.11C816.458 86.388 818.198 92.536 821.33 97.64C824.462 102.744 828.58 106.63 833.684 109.298C838.788 111.85 844.356 113.126 850.388 113.126C858.276 113.126 864.888 111.212 870.224 107.384C875.676 103.556 879.272 98.394 881.012 91.898H893.888C891.568 101.178 886.58 108.776 878.924 114.692C871.384 120.492 861.872 123.392 850.388 123.392C841.456 123.392 833.452 121.42 826.376 117.476C819.3 113.416 813.732 107.732 809.672 100.424C805.728 93 803.756 84.358 803.756 74.498C803.756 64.638 805.728 55.996 809.672 48.572C813.616 41.148 819.126 35.464 826.202 31.52C833.278 27.576 841.34 25.604 850.388 25.604C859.436 25.604 867.324 27.576 874.052 31.52C880.896 35.464 886.116 40.8 889.712 47.528C893.424 54.14 895.28 61.506 895.28 69.626ZM882.926 69.278C883.042 62.202 881.592 56.17 878.576 51.182C875.676 46.194 871.674 42.424 866.57 39.872C861.466 37.32 855.898 36.044 849.866 36.044C840.818 36.044 833.104 38.944 826.724 44.744C820.344 50.544 816.806 58.722 816.11 69.278H882.926ZM933.399 37.262V96.248C933.399 102.048 934.501 106.05 936.705 108.254C938.909 110.458 942.795 111.56 948.363 111.56H959.499V122H946.449C937.865 122 931.485 120.028 927.309 116.084C923.133 112.024 921.045 105.412 921.045 96.248V37.262H907.821V26.996H921.045V3.158H933.399V26.996H959.499V37.262H933.399Z" fill="#353B3B"/>
</g>
<defs>
<clipPath id="clip0_821_532">
<rect width="966" height="168" fill="white"/>
</clipPath>
</defs>
</svg>
