<svg width="100" height="100" viewBox="0 0 100 100" fill="none" xmlns="http://www.w3.org/2000/svg">
<g filter="url(#filter0_i_820_541)">
<g clip-path="url(#clip0_820_541)">
<rect width="100" height="100" rx="20" fill="#292826"/>
<path d="M33.5506 41.25V58.8H29.2756V51.575H22.6256V58.8H18.3506V41.25H22.6256V48.125H29.2756V41.25H33.5506Z" fill="#F9C337"/>
<path d="M50.8867 44.85L42.1367 65.425H37.5367L40.7367 58.325L35.0617 44.85H39.8367L43.0617 53.575L46.2617 44.85H50.8867Z" fill="#F9C337"/>
<path d="M56.7076 46.825C57.1243 46.175 57.6993 45.65 58.4326 45.25C59.166 44.85 60.0243 44.65 61.0076 44.65C62.1576 44.65 63.1993 44.9417 64.1326 45.525C65.066 46.1083 65.7993 46.9417 66.3326 48.025C66.8826 49.1083 67.1576 50.3667 67.1576 51.8C67.1576 53.2333 66.8826 54.5 66.3326 55.6C65.7993 56.6833 65.066 57.525 64.1326 58.125C63.1993 58.7083 62.1576 59 61.0076 59C60.041 59 59.1826 58.8 58.4326 58.4C57.6993 58 57.1243 57.4833 56.7076 56.85V65.45H52.4326V44.85H56.7076V46.825ZM62.8076 51.8C62.8076 50.7333 62.5076 49.9 61.9076 49.3C61.3243 48.6833 60.5993 48.375 59.7326 48.375C58.8826 48.375 58.1576 48.6833 57.5576 49.3C56.9743 49.9167 56.6826 50.7583 56.6826 51.825C56.6826 52.8917 56.9743 53.7333 57.5576 54.35C58.1576 54.9667 58.8826 55.275 59.7326 55.275C60.5826 55.275 61.3076 54.9667 61.9076 54.35C62.5076 53.7167 62.8076 52.8667 62.8076 51.8Z" fill="#F9C337"/>
<path d="M82.5504 51.6C82.5504 52 82.5254 52.4167 82.4754 52.85H72.8004C72.8671 53.7167 73.1421 54.3833 73.6254 54.85C74.1254 55.3 74.7337 55.525 75.4504 55.525C76.5171 55.525 77.2587 55.075 77.6754 54.175H82.2254C81.9921 55.0917 81.5671 55.9167 80.9504 56.65C80.3504 57.3833 79.5921 57.9583 78.6754 58.375C77.7587 58.7917 76.7337 59 75.6004 59C74.2337 59 73.0171 58.7083 71.9504 58.125C70.8837 57.5417 70.0504 56.7083 69.4504 55.625C68.8504 54.5417 68.5504 53.275 68.5504 51.825C68.5504 50.375 68.8421 49.1083 69.4254 48.025C70.0254 46.9417 70.8587 46.1083 71.9254 45.525C72.9921 44.9417 74.2171 44.65 75.6004 44.65C76.9504 44.65 78.1504 44.9333 79.2004 45.5C80.2504 46.0667 81.0671 46.875 81.6504 47.925C82.2504 48.975 82.5504 50.2 82.5504 51.6ZM78.1754 50.475C78.1754 49.7417 77.9254 49.1583 77.4254 48.725C76.9254 48.2917 76.3004 48.075 75.5504 48.075C74.8337 48.075 74.2254 48.2833 73.7254 48.7C73.2421 49.1167 72.9421 49.7083 72.8254 50.475H78.1754Z" fill="#F9C337"/>
<path fill-rule="evenodd" clip-rule="evenodd" d="M50 -3.94971C51.2426 -3.94971 52.25 -2.94235 52.25 -1.69971V25.0503C52.25 26.2929 51.2426 27.3003 50 27.3003C48.7574 27.3003 47.75 26.2929 47.75 25.0503V-1.69971C47.75 -2.94235 48.7574 -3.94971 50 -3.94971Z" fill="white"/>
<path fill-rule="evenodd" clip-rule="evenodd" d="M50 -4.2002C51.3807 -4.2002 52.5 -3.08091 52.5 -1.7002V25.0498C52.5 26.4305 51.3807 27.5498 50 27.5498C48.6193 27.5498 47.5 26.4305 47.5 25.0498V-1.7002C47.5 -3.08091 48.6193 -4.2002 50 -4.2002Z" fill="white"/>
<path fill-rule="evenodd" clip-rule="evenodd" d="M50 75.5503C51.3807 75.5503 52.5 76.6696 52.5 78.0503V104.8C52.5 106.181 51.3807 107.3 50 107.3C48.6193 107.3 47.5 106.181 47.5 104.8V78.0503C47.5 76.6696 48.6193 75.5503 50 75.5503Z" fill="white"/>
</g>
</g>
<defs>
<filter id="filter0_i_820_541" x="0" y="0" width="100" height="100.4" filterUnits="userSpaceOnUse" color-interpolation-filters="sRGB">
<feFlood flood-opacity="0" result="BackgroundImageFix"/>
<feBlend mode="normal" in="SourceGraphic" in2="BackgroundImageFix" result="shape"/>
<feColorMatrix in="SourceAlpha" type="matrix" values="0 0 0 0 0 0 0 0 0 0 0 0 0 0 0 0 0 0 127 0" result="hardAlpha"/>
<feOffset dy="0.4"/>
<feGaussianBlur stdDeviation="3.3"/>
<feComposite in2="hardAlpha" operator="arithmetic" k2="-1" k3="1"/>
<feColorMatrix type="matrix" values="0 0 0 0 0 0 0 0 0 0 0 0 0 0 0 0 0 0 0.74 0"/>
<feBlend mode="normal" in2="shape" result="effect1_innerShadow_820_541"/>
</filter>
<clipPath id="clip0_820_541">
<rect width="100" height="100" rx="20" fill="white"/>
</clipPath>
</defs>
</svg>
