<svg width="48" height="48" viewBox="0 0 48 48" fill="none" xmlns="http://www.w3.org/2000/svg">
<path d="M35 19.016V37.3384C35 39.6771 33.3657 40.6609 31.37 39.5319L25.1943 35.9997C24.5343 35.6287 23.4657 35.6287 22.8057 35.9997L16.63 39.5319C14.6343 40.6609 13 39.6771 13 37.3384V19.016C13 16.258 15.2 14 17.8871 14H30.1129C32.8 14 35 16.258 35 19.016Z" stroke="#292D32" stroke-width="2" stroke-linecap="round" stroke-linejoin="round"/>
<path d="M24.6941 23.5735L25.3997 24.9998C25.4929 25.2016 25.7458 25.39 25.9588 25.4169L27.2368 25.6322C28.0489 25.7667 28.2486 26.3722 27.6628 26.9507L26.6644 27.9598C26.4913 28.1348 26.3981 28.4577 26.4514 28.6864L26.7309 29.9243C26.9572 30.9065 26.438 31.2833 25.586 30.772L24.3879 30.0589C24.1749 29.9243 23.8155 29.9243 23.6025 30.0589L22.4044 30.772C21.5524 31.2833 21.0332 30.9065 21.2595 29.9243L21.539 28.6864C21.5923 28.4577 21.4991 28.1213 21.326 27.9598L20.3409 26.9642C19.7552 26.3722 19.9415 25.7801 20.7669 25.6456L22.0449 25.4303C22.2579 25.39 22.5109 25.2016 22.604 25.0132L23.3096 23.587C23.6957 22.8066 24.308 22.8066 24.6941 23.5735Z" stroke="#292D32" stroke-width="1.4" stroke-linecap="round" stroke-linejoin="round"/>
<path d="M45 13.016V31.3384C45 33.6771 43.32 34.6609 41.2685 33.5319L35 30V19C35 16.242 32.7623 14 30 14H24V13.016C24 10.258 26.2615 8 29.0238 8H39.9762C42.7385 8 45 10.258 45 13.016Z" stroke="#292D32" stroke-width="2" stroke-linecap="round" stroke-linejoin="round"/>
<path d="M3 13.016V31.3384C3 33.6771 4.68 34.6609 6.73153 33.5319L13 30V19C13 16.242 15.2377 14 18 14H24V13.016C24 10.258 21.7385 8 18.9762 8H8.02382C5.26152 8 3 10.258 3 13.016Z" stroke="#292D32" stroke-width="2" stroke-linecap="round" stroke-linejoin="round"/>
</svg>
