<svg width="349" height="168" viewBox="0 0 349 168" fill="none" xmlns="http://www.w3.org/2000/svg">
<path d="M51.1411 32.5337C50.8896 30.8721 50.0425 29.3589 48.758 28.2768C47.4735 27.1947 45.8394 26.6176 44.1609 26.6534C42.4825 26.6892 40.8744 27.3354 39.6371 28.4712C38.3998 29.6071 37.6178 31.155 37.4372 32.8258C36.4731 32.5338 35.4576 32.4533 34.4596 32.5896C33.4617 32.7259 32.5048 33.0759 31.6541 33.6158C30.8035 34.1557 30.0791 34.8727 29.5302 35.7181C28.9813 36.5635 28.6209 37.5174 28.4735 38.5148C28.326 39.5122 28.395 40.5297 28.6758 41.498C28.9566 42.4662 29.4425 43.3626 30.1005 44.1259C30.7585 44.8893 31.5731 45.5017 32.4888 45.9216C33.4046 46.3414 34.3999 46.5587 35.4071 46.5587H50.8275C52.6592 46.5589 54.4182 45.8411 55.7279 44.5592C57.0376 43.2772 57.7939 41.5329 57.8349 39.6997C57.8759 37.8665 57.1983 36.0901 55.9472 34.7507C54.6962 33.4114 52.971 32.6156 51.1411 32.5337Z" fill="#B9CFEB"/>
<path d="M213.629 8.62593C213.88 6.96432 214.727 5.45117 216.012 4.36908C217.296 3.28698 218.93 2.70993 220.609 2.74571C222.287 2.78149 223.895 3.42764 225.132 4.56349C226.37 5.69934 227.152 7.24721 227.332 8.91804C228.297 8.62607 229.312 8.5455 230.31 8.68184C231.308 8.81817 232.265 9.16819 233.115 9.70806C233.966 10.2479 234.691 10.965 235.239 11.8104C235.788 12.6558 236.149 13.6096 236.296 14.607C236.444 15.6044 236.375 16.6219 236.094 17.5902C235.813 18.5585 235.327 19.4548 234.669 20.2182C234.011 20.9815 233.197 21.594 232.281 22.0138C231.365 22.4336 230.37 22.651 229.363 22.651H213.942C212.11 22.6511 210.351 21.9333 209.042 20.6514C207.732 19.3694 206.976 17.6251 206.935 15.792C206.894 13.9588 207.571 12.1824 208.822 10.843C210.074 9.50371 211.799 8.70788 213.629 8.62593Z" fill="#B9CFEB"/>
<path d="M49.9228 45.3019H34.5022C33.4241 45.3015 32.3578 45.076 31.3717 44.6398C30.3855 44.2036 29.5011 43.5662 28.7749 42.7684C28.0487 41.9706 27.4968 41.03 27.1543 40.0066C26.8119 38.9831 26.6865 37.8995 26.7861 36.8248C26.8857 35.7501 27.2082 34.708 27.7329 33.7652C28.2576 32.8223 28.973 31.9994 29.8334 31.349C30.6938 30.6986 31.6802 30.235 32.7298 29.9878C33.7793 29.7407 34.8687 29.7154 35.9286 29.9136C36.304 28.2169 37.2444 26.6983 38.5955 25.607C39.9466 24.5157 41.6281 23.9165 43.3641 23.9078C45.1001 23.8991 46.7875 24.4813 48.1495 25.5589C49.5114 26.6365 50.4671 28.1456 50.8595 29.8385C52.8198 30.0774 54.615 31.0561 55.8789 32.575C57.1428 34.0938 57.78 36.0383 57.6605 38.0115C57.541 39.9846 56.6737 41.8377 55.2358 43.1926C53.7978 44.5474 51.8975 45.3019 49.9228 45.3019ZM34.5022 31.269C32.8403 31.269 31.2465 31.9299 30.0714 33.1062C28.8962 34.2826 28.236 35.8781 28.236 37.5418C28.236 39.2054 28.8962 40.8009 30.0714 41.9773C31.2465 43.1537 32.8403 43.8145 34.5022 43.8145H49.9228C51.5604 43.8146 53.1329 43.173 54.3038 42.027C55.4746 40.8809 56.1508 39.3216 56.1875 37.6827C56.2241 36.0438 55.6184 34.4557 54.5 33.2583C53.3816 32.0609 51.8394 31.3494 50.2034 31.2761L49.5924 31.2491L49.5016 30.6437C49.2769 29.1609 48.5208 27.8106 47.3744 26.845C46.2281 25.8794 44.7698 25.3645 43.272 25.3964C41.7741 25.4284 40.3391 26.0049 39.2348 27.0185C38.1305 28.0321 37.4325 29.4133 37.2711 30.9044L37.1756 31.7968L36.3174 31.5372C35.7287 31.3592 35.1171 31.2688 34.5022 31.269Z" fill="black"/>
<path d="M228.457 21.3942H213.037C211.062 21.3942 209.162 20.6398 207.724 19.285C206.286 17.9301 205.419 16.077 205.299 14.1039C205.18 12.1307 205.817 10.1863 207.081 8.66737C208.345 7.1485 210.14 6.1697 212.1 5.93076C212.493 4.23789 213.448 2.72883 214.81 1.65119C216.172 0.573557 217.86 -0.00865109 219.596 9.71677e-05C221.332 0.00884542 223.013 0.608032 224.364 1.69934C225.715 2.79065 226.656 4.30927 227.031 6.00601C228.091 5.80742 229.181 5.83239 230.231 6.07935C231.28 6.32631 232.267 6.78982 233.128 7.44024C233.989 8.09066 234.704 8.91369 235.229 9.85672C235.754 10.7997 236.077 11.842 236.176 12.9169C236.276 13.9919 236.15 15.0758 235.808 16.0994C235.465 17.123 234.913 18.0637 234.187 18.8616C233.46 19.6594 232.575 20.2968 231.589 20.7329C230.602 21.1689 229.536 21.3942 228.457 21.3942ZM219.557 1.48737C218.083 1.49414 216.66 2.02607 215.542 2.98784C214.425 3.94961 213.686 5.27836 213.458 6.73596L213.367 7.34145L212.756 7.36844C211.12 7.44183 209.578 8.15339 208.46 9.35079C207.341 10.5482 206.736 12.1363 206.773 13.7751C206.809 15.414 207.485 16.9733 208.656 18.1193C209.827 19.2653 211.4 19.907 213.037 19.9069H228.457C229.358 19.9066 230.247 19.7121 231.066 19.3366C231.884 18.9612 232.612 18.4137 233.2 17.7313C233.788 17.0488 234.222 16.2476 234.473 15.3821C234.724 14.5166 234.786 13.6072 234.654 12.7157C234.522 11.8242 234.2 10.9716 233.709 10.2159C233.219 9.46029 232.571 8.81932 231.811 8.33668C231.051 7.85404 230.196 7.54106 229.304 7.41904C228.412 7.29702 227.504 7.36882 226.642 7.62957L225.784 7.88917L225.689 6.99669C225.528 5.48182 224.813 4.08021 223.68 3.06267C222.548 2.04513 221.079 1.48388 219.557 1.48737Z" fill="black"/>
<path d="M211.425 165.359H54.6521C54.455 165.359 54.2661 165.437 54.1268 165.577C53.9874 165.716 53.9092 165.906 53.9092 166.103C53.9092 166.3 53.9874 166.489 54.1268 166.629C54.2661 166.768 54.455 166.846 54.6521 166.846H211.425C211.622 166.846 211.811 166.768 211.951 166.629C212.09 166.489 212.168 166.3 212.168 166.103C212.168 165.906 212.09 165.716 211.951 165.577C211.811 165.437 211.622 165.359 211.425 165.359Z" fill="black"/>
<path d="M49.5472 165.359H7.82394C7.62692 165.359 7.43796 165.437 7.29864 165.577C7.15932 165.716 7.08105 165.906 7.08105 166.103C7.08105 166.3 7.15932 166.489 7.29864 166.629C7.43796 166.768 7.62692 166.846 7.82394 166.846H49.5472C49.7442 166.846 49.9332 166.768 50.0725 166.629C50.2118 166.489 50.2901 166.3 50.2901 166.103C50.2901 165.906 50.2118 165.716 50.0725 165.577C49.9332 165.437 49.7442 165.359 49.5472 165.359Z" fill="black"/>
<path d="M185.567 108.285H129.005V161.616H185.567V108.285Z" fill="#EFC52F"/>
<path d="M144.173 135.163H135.041V161.028H144.173V135.163Z" fill="#B9CFEB"/>
<path d="M161.112 135.163H151.979V161.028H161.112V135.163Z" fill="#B9CFEB"/>
<path d="M178.051 135.163H168.918V161.028H178.051V135.163Z" fill="#B9CFEB"/>
<path d="M183.656 160.733H127.094C126.897 160.733 126.708 160.655 126.569 160.516C126.43 160.376 126.352 160.187 126.352 159.99V106.659C126.352 106.462 126.43 106.272 126.569 106.133C126.708 105.993 126.897 105.915 127.094 105.915H183.656C183.853 105.915 184.042 105.993 184.182 106.133C184.321 106.272 184.399 106.462 184.399 106.659V159.99C184.399 160.187 184.321 160.376 184.182 160.516C184.042 160.655 183.853 160.733 183.656 160.733ZM127.837 159.246H182.913V107.402H127.837V159.246Z" fill="black"/>
<path d="M143.003 160.733H133.87C133.673 160.733 133.484 160.655 133.345 160.515C133.206 160.376 133.127 160.187 133.127 159.99V134.125C133.127 133.928 133.206 133.739 133.345 133.599C133.484 133.46 133.673 133.381 133.87 133.381H143.003C143.2 133.381 143.389 133.46 143.528 133.599C143.667 133.739 143.745 133.928 143.745 134.125V159.99C143.745 160.187 143.667 160.376 143.528 160.515C143.389 160.655 143.2 160.733 143.003 160.733ZM134.613 159.246H142.26V134.869H134.613V159.246Z" fill="black"/>
<path d="M159.942 160.733H150.809C150.612 160.733 150.423 160.655 150.284 160.515C150.145 160.376 150.066 160.187 150.066 159.99V134.125C150.066 133.928 150.145 133.739 150.284 133.599C150.423 133.46 150.612 133.381 150.809 133.381H159.942C160.139 133.381 160.328 133.46 160.467 133.599C160.606 133.739 160.684 133.928 160.684 134.125V159.99C160.684 160.187 160.606 160.376 160.467 160.515C160.328 160.655 160.139 160.733 159.942 160.733ZM151.552 159.246H159.199V134.869H151.552L151.552 159.246Z" fill="black"/>
<path d="M176.881 160.733H167.748C167.551 160.733 167.362 160.655 167.223 160.515C167.084 160.376 167.005 160.187 167.005 159.99V134.125C167.005 133.928 167.084 133.739 167.223 133.599C167.362 133.46 167.551 133.381 167.748 133.381H176.881C177.078 133.381 177.267 133.46 177.406 133.599C177.545 133.739 177.624 133.928 177.624 134.125V159.99C177.624 160.187 177.545 160.376 177.406 160.515C177.267 160.655 177.078 160.733 176.881 160.733ZM168.491 159.246H176.138V134.869H168.491L168.491 159.246Z" fill="black"/>
<path d="M141.485 115.666H144.579C145.317 115.619 146.047 115.848 146.625 116.309C146.861 116.514 147.048 116.769 147.173 117.055C147.298 117.341 147.358 117.652 147.349 117.964C147.349 118.93 146.796 119.567 145.69 119.875C146.208 119.95 146.681 120.21 147.023 120.607C147.364 121.004 147.551 121.512 147.549 122.036C147.554 122.349 147.488 122.659 147.355 122.943C147.222 123.227 147.026 123.476 146.781 123.672C146.198 124.129 145.469 124.36 144.729 124.322H141.485V115.666ZM142.62 116.577V119.425H144.529C144.971 119.452 145.408 119.316 145.758 119.044C145.905 118.916 146.021 118.756 146.098 118.577C146.175 118.397 146.21 118.203 146.201 118.008C146.21 117.812 146.174 117.616 146.098 117.436C146.021 117.255 145.905 117.094 145.758 116.965C145.41 116.689 144.972 116.551 144.529 116.577H142.62ZM142.62 123.422H144.666C145.133 123.45 145.593 123.303 145.958 123.01C146.115 122.868 146.238 122.693 146.319 122.498C146.4 122.302 146.436 122.091 146.426 121.88C146.435 121.665 146.395 121.451 146.307 121.255C146.219 121.058 146.087 120.885 145.921 120.749C145.535 120.459 145.061 120.313 144.579 120.337H142.62V123.422Z" fill="black"/>
<path d="M155.085 124.322L154.411 122.423H150.568L149.895 124.322H148.734L151.879 115.666H153.126L156.258 124.322H155.085ZM150.893 121.524H154.087L152.49 117.052L150.893 121.524Z" fill="black"/>
<path d="M163.445 115.666H164.58V124.322H163.445L158.878 117.452V124.322H157.743V115.666H158.878L163.445 122.535V115.666Z" fill="black"/>
<path d="M167.587 124.322H166.452V115.666H167.587V119.675L171.144 115.666H172.628L168.586 120.05L172.628 124.322H171.118L167.587 120.45V124.322Z" fill="black"/>
<path d="M120.936 67.4731H72.8955V162.294H120.936V67.4731Z" fill="#E3E3E3"/>
<path d="M80.8677 82.407C79.7738 82.407 78.7247 82.842 77.9512 83.6163C77.1777 84.3906 76.7432 85.4408 76.7432 86.5358V94.8092H84.9921V86.5358C84.9922 85.9936 84.8855 85.4567 84.6782 84.9557C84.4709 84.4548 84.1671 83.9997 83.7841 83.6163C83.4011 83.2329 82.9464 82.9287 82.446 82.7213C81.9456 82.5138 81.4093 82.407 80.8677 82.407Z" fill="#B9CFEB"/>
<path d="M95.1187 82.407C94.577 82.407 94.0407 82.5138 93.5403 82.7213C93.0399 82.9287 92.5852 83.2329 92.2022 83.6163C91.8192 83.9997 91.5154 84.4548 91.3081 84.9557C91.1008 85.4567 90.9941 85.9936 90.9941 86.5358V94.8092H99.2432V86.5358C99.2432 85.9936 99.1365 85.4567 98.9292 84.9558C98.7219 84.4548 98.4181 83.9997 98.0351 83.6163C97.6521 83.2329 97.1975 82.9288 96.697 82.7213C96.1966 82.5138 95.6603 82.407 95.1187 82.407Z" fill="#B9CFEB"/>
<path d="M109.37 82.407C108.828 82.407 108.292 82.5138 107.791 82.7213C107.291 82.9288 106.836 83.2329 106.453 83.6163C106.07 83.9997 105.766 84.4548 105.559 84.9558C105.352 85.4567 105.245 85.9936 105.245 86.5358V94.8092H113.494V86.5358C113.494 85.9936 113.387 85.4567 113.18 84.9557C112.973 84.4548 112.669 83.9997 112.286 83.6163C111.903 83.2329 111.448 82.9287 110.948 82.7213C110.448 82.5138 109.911 82.407 109.37 82.407Z" fill="#B9CFEB"/>
<path d="M80.8677 101.17C80.326 101.17 79.7897 101.277 79.2893 101.485C78.7889 101.692 78.3342 101.996 77.9512 102.38C77.5682 102.763 77.2644 103.218 77.0571 103.719C76.8498 104.22 76.7432 104.757 76.7432 105.299V113.573H84.9921V105.299C84.9922 104.757 84.8855 104.22 84.6782 103.719C84.4709 103.218 84.1671 102.763 83.7841 102.38C83.4011 101.996 82.9465 101.692 82.446 101.485C81.9456 101.277 81.4093 101.17 80.8677 101.17Z" fill="#B9CFEB"/>
<path d="M95.1187 101.17C94.577 101.17 94.0407 101.277 93.5403 101.485C93.0399 101.692 92.5852 101.996 92.2022 102.38C91.8192 102.763 91.5154 103.218 91.3081 103.719C91.1008 104.22 90.9941 104.757 90.9941 105.299V113.573H99.2432V105.299C99.2432 104.757 99.1365 104.22 98.9292 103.719C98.7219 103.218 98.4181 102.763 98.0351 102.38C97.6521 101.996 97.1975 101.692 96.6971 101.485C96.1966 101.277 95.6603 101.17 95.1187 101.17Z" fill="#B9CFEB"/>
<path d="M109.37 101.17C108.828 101.17 108.292 101.277 107.791 101.485C107.291 101.692 106.836 101.996 106.453 102.38C106.07 102.763 105.766 103.218 105.559 103.719C105.352 104.22 105.245 104.757 105.245 105.299V113.573H113.494V105.299C113.494 104.757 113.387 104.22 113.18 103.719C112.973 103.218 112.669 102.763 112.286 102.38C111.903 101.996 111.448 101.692 110.948 101.485C110.448 101.277 109.911 101.17 109.37 101.17Z" fill="#B9CFEB"/>
<path d="M80.8677 119.934C80.326 119.934 79.7897 120.041 79.2893 120.248C78.7889 120.456 78.3342 120.76 77.9512 121.143C77.5682 121.527 77.2644 121.982 77.0571 122.483C76.8498 122.984 76.7432 123.52 76.7432 124.063V132.336H84.9921V124.063C84.9922 123.52 84.8855 122.984 84.6782 122.483C84.4709 121.982 84.1671 121.527 83.7841 121.143C83.4011 120.76 82.9465 120.456 82.446 120.248C81.9456 120.041 81.4093 119.934 80.8677 119.934Z" fill="#B9CFEB"/>
<path d="M95.1187 119.934C94.577 119.934 94.0407 120.041 93.5403 120.248C93.0399 120.456 92.5852 120.76 92.2022 121.143C91.8192 121.527 91.5154 121.982 91.3081 122.483C91.1008 122.984 90.9941 123.52 90.9941 124.063V132.336H99.2432V124.063C99.2432 123.52 99.1365 122.984 98.9292 122.483C98.7219 121.982 98.4181 121.527 98.0351 121.143C97.6521 120.76 97.1975 120.456 96.6971 120.248C96.1966 120.041 95.6603 119.934 95.1187 119.934Z" fill="#B9CFEB"/>
<path d="M109.37 119.934C108.828 119.934 108.292 120.041 107.791 120.248C107.291 120.456 106.836 120.76 106.453 121.143C106.07 121.527 105.766 121.982 105.559 122.483C105.352 122.984 105.245 123.52 105.245 124.063V132.336H113.494V124.063C113.494 123.52 113.387 122.984 113.18 122.483C112.973 121.982 112.669 121.527 112.286 121.143C111.903 120.76 111.448 120.456 110.948 120.248C110.448 120.041 109.911 119.934 109.37 119.934Z" fill="#B9CFEB"/>
<path d="M118.012 160.719H69.9719C69.7749 160.719 69.5859 160.641 69.4466 160.501C69.3073 160.362 69.229 160.173 69.229 159.976V65.1546C69.229 64.9573 69.3073 64.7682 69.4466 64.6287C69.5859 64.4892 69.7749 64.4109 69.9719 64.4109H118.012C118.209 64.4109 118.398 64.4892 118.538 64.6287C118.677 64.7682 118.755 64.9573 118.755 65.1546V159.976C118.755 160.173 118.677 160.362 118.538 160.501C118.398 160.641 118.209 160.719 118.012 160.719ZM70.7148 159.232H117.269V65.8982H70.7148V159.232Z" fill="black"/>
<path d="M118.012 74.4169H69.9719C69.7749 74.4169 69.5859 74.3386 69.4466 74.1991C69.3073 74.0596 69.229 73.8705 69.229 73.6732V70.7988C69.229 70.6016 69.3073 70.4124 69.4466 70.273C69.5859 70.1335 69.7749 70.0552 69.9719 70.0552H118.012C118.209 70.0552 118.398 70.1335 118.538 70.273C118.677 70.4124 118.755 70.6016 118.755 70.7988V73.6732C118.755 73.8705 118.677 74.0596 118.538 74.1991C118.398 74.3386 118.209 74.4169 118.012 74.4169ZM70.7148 72.9296H117.269V71.5425H70.7148V72.9296Z" fill="black"/>
<path d="M83.8654 94.5344H75.6164C75.4194 94.5344 75.2305 94.456 75.0911 94.3166C74.9518 94.1771 74.8735 93.988 74.8735 93.7907V85.5173C74.8735 84.8774 74.9994 84.2438 75.244 83.6527C75.4887 83.0615 75.8472 82.5244 76.2992 82.0719C76.7512 81.6195 77.2877 81.2605 77.8783 81.0157C78.4688 80.7708 79.1017 80.6448 79.7409 80.6448C80.3801 80.6448 81.0131 80.7708 81.6036 81.0157C82.1942 81.2605 82.7307 81.6195 83.1827 82.0719C83.6347 82.5244 83.9932 83.0615 84.2378 83.6527C84.4824 84.2438 84.6083 84.8774 84.6083 85.5173V93.7907C84.6083 93.988 84.5301 94.1771 84.3907 94.3166C84.2514 94.4561 84.0625 94.5344 83.8654 94.5344ZM76.3593 93.0471H83.1226V85.5173C83.1226 84.6195 82.7663 83.7585 82.1321 83.1236C81.4979 82.4888 80.6378 82.1321 79.741 82.1321C78.8441 82.1321 77.984 82.4888 77.3498 83.1236C76.7156 83.7585 76.3593 84.6195 76.3593 85.5173V93.0471Z" fill="black"/>
<path d="M98.1169 94.5344H89.8679C89.6709 94.5344 89.4819 94.4561 89.3426 94.3166C89.2033 94.1771 89.125 93.988 89.125 93.7907V85.5173C89.125 84.225 89.6378 82.9857 90.5506 82.0719C91.4634 81.1581 92.7015 80.6448 93.9924 80.6448C95.2833 80.6448 96.5213 81.1581 97.4342 82.0719C98.347 82.9857 98.8598 84.225 98.8598 85.5173V93.7907C98.8598 93.8884 98.8406 93.9851 98.8032 94.0753C98.7659 94.1656 98.7112 94.2475 98.6422 94.3166C98.5732 94.3856 98.4913 94.4404 98.4012 94.4778C98.311 94.5152 98.2144 94.5344 98.1169 94.5344ZM90.6108 93.0471H97.374V85.5173C97.374 84.6195 97.0177 83.7585 96.3835 83.1236C95.7494 82.4888 94.8892 82.1321 93.9924 82.1321C93.0955 82.1321 92.2354 82.4888 91.6012 83.1236C90.967 83.7585 90.6108 84.6195 90.6108 85.5173V93.0471Z" fill="black"/>
<path d="M112.368 94.5344H104.119C103.922 94.5344 103.733 94.4561 103.594 94.3166C103.454 94.1771 103.376 93.988 103.376 93.7907V85.5173C103.376 84.225 103.889 82.9857 104.802 82.0719C105.714 81.1581 106.952 80.6448 108.243 80.6448C109.534 80.6448 110.772 81.1581 111.685 82.0719C112.598 82.9857 113.111 84.225 113.111 85.5173V93.7907C113.111 93.988 113.032 94.1771 112.893 94.3166C112.754 94.456 112.565 94.5344 112.368 94.5344ZM104.862 93.0471H111.625V85.5173C111.625 84.6195 111.269 83.7585 110.635 83.1236C110 82.4888 109.14 82.1321 108.243 82.1321C107.346 82.1321 106.486 82.4888 105.852 83.1236C105.218 83.7585 104.862 84.6195 104.862 85.5173V93.0471Z" fill="black"/>
<path d="M83.8654 113.298H75.6164C75.4194 113.298 75.2305 113.219 75.0911 113.08C74.9518 112.941 74.8736 112.751 74.8735 112.554V104.281C74.8735 103.641 74.9994 103.007 75.244 102.416C75.4887 101.825 75.8472 101.288 76.2992 100.835C76.7512 100.383 77.2877 100.024 77.8783 99.7791C78.4688 99.5342 79.1017 99.4082 79.7409 99.4082C80.3801 99.4082 81.0131 99.5342 81.6036 99.7791C82.1942 100.024 82.7307 100.383 83.1827 100.835C83.6347 101.288 83.9932 101.825 84.2378 102.416C84.4824 103.007 84.6083 103.641 84.6083 104.281V112.554C84.6083 112.751 84.5301 112.941 84.3907 113.08C84.2514 113.219 84.0625 113.298 83.8654 113.298ZM76.3593 111.81H83.1226V104.281C83.1226 103.383 82.7663 102.522 82.1321 101.887C81.4979 101.252 80.6378 100.896 79.741 100.896C78.8441 100.896 77.984 101.252 77.3498 101.887C76.7156 102.522 76.3593 103.383 76.3593 104.281V111.81Z" fill="black"/>
<path d="M98.1169 113.298H89.8679C89.6709 113.298 89.4819 113.219 89.3426 113.08C89.2033 112.941 89.125 112.751 89.125 112.554V104.281C89.125 102.988 89.6378 101.749 90.5506 100.835C91.4634 99.9215 92.7015 99.4082 93.9924 99.4082C95.2833 99.4082 96.5213 99.9215 97.4342 100.835C98.347 101.749 98.8598 102.988 98.8598 104.281V112.554C98.8598 112.751 98.7815 112.941 98.6422 113.08C98.5029 113.219 98.3139 113.298 98.1169 113.298ZM90.6108 111.81H97.374V104.281C97.374 103.383 97.0177 102.522 96.3835 101.887C95.7494 101.252 94.8892 100.896 93.9924 100.896C93.0955 100.896 92.2354 101.252 91.6012 101.887C90.967 102.522 90.6108 103.383 90.6108 104.281V111.81Z" fill="black"/>
<path d="M112.368 113.298H104.119C103.922 113.298 103.733 113.219 103.594 113.08C103.454 112.941 103.376 112.751 103.376 112.554V104.281C103.376 102.988 103.889 101.749 104.802 100.835C105.714 99.9215 106.952 99.4082 108.243 99.4082C109.534 99.4082 110.772 99.9215 111.685 100.835C112.598 101.749 113.111 102.988 113.111 104.281V112.554C113.111 112.751 113.032 112.941 112.893 113.08C112.754 113.219 112.565 113.298 112.368 113.298ZM104.862 111.81H111.625V104.281C111.625 103.383 111.269 102.522 110.635 101.887C110 101.252 109.14 100.896 108.243 100.896C107.346 100.896 106.486 101.252 105.852 101.887C105.218 102.522 104.862 103.383 104.862 104.281V111.81Z" fill="black"/>
<path d="M83.8654 132.061H75.6164C75.4194 132.061 75.2305 131.983 75.0911 131.844C74.9518 131.704 74.8736 131.515 74.8735 131.318V123.044C74.8735 122.405 74.9994 121.771 75.244 121.18C75.4887 120.589 75.8472 120.051 76.2992 119.599C76.7512 119.147 77.2877 118.788 77.8783 118.543C78.4688 118.298 79.1017 118.172 79.7409 118.172C80.3801 118.172 81.0131 118.298 81.6036 118.543C82.1942 118.788 82.7307 119.147 83.1827 119.599C83.6347 120.051 83.9932 120.589 84.2378 121.18C84.4824 121.771 84.6083 122.405 84.6083 123.044V131.318C84.6083 131.515 84.5301 131.704 84.3907 131.844C84.2514 131.983 84.0625 132.061 83.8654 132.061ZM76.3593 130.574H83.1226V123.044C83.1226 122.147 82.7663 121.286 82.1321 120.651C81.4979 120.016 80.6378 119.659 79.741 119.659C78.8441 119.659 77.984 120.016 77.3498 120.651C76.7156 121.286 76.3593 122.147 76.3593 123.044V130.574Z" fill="black"/>
<path d="M98.1169 132.061H89.8679C89.6709 132.061 89.4819 131.983 89.3426 131.844C89.2033 131.704 89.125 131.515 89.125 131.318V123.044C89.125 121.752 89.6378 120.513 90.5506 119.599C91.4634 118.685 92.7015 118.172 93.9924 118.172C95.2833 118.172 96.5213 118.685 97.4342 119.599C98.347 120.513 98.8598 121.752 98.8598 123.044V131.318C98.8598 131.515 98.7815 131.704 98.6422 131.844C98.5029 131.983 98.3139 132.061 98.1169 132.061ZM90.6108 130.574H97.374V123.044C97.374 122.147 97.0177 121.286 96.3835 120.651C95.7494 120.016 94.8892 119.659 93.9924 119.659C93.0955 119.659 92.2354 120.016 91.6012 120.651C90.967 121.286 90.6108 122.147 90.6108 123.044V130.574Z" fill="black"/>
<path d="M112.368 132.061H104.119C103.922 132.061 103.733 131.983 103.594 131.844C103.454 131.704 103.376 131.515 103.376 131.318V123.044C103.376 121.752 103.889 120.513 104.802 119.599C105.714 118.685 106.952 118.172 108.243 118.172C109.534 118.172 110.772 118.685 111.685 119.599C112.598 120.513 113.111 121.752 113.111 123.044V131.318C113.111 131.515 113.032 131.704 112.893 131.844C112.754 131.983 112.565 132.061 112.368 132.061ZM104.862 130.574H111.625V123.044C111.625 122.147 111.269 121.286 110.635 120.651C110 120.016 109.14 119.659 108.243 119.659C107.346 119.659 106.486 120.016 105.852 120.651C105.218 121.286 104.862 122.147 104.862 123.044V130.574Z" fill="black"/>
<path d="M87.6835 136.901H76.5659V155.162H87.6835V136.901Z" fill="white"/>
<path d="M87.6833 155.905H76.5657C76.3686 155.905 76.1797 155.827 76.0404 155.687C75.901 155.548 75.8228 155.359 75.8228 155.162V136.901C75.8228 136.703 75.901 136.514 76.0404 136.375C76.1797 136.235 76.3686 136.157 76.5657 136.157H87.6833C87.8803 136.157 88.0692 136.235 88.2086 136.375C88.3479 136.514 88.4262 136.703 88.4262 136.901V155.162C88.4261 155.359 88.3479 155.548 88.2086 155.687C88.0692 155.827 87.8803 155.905 87.6833 155.905ZM77.3086 154.418H86.9404V137.644H77.3086V154.418Z" fill="black"/>
<path d="M90.74 157.568H73.6528V159.975H90.74V157.568Z" fill="white"/>
<path d="M90.7399 160.719H73.6526C73.4555 160.719 73.2666 160.641 73.1273 160.501C72.988 160.362 72.9097 160.173 72.9097 159.975V157.568C72.9097 157.371 72.988 157.182 73.1273 157.043C73.2666 156.903 73.4555 156.825 73.6526 156.825H90.7399C90.9369 156.825 91.1259 156.903 91.2652 157.043C91.4045 157.182 91.4828 157.371 91.4828 157.568V159.975C91.4828 160.173 91.4045 160.362 91.2652 160.501C91.1259 160.641 90.9369 160.719 90.7399 160.719ZM74.3955 159.232H89.997V158.312H74.3955L74.3955 159.232Z" fill="black"/>
<path d="M88.6322 155.162H75.6167V157.569H88.6322V155.162Z" fill="white"/>
<path d="M88.6321 158.312H75.6164C75.4194 158.312 75.2304 158.234 75.0911 158.094C74.9518 157.955 74.8735 157.766 74.8735 157.569V155.162C74.8736 154.964 74.9518 154.775 75.0911 154.636C75.2305 154.496 75.4194 154.418 75.6164 154.418H88.6321C88.8291 154.418 89.0181 154.496 89.1574 154.636C89.2967 154.775 89.375 154.964 89.375 155.162V157.569C89.375 157.766 89.2967 157.955 89.1574 158.094C89.0181 158.234 88.8291 158.312 88.6321 158.312ZM76.3593 156.825H87.8892V155.905H76.3593L76.3593 156.825Z" fill="black"/>
<path d="M329.847 126.554C329.847 124.41 328.111 122.868 325.968 122.868V100.333C326.997 100.333 327.984 99.9235 328.711 99.1953C329.439 98.4671 329.847 97.4794 329.847 96.4496C329.847 95.4198 329.439 94.4321 328.711 93.7039C327.984 92.9757 326.997 92.5667 325.968 92.5667H260.417C259.389 92.5667 258.402 92.9757 257.675 93.7039C256.947 94.4321 256.539 95.4198 256.539 96.4496C256.539 97.4794 256.947 98.4671 257.675 99.1953C258.402 99.9235 259.389 100.333 260.417 100.333V122.868C258.275 122.868 256.539 124.41 256.539 126.554C256.539 128.699 258.275 130.241 260.417 130.241V153.201C258.275 153.201 256.539 154.727 256.539 156.872C256.539 159.016 258.275 160.542 260.417 160.542H325.968C328.111 160.542 329.847 159.016 329.847 156.872C329.847 154.727 328.111 153.201 325.968 153.201V130.241C328.111 130.241 329.847 128.699 329.847 126.554Z" fill="#C44D4F"/>
<path d="M278.677 101.25H265.021V121.288H278.677V101.25Z" fill="#B9CFEB"/>
<path d="M299.596 101.25H285.94V121.288H299.596V101.25Z" fill="#B9CFEB"/>
<path d="M320.515 101.25H306.86V121.288H320.515V101.25Z" fill="#B9CFEB"/>
<path d="M278.677 130.971H265.021V151.009H278.677V130.971Z" fill="#B9CFEB"/>
<path d="M299.596 130.971H285.94V151.009H299.596V130.971Z" fill="#B9CFEB"/>
<path d="M320.515 130.971H306.86V151.009H320.515V130.971Z" fill="#B9CFEB"/>
<path d="M323.851 159.604H258.3C255.666 159.604 253.679 157.707 253.679 155.19C253.673 154.112 254.066 153.07 254.782 152.264C255.499 151.459 256.487 150.947 257.557 150.828V129.248C256.488 129.12 255.503 128.604 254.788 127.798C254.074 126.991 253.679 125.951 253.679 124.873C253.679 123.795 254.074 122.754 254.788 121.948C255.503 121.142 256.488 120.625 257.557 120.497V99.3349C256.411 99.1479 255.377 98.5359 254.662 97.6206C253.946 96.7054 253.6 95.5538 253.694 94.3951C253.787 93.2365 254.313 92.1555 255.167 91.3673C256.02 90.5791 257.139 90.1415 258.3 90.1414H323.851C325.013 90.1414 326.131 90.5791 326.985 91.3673C327.838 92.1555 328.364 93.2364 328.458 94.3951C328.552 95.5539 328.206 96.7054 327.49 97.6207C326.774 98.536 325.74 99.1479 324.594 99.3349V120.497C325.663 120.625 326.649 121.141 327.364 121.948C328.078 122.754 328.473 123.795 328.473 124.873C328.473 125.951 328.078 126.991 327.364 127.798C326.649 128.604 325.663 129.12 324.594 129.248V150.828C325.665 150.947 326.653 151.459 327.369 152.264C328.085 153.07 328.479 154.112 328.473 155.19C328.473 157.706 326.486 159.604 323.851 159.604ZM258.3 91.6287C257.469 91.6287 256.671 91.9594 256.083 92.5482C255.495 93.1369 255.164 93.9354 255.164 94.768C255.164 95.6006 255.495 96.3991 256.083 96.9878C256.671 97.5765 257.469 97.9072 258.3 97.9072C258.497 97.9072 258.686 97.9856 258.826 98.1251C258.965 98.2646 259.043 98.4537 259.043 98.651V121.186C259.043 121.384 258.965 121.573 258.826 121.712C258.686 121.852 258.497 121.93 258.3 121.93C256.513 121.93 255.165 123.195 255.165 124.873C255.165 126.55 256.513 127.815 258.3 127.815C258.497 127.815 258.686 127.894 258.826 128.033C258.965 128.173 259.043 128.362 259.043 128.559V151.52C259.043 151.717 258.965 151.906 258.826 152.045C258.686 152.185 258.497 152.263 258.3 152.263C256.513 152.263 255.165 153.521 255.165 155.19C255.165 156.859 256.513 158.117 258.3 158.117H323.851C325.639 158.117 326.987 156.859 326.987 155.19C326.987 153.521 325.639 152.263 323.851 152.263C323.654 152.263 323.465 152.185 323.326 152.045C323.187 151.906 323.108 151.717 323.108 151.52V128.559C323.108 128.362 323.187 128.173 323.326 128.033C323.465 127.894 323.654 127.815 323.851 127.815C325.639 127.815 326.987 126.55 326.987 124.873C326.987 123.195 325.639 121.93 323.851 121.93C323.654 121.93 323.465 121.852 323.326 121.712C323.187 121.573 323.108 121.384 323.108 121.186V98.651C323.108 98.4537 323.187 98.2646 323.326 98.1251C323.465 97.9856 323.654 97.9072 323.851 97.9072C324.683 97.9072 325.481 97.5765 326.069 96.9878C326.657 96.3991 326.987 95.6006 326.987 94.768C326.987 93.9354 326.657 93.1369 326.069 92.5482C325.481 91.9594 324.683 91.6287 323.851 91.6287H258.3Z" fill="black"/>
<path d="M276.984 120.87H263.328C263.131 120.87 262.942 120.792 262.803 120.653C262.664 120.513 262.585 120.324 262.585 120.127V100.089C262.585 99.8916 262.664 99.7025 262.803 99.563C262.942 99.4236 263.131 99.3452 263.328 99.3452H276.984C277.181 99.3452 277.37 99.4236 277.509 99.563C277.648 99.7025 277.727 99.8917 277.727 100.089V120.127C277.727 120.324 277.648 120.513 277.509 120.653C277.37 120.792 277.181 120.87 276.984 120.87ZM264.071 119.383H276.241V100.833H264.071V119.383Z" fill="black"/>
<path d="M297.903 120.87H284.248C284.051 120.87 283.862 120.792 283.722 120.653C283.583 120.513 283.505 120.324 283.505 120.127V100.089C283.505 99.8917 283.583 99.7025 283.722 99.563C283.862 99.4236 284.051 99.3452 284.248 99.3452H297.903C298.1 99.3452 298.289 99.4236 298.428 99.563C298.568 99.7025 298.646 99.8917 298.646 100.089V120.127C298.646 120.324 298.568 120.513 298.428 120.653C298.289 120.792 298.1 120.87 297.903 120.87ZM284.991 119.383H297.16V100.833H284.991V119.383Z" fill="black"/>
<path d="M318.822 120.87H305.167C304.97 120.87 304.781 120.792 304.641 120.653C304.502 120.513 304.424 120.324 304.424 120.127V100.089C304.424 99.8917 304.502 99.7025 304.641 99.563C304.781 99.4236 304.97 99.3452 305.167 99.3452H318.822C319.019 99.3452 319.208 99.4236 319.347 99.563C319.487 99.7025 319.565 99.8917 319.565 100.089V120.127C319.565 120.324 319.487 120.513 319.347 120.653C319.208 120.792 319.019 120.87 318.822 120.87ZM305.91 119.383H318.079V100.833H305.91V119.383Z" fill="black"/>
<path d="M276.984 150.592H263.328C263.131 150.592 262.942 150.514 262.803 150.374C262.664 150.235 262.585 150.045 262.585 149.848V129.81C262.585 129.613 262.664 129.424 262.803 129.284C262.942 129.145 263.131 129.067 263.328 129.067H276.984C277.181 129.067 277.37 129.145 277.509 129.284C277.648 129.424 277.727 129.613 277.727 129.81V149.848C277.727 150.045 277.648 150.235 277.509 150.374C277.37 150.514 277.181 150.592 276.984 150.592ZM264.071 149.105H276.241V130.554H264.071V149.105Z" fill="black"/>
<path d="M297.903 150.592H284.248C284.051 150.592 283.862 150.514 283.722 150.374C283.583 150.235 283.505 150.045 283.505 149.848V129.81C283.505 129.613 283.583 129.424 283.722 129.284C283.862 129.145 284.051 129.067 284.248 129.067H297.903C298.1 129.067 298.289 129.145 298.428 129.284C298.568 129.424 298.646 129.613 298.646 129.81V149.848C298.646 150.045 298.568 150.235 298.428 150.374C298.289 150.514 298.1 150.592 297.903 150.592ZM284.991 149.105H297.16V130.554H284.991V149.105Z" fill="black"/>
<path d="M318.822 150.592H305.167C304.97 150.592 304.781 150.514 304.641 150.374C304.502 150.235 304.424 150.045 304.424 149.848V129.81C304.424 129.613 304.502 129.424 304.641 129.284C304.781 129.145 304.97 129.067 305.167 129.067H318.822C319.019 129.067 319.208 129.145 319.347 129.284C319.487 129.424 319.565 129.613 319.565 129.81V149.848C319.565 150.045 319.487 150.235 319.347 150.374C319.208 150.514 319.019 150.592 318.822 150.592ZM305.91 149.105H318.079V130.554H305.91V149.105Z" fill="black"/>
<path d="M278.325 86.4749H276.984V90.8851H278.325V86.4749Z" fill="white"/>
<path d="M276.984 85.7312H278.325C278.522 85.7312 278.711 85.8096 278.85 85.949C278.989 86.0885 279.067 86.2777 279.067 86.4749V90.8851C279.067 91.0823 278.989 91.2715 278.85 91.4109C278.711 91.5504 278.522 91.6287 278.325 91.6287H276.984C276.787 91.6287 276.598 91.5504 276.458 91.4109C276.319 91.2715 276.241 91.0823 276.241 90.8851V86.4749C276.241 86.2776 276.319 86.0885 276.458 85.949C276.598 85.8096 276.787 85.7312 276.984 85.7312Z" fill="black"/>
<path d="M305.167 86.4749H303.826V90.8851H305.167V86.4749Z" fill="white"/>
<path d="M305.167 85.7312H303.826C303.416 85.7312 303.083 86.0642 303.083 86.4749V90.8851C303.083 91.2958 303.416 91.6287 303.826 91.6287H305.167C305.577 91.6287 305.91 91.2958 305.91 90.8851V86.4749C305.91 86.0642 305.577 85.7312 305.167 85.7312Z" fill="black"/>
<path d="M311.166 73.7437H270.952V86.4749H311.166V73.7437Z" fill="white"/>
<path d="M311.167 87.2185H270.952C270.755 87.2185 270.566 87.1402 270.427 87.0007C270.287 86.8613 270.209 86.6721 270.209 86.4749V73.7437C270.209 73.5465 270.287 73.3573 270.427 73.2178C270.566 73.0784 270.755 73 270.952 73H311.167C311.364 73 311.553 73.0784 311.692 73.2178C311.831 73.3573 311.91 73.5465 311.91 73.7437V86.4749C311.91 86.6721 311.831 86.8613 311.692 87.0007C311.553 87.1402 311.364 87.2185 311.167 87.2185ZM271.695 85.7312H310.424V74.4874H271.695L271.695 85.7312Z" fill="black"/>
<path d="M280.185 76.9109V83.537H279.306V78.7085L277.09 83.537H276.527L274.301 78.7085V83.537H273.432V76.9109H274.32L276.813 82.3418L279.297 76.9109H280.185Z" fill="black"/>
<path d="M286.183 83.537L285.668 82.0837H282.726L282.21 83.537H281.322L283.729 76.9109H284.684L287.081 83.537H286.183ZM282.974 81.3952H285.419L284.197 77.972L282.974 81.3952Z" fill="black"/>
<path d="M289.087 80.8024V83.537H288.218V76.9109H290.367C290.984 76.8679 291.594 77.0628 292.072 77.4558C292.26 77.6227 292.41 77.8283 292.511 78.0585C292.612 78.2887 292.663 78.538 292.659 78.7896C292.676 79.2649 292.524 79.7308 292.23 80.1043C291.898 80.479 291.437 80.7146 290.94 80.7642L292.764 83.537H291.675L289.937 80.8024H289.087ZM289.087 77.6087V80.1139H290.367C290.751 80.1446 291.132 80.0266 291.432 79.7841C291.552 79.6635 291.644 79.519 291.705 79.36C291.765 79.201 291.791 79.0311 291.781 78.8614C291.781 78.0264 291.309 77.6089 290.367 77.6087H289.087Z" fill="black"/>
<path d="M294.98 83.537H294.111V76.9109H294.98V79.98L297.703 76.9109H298.839L295.745 80.267L298.839 83.537H297.684L294.98 80.5729V83.537Z" fill="black"/>
<path d="M303.328 76.9109V77.5991H300.692V79.8557H303.042V80.5346H300.692V82.8485H303.328V83.537H299.823V76.9109H303.328Z" fill="black"/>
<path d="M304.351 77.6087V76.9109H308.716V77.6087H306.967V83.537H306.098V77.6087H304.351Z" fill="black"/>
<path d="M346.531 163.939H315.903C315.706 163.939 315.517 164.017 315.378 164.157C315.238 164.296 315.16 164.485 315.16 164.682C315.16 164.88 315.238 165.069 315.378 165.208C315.517 165.348 315.706 165.426 315.903 165.426H346.531C346.728 165.426 346.917 165.348 347.056 165.208C347.196 165.069 347.274 164.88 347.274 164.682C347.274 164.485 347.196 164.296 347.056 164.157C346.917 164.017 346.728 163.939 346.531 163.939Z" fill="black"/>
<path d="M312.842 163.939H257.743C257.546 163.939 257.357 164.017 257.218 164.157C257.078 164.296 257 164.485 257 164.682C257 164.88 257.078 165.069 257.218 165.208C257.357 165.348 257.546 165.426 257.743 165.426H312.842C313.04 165.426 313.228 165.348 313.368 165.208C313.507 165.069 313.585 164.88 313.585 164.682C313.585 164.485 313.507 164.296 313.368 164.157C313.228 164.017 313.04 163.939 312.842 163.939Z" fill="black"/>
<path d="M342.816 109.063C339.938 109.361 336.174 131.926 337.703 137.954C339.039 143.224 342.816 144.202 342.816 144.202C342.816 144.202 346.592 143.224 347.929 137.954C349.457 131.926 345.693 109.361 342.816 109.063Z" fill="#9AB239"/>
<path d="M342.758 109.056C342.795 109.066 342.835 109.066 342.873 109.056H342.758Z" fill="#9AB239"/>
<path d="M341.223 159.199C341.026 159.199 340.837 159.121 340.698 158.981C340.558 158.842 340.48 158.653 340.48 158.456V122.937C340.48 122.739 340.558 122.55 340.698 122.411C340.837 122.271 341.026 122.193 341.223 122.193C341.42 122.193 341.609 122.271 341.748 122.411C341.888 122.55 341.966 122.739 341.966 122.937V158.456C341.966 158.653 341.888 158.842 341.748 158.981C341.609 159.121 341.42 159.199 341.223 159.199Z" fill="black"/>
<path d="M341.223 130.281C341.125 130.281 341.029 130.262 340.939 130.224C340.848 130.187 340.766 130.132 340.698 130.063L337.792 127.155C337.653 127.015 337.574 126.826 337.574 126.629C337.574 126.432 337.652 126.243 337.792 126.103C337.931 125.964 338.12 125.885 338.317 125.885C338.514 125.885 338.703 125.964 338.842 126.103L341.748 129.011C341.852 129.115 341.923 129.248 341.951 129.392C341.98 129.536 341.965 129.686 341.909 129.822C341.853 129.958 341.758 130.074 341.636 130.155C341.513 130.237 341.37 130.281 341.223 130.281Z" fill="black"/>
<path d="M341.222 135.707C341.087 135.707 340.954 135.669 340.838 135.599C340.722 135.528 340.627 135.428 340.564 135.307C340.502 135.187 340.473 135.052 340.481 134.916C340.49 134.78 340.535 134.65 340.613 134.538L343.798 129.952C343.853 129.871 343.924 129.803 344.006 129.75C344.088 129.697 344.18 129.661 344.276 129.643C344.372 129.626 344.471 129.628 344.566 129.649C344.662 129.669 344.752 129.709 344.832 129.765C344.913 129.82 344.981 129.891 345.034 129.974C345.086 130.056 345.122 130.148 345.14 130.244C345.157 130.34 345.155 130.439 345.134 130.534C345.113 130.63 345.074 130.72 345.018 130.801L341.833 135.387C341.765 135.486 341.673 135.567 341.567 135.622C341.461 135.678 341.342 135.707 341.222 135.707Z" fill="black"/>
<path d="M341.307 145.258C341.244 145.258 341.181 145.25 341.12 145.234C340.946 145.189 336.834 144.063 335.382 138.338C333.906 132.514 336.978 112.668 339.949 108.846C340.192 108.501 340.529 108.234 340.919 108.077C341.022 108.026 341.134 108 341.248 108H341.365C341.479 108 341.591 108.026 341.694 108.077C342.084 108.234 342.421 108.501 342.664 108.846C345.635 112.668 348.707 132.514 347.23 138.338C345.779 144.063 341.667 145.189 341.493 145.234C341.432 145.25 341.369 145.258 341.307 145.258ZM341.306 109.543C340.657 110.065 339.093 113.451 337.694 121.749C336.503 128.81 336.153 135.33 336.823 137.972C337.892 142.192 340.578 143.461 341.307 143.733C342.052 143.458 344.718 142.201 345.79 137.972C346.46 135.33 346.11 128.81 344.919 121.749C343.52 113.451 341.956 110.065 341.306 109.543Z" fill="black"/>
<path d="M197.033 83.7915L216.115 58.1387L235.198 83.7915H197.033Z" fill="#4A3D36"/>
<path d="M235.197 87.0852H197.033V161.905H235.197V87.0852Z" fill="#EEE2CA"/>
<path d="M211.469 110.694H203.318V120.652H211.469V110.694Z" fill="#B9CFEB"/>
<path d="M226.494 110.694H218.343V120.652H226.494V110.694Z" fill="#B9CFEB"/>
<path d="M211.469 94.5242H203.318V104.482H211.469V94.5242Z" fill="#B9CFEB"/>
<path d="M226.494 94.5242H218.343V104.482H226.494V94.5242Z" fill="#B9CFEB"/>
<path d="M211.469 126.854H203.318V136.812H211.469V126.854Z" fill="#B9CFEB"/>
<path d="M226.494 126.854H218.343V136.812H226.494V126.854Z" fill="#B9CFEB"/>
<path d="M214.906 144.875C213.578 144.875 212.304 145.403 211.365 146.343C210.426 147.283 209.898 148.558 209.898 149.888V161.426H219.915V149.888C219.915 148.558 219.387 147.283 218.448 146.343C217.508 145.403 216.235 144.875 214.906 144.875Z" fill="#BEE2F7"/>
<path d="M243.949 157.438C247.676 156.978 250.325 153.582 249.866 149.851C249.408 146.121 246.015 143.469 242.288 143.928C238.562 144.387 235.912 147.784 236.371 151.514C236.83 155.245 240.223 157.897 243.949 157.438Z" fill="#859433"/>
<path d="M232.927 83.9869H194.763C194.625 83.9869 194.49 83.9486 194.372 83.8762C194.255 83.8038 194.16 83.7002 194.099 83.577C194.037 83.4538 194.01 83.3158 194.022 83.1784C194.034 83.041 194.084 82.9097 194.167 82.7991L213.249 57.1465C213.318 57.0535 213.408 56.978 213.511 56.926C213.615 56.874 213.729 56.8469 213.845 56.8469C213.96 56.8469 214.075 56.874 214.178 56.926C214.282 56.978 214.371 57.0535 214.441 57.1465L233.523 82.7991C233.605 82.9097 233.655 83.041 233.667 83.1784C233.679 83.3158 233.653 83.4538 233.591 83.577C233.529 83.7002 233.434 83.8038 233.317 83.8762C233.2 83.9486 233.065 83.9869 232.927 83.9869ZM196.242 82.4996H231.448L213.845 58.8358L196.242 82.4996Z" fill="#2B2A2A"/>
<path d="M232.927 161.158H194.763C194.566 161.158 194.377 161.08 194.238 160.941C194.098 160.801 194.02 160.612 194.02 160.415V85.595C194.02 85.3978 194.098 85.2086 194.238 85.0692C194.377 84.9297 194.566 84.8513 194.763 84.8513H232.927C233.124 84.8513 233.313 84.9297 233.453 85.0692C233.592 85.2086 233.67 85.3978 233.67 85.595V160.415C233.67 160.612 233.592 160.801 233.453 160.941C233.313 161.08 233.124 161.158 232.927 161.158ZM195.506 159.671H232.184V86.3387H195.506V159.671Z" fill="#2B2A2A"/>
<path d="M217.25 79.1636H210.44C210.243 79.1636 210.054 79.0852 209.914 78.9457C209.775 78.8063 209.697 78.6171 209.697 78.4199V75.0112C209.697 73.9098 210.134 72.8536 210.912 72.0749C211.69 71.2961 212.745 70.8586 213.845 70.8586C214.945 70.8586 216 71.2961 216.778 72.0749C217.556 72.8536 217.993 73.9098 217.993 75.0112V78.4199C217.993 78.6171 217.915 78.8063 217.775 78.9457C217.636 79.0852 217.447 79.1636 217.25 79.1636ZM211.183 77.6762H216.507V75.0112C216.507 74.3043 216.227 73.6264 215.727 73.1266C215.228 72.6268 214.551 72.346 213.845 72.346C213.139 72.346 212.462 72.6268 211.962 73.1266C211.463 73.6264 211.183 74.3043 211.183 75.0112V77.6762Z" fill="#2B2A2A"/>
<path d="M210.408 120.385H202.257C202.06 120.385 201.871 120.307 201.732 120.167C201.592 120.028 201.514 119.839 201.514 119.642V109.683C201.514 109.486 201.592 109.297 201.732 109.158C201.871 109.018 202.06 108.94 202.257 108.94H210.408C210.605 108.94 210.794 109.018 210.933 109.158C211.072 109.297 211.151 109.486 211.151 109.683V119.642C211.151 119.839 211.072 120.028 210.933 120.167C210.794 120.307 210.605 120.385 210.408 120.385ZM203 118.898H209.665V110.427H203V118.898Z" fill="#2B2A2A"/>
<path d="M225.433 120.385H217.282C217.085 120.385 216.896 120.307 216.757 120.167C216.617 120.028 216.539 119.839 216.539 119.642V109.683C216.539 109.486 216.617 109.297 216.757 109.158C216.896 109.018 217.085 108.94 217.282 108.94H225.433C225.63 108.94 225.819 109.018 225.958 109.158C226.097 109.297 226.176 109.486 226.176 109.683V119.642C226.176 119.839 226.097 120.028 225.958 120.167C225.819 120.307 225.63 120.385 225.433 120.385ZM218.025 118.898H224.69V110.427H218.025V118.898Z" fill="#2B2A2A"/>
<path d="M210.408 104.215H202.257C202.06 104.215 201.871 104.137 201.732 103.997C201.592 103.858 201.514 103.669 201.514 103.471V93.5132C201.514 93.316 201.592 93.1268 201.732 92.9873C201.871 92.8479 202.06 92.7695 202.257 92.7695H210.408C210.605 92.7695 210.794 92.8479 210.933 92.9873C211.072 93.1268 211.151 93.316 211.151 93.5132V103.471C211.151 103.669 211.072 103.858 210.933 103.997C210.794 104.137 210.605 104.215 210.408 104.215ZM203 102.728H209.665V94.2569H203V102.728Z" fill="#2B2A2A"/>
<path d="M225.433 104.215H217.282C217.085 104.215 216.896 104.137 216.757 103.997C216.617 103.858 216.539 103.669 216.539 103.471V93.5132C216.539 93.316 216.617 93.1268 216.757 92.9873C216.896 92.8479 217.085 92.7695 217.282 92.7695H225.433C225.63 92.7695 225.819 92.8479 225.958 92.9873C226.097 93.1268 226.176 93.316 226.176 93.5132V103.471C226.176 103.669 226.097 103.858 225.958 103.997C225.819 104.137 225.63 104.215 225.433 104.215ZM218.025 102.728H224.69V94.2569H218.025V102.728Z" fill="#2B2A2A"/>
<path d="M210.408 136.545H202.257C202.06 136.545 201.871 136.466 201.732 136.327C201.592 136.187 201.514 135.998 201.514 135.801V125.843C201.514 125.646 201.592 125.456 201.732 125.317C201.871 125.177 202.06 125.099 202.257 125.099H210.408C210.605 125.099 210.794 125.177 210.933 125.317C211.072 125.456 211.151 125.646 211.151 125.843V135.801C211.151 135.998 211.072 136.187 210.933 136.327C210.794 136.466 210.605 136.545 210.408 136.545ZM203 135.057H209.665V126.586H203V135.057Z" fill="#2B2A2A"/>
<path d="M225.433 136.545H217.282C217.085 136.545 216.896 136.466 216.757 136.327C216.617 136.187 216.539 135.998 216.539 135.801V125.843C216.539 125.646 216.617 125.456 216.757 125.317C216.896 125.177 217.085 125.099 217.282 125.099H225.433C225.63 125.099 225.819 125.177 225.958 125.317C226.097 125.456 226.176 125.646 226.176 125.843V135.801C226.176 135.998 226.097 136.187 225.958 136.327C225.819 136.466 225.63 136.545 225.433 136.545ZM218.025 135.057H224.69V126.586H218.025V135.057Z" fill="#2B2A2A"/>
<path d="M213.845 143.864C212.516 143.864 211.243 144.392 210.303 145.332C209.364 146.272 208.836 147.547 208.836 148.877V160.415H218.853V148.877C218.853 147.547 218.325 146.272 217.386 145.332C216.447 144.392 215.173 143.864 213.845 143.864Z" fill="white"/>
<path d="M218.853 161.158H208.837C208.64 161.158 208.451 161.08 208.311 160.941C208.172 160.801 208.094 160.612 208.094 160.415V148.877C208.094 147.35 208.7 145.886 209.778 144.806C210.857 143.726 212.32 143.12 213.845 143.12C215.37 143.12 216.833 143.726 217.912 144.806C218.99 145.886 219.596 147.35 219.596 148.877V160.415C219.596 160.612 219.518 160.801 219.379 160.941C219.239 161.08 219.05 161.158 218.853 161.158ZM209.58 159.671H218.11V148.877C218.11 147.745 217.661 146.659 216.861 145.858C216.061 145.057 214.976 144.607 213.845 144.607C212.714 144.607 211.629 145.057 210.829 145.858C210.029 146.659 209.58 147.745 209.58 148.877V159.671Z" fill="#2B2A2A"/>
<path d="M241.996 167.168C241.799 167.168 241.61 167.09 241.471 166.951C241.331 166.811 241.253 166.622 241.253 166.425V147.171C241.253 146.974 241.331 146.785 241.471 146.645C241.61 146.506 241.799 146.427 241.996 146.427C242.193 146.427 242.382 146.506 242.521 146.645C242.66 146.785 242.739 146.974 242.739 147.171V166.425C242.739 166.622 242.66 166.811 242.521 166.951C242.382 167.09 242.193 167.168 241.996 167.168Z" fill="black"/>
<path d="M241.996 151.427C241.799 151.427 241.611 151.349 241.472 151.211L239.595 149.343C239.455 149.204 239.377 149.015 239.376 148.818C239.375 148.621 239.453 148.431 239.592 148.291C239.731 148.152 239.92 148.073 240.117 148.072C240.314 148.071 240.503 148.149 240.643 148.288L242.519 150.156C242.624 150.259 242.695 150.392 242.724 150.536C242.753 150.681 242.739 150.831 242.682 150.967C242.626 151.103 242.531 151.219 242.409 151.301C242.287 151.383 242.143 151.427 241.996 151.427Z" fill="black"/>
<path d="M241.995 154.768C241.86 154.768 241.728 154.731 241.613 154.662C241.497 154.592 241.403 154.493 241.34 154.374C241.277 154.255 241.247 154.121 241.254 153.986C241.261 153.851 241.304 153.721 241.379 153.609L243.626 150.268C243.68 150.187 243.75 150.117 243.832 150.063C243.913 150.009 244.004 149.971 244.1 149.952C244.196 149.934 244.294 149.934 244.39 149.953C244.486 149.973 244.577 150.011 244.658 150.065C244.739 150.12 244.808 150.19 244.862 150.271C244.916 150.353 244.953 150.444 244.972 150.54C244.991 150.636 244.99 150.735 244.971 150.83C244.951 150.926 244.913 151.017 244.858 151.098L242.612 154.44C242.544 154.541 242.452 154.624 242.345 154.681C242.237 154.738 242.117 154.768 241.995 154.768Z" fill="black"/>
<path d="M241.996 157.299C240.504 157.299 239.046 156.856 237.806 156.026C236.566 155.197 235.599 154.018 235.029 152.638C234.458 151.259 234.309 149.741 234.599 148.276C234.89 146.812 235.609 145.467 236.663 144.411C237.718 143.355 239.062 142.636 240.525 142.345C241.988 142.054 243.504 142.203 244.882 142.775C246.26 143.346 247.438 144.314 248.266 145.555C249.095 146.797 249.537 148.256 249.537 149.749C249.535 151.751 248.74 153.67 247.326 155.085C245.912 156.5 243.995 157.296 241.996 157.299ZM241.996 143.687C240.798 143.687 239.627 144.043 238.632 144.709C237.636 145.375 236.86 146.322 236.401 147.429C235.943 148.537 235.823 149.756 236.057 150.932C236.29 152.108 236.867 153.188 237.714 154.036C238.561 154.883 239.64 155.461 240.815 155.695C241.989 155.929 243.207 155.809 244.313 155.35C245.42 154.891 246.366 154.114 247.031 153.117C247.696 152.12 248.052 150.948 248.052 149.749C248.05 148.142 247.411 146.601 246.276 145.465C245.141 144.328 243.601 143.689 241.996 143.687Z" fill="black"/>
<path d="M53.7191 125.089H20.356V161.616H53.7191V125.089Z" fill="#D7D1B5"/>
<path d="M31.8696 89.7142H23.7109L27.7905 80.9844L31.8696 72.2542L35.9491 80.9844L40.0287 89.7142H31.8696Z" fill="#4A3D36"/>
<path d="M9.10008 99.0244C5.46368 99.4003 0.708055 127.914 2.63926 135.531C4.32768 142.19 9.10008 143.426 9.10008 143.426C9.10008 143.426 13.8725 142.19 15.5609 135.531C17.4921 127.914 12.7365 99.4003 9.10008 99.0244Z" fill="#9AB239"/>
<path d="M9.02783 99.0156C9.05185 99.0156 9.07615 99.022 9.10028 99.0245C9.12429 99.0203 9.14848 99.0174 9.17277 99.0156H9.02783Z" fill="#9AB239"/>
<path d="M20.356 124.321L37.0376 101.896L53.7192 124.321H20.356Z" fill="#4A3D36"/>
<path d="M41.5066 138.975H28.8525V159.759H41.5066V138.975Z" fill="white"/>
<path d="M41.5065 160.503H28.8523C28.6553 160.503 28.4663 160.425 28.327 160.285C28.1877 160.146 28.1094 159.957 28.1094 159.759V138.975C28.1094 138.778 28.1877 138.588 28.327 138.449C28.4663 138.31 28.6553 138.231 28.8523 138.231H41.5064C41.7035 138.231 41.8924 138.31 42.0318 138.449C42.1711 138.588 42.2494 138.778 42.2494 138.975V159.759C42.2494 159.957 42.1711 160.146 42.0318 160.285C41.8924 160.425 41.7035 160.503 41.5065 160.503ZM29.5952 159.016H40.7636V139.719H29.5952V159.016Z" fill="black"/>
<path d="M51.8612 124.179H18.4978C18.3601 124.179 18.225 124.141 18.1078 124.069C17.9906 123.996 17.8957 123.893 17.8339 123.769C17.7721 123.646 17.7457 123.508 17.7577 123.371C17.7697 123.233 17.8196 123.102 17.9019 122.991L34.5836 100.566C34.6527 100.473 34.7426 100.398 34.8461 100.346C34.9496 100.294 35.0637 100.267 35.1795 100.267C35.2953 100.267 35.4095 100.294 35.5129 100.346C35.6164 100.398 35.7063 100.473 35.7754 100.566L52.4571 122.991C52.5394 123.102 52.5893 123.233 52.6013 123.371C52.6133 123.508 52.5869 123.646 52.5251 123.769C52.4633 123.893 52.3685 123.996 52.2512 124.069C52.134 124.141 51.9989 124.179 51.8612 124.179ZM19.9772 122.692H50.3818L35.1795 102.255L19.9772 122.692Z" fill="black"/>
<path d="M35.1794 112.702C34.7885 112.702 34.4014 112.779 34.0402 112.929C33.6791 113.078 33.3509 113.298 33.0745 113.575C32.7981 113.851 32.5788 114.18 32.4292 114.541C32.2796 114.903 32.2026 115.29 32.2026 115.682V118.662H38.1562V115.682C38.1562 114.891 37.8425 114.134 37.2843 113.575C36.726 113.016 35.9689 112.702 35.1794 112.702Z" fill="white"/>
<path d="M38.1559 119.405H32.2024C32.0054 119.405 31.8164 119.327 31.6771 119.188C31.5378 119.048 31.4595 118.859 31.4595 118.662V115.682C31.4595 114.694 31.8514 113.747 32.5489 113.049C33.2465 112.351 34.1926 111.958 35.1792 111.958C36.1657 111.958 37.1118 112.351 37.8094 113.049C38.507 113.747 38.8988 114.694 38.8988 115.682V118.662C38.8988 118.859 38.8206 119.048 38.6812 119.188C38.5419 119.327 38.353 119.405 38.1559 119.405ZM32.9453 117.918H37.413V115.682C37.413 115.089 37.1777 114.52 36.7587 114.101C36.3398 113.681 35.7716 113.446 35.1791 113.446C34.5867 113.446 34.0185 113.681 33.5996 114.101C33.1806 114.52 32.9453 115.089 32.9453 115.682L32.9453 117.918Z" fill="black"/>
<path d="M30.3419 82.418C29.7678 82.418 29.2172 82.6463 28.8113 83.0527C28.4053 83.4591 28.1772 84.0102 28.1772 84.585V86.7519H32.5066V84.585C32.5067 84.3004 32.4507 84.0186 32.3419 83.7557C32.2331 83.4928 32.0736 83.2539 31.8726 83.0527C31.6716 82.8514 31.433 82.6918 31.1703 82.5829C30.9077 82.474 30.6262 82.418 30.3419 82.418Z" fill="white"/>
<path d="M32.5063 87.4958H28.177C27.9799 87.4958 27.791 87.4175 27.6517 87.278C27.5124 87.1385 27.4341 86.9494 27.4341 86.7522V84.5852C27.4341 83.8132 27.7404 83.0729 28.2857 82.527C28.831 81.9812 29.5705 81.6746 30.3416 81.6746C31.1128 81.6746 31.8523 81.9812 32.3976 82.527C32.9428 83.0729 33.2492 83.8132 33.2492 84.5852V86.7522C33.2492 86.9494 33.1709 87.1386 33.0316 87.278C32.8922 87.4175 32.7033 87.4958 32.5063 87.4958ZM28.9199 86.0084H31.7634V84.5852C31.7634 84.2077 31.6136 83.8457 31.3469 83.5788C31.0803 83.3119 30.7187 83.1619 30.3416 83.1619C29.9645 83.1619 29.6029 83.3119 29.3363 83.5788C29.0696 83.8457 28.9199 84.2077 28.9199 84.5852V86.0084Z" fill="#2B2A2A"/>
<path d="M7.54758 159.725C7.35055 159.725 7.1616 159.647 7.02228 159.507C6.88296 159.368 6.80469 159.178 6.80469 158.981V114.884C6.80469 114.686 6.88296 114.497 7.02227 114.358C7.16159 114.218 7.35055 114.14 7.54758 114.14C7.7446 114.14 7.93356 114.218 8.07288 114.358C8.21219 114.497 8.29046 114.686 8.29046 114.884V158.981C8.29046 159.178 8.21219 159.368 8.07288 159.507C7.93356 159.647 7.7446 159.725 7.54758 159.725Z" fill="black"/>
<path d="M7.54752 123.822C7.44996 123.822 7.35334 123.803 7.26321 123.765C7.17307 123.728 7.09119 123.673 7.02228 123.604L3.41491 119.993C3.27557 119.854 3.19728 119.665 3.19727 119.468C3.19725 119.27 3.2755 119.081 3.41481 118.942C3.55412 118.802 3.74307 118.724 3.9401 118.724C4.13714 118.724 4.3261 118.802 4.46544 118.942L8.07277 122.552C8.17665 122.656 8.2474 122.789 8.27606 122.933C8.30472 123.077 8.29001 123.227 8.23379 123.363C8.17758 123.498 8.08238 123.615 7.96022 123.696C7.83807 123.778 7.69445 123.822 7.54752 123.822Z" fill="black"/>
<path d="M7.54699 130.558C7.41134 130.558 7.27832 130.521 7.16234 130.45C7.04636 130.38 6.95186 130.279 6.88907 130.158C6.82628 130.038 6.79761 129.903 6.80617 129.767C6.81472 129.632 6.86018 129.501 6.93761 129.39L10.8919 123.695C10.9475 123.615 11.0184 123.546 11.1006 123.493C11.1827 123.441 11.2744 123.404 11.3705 123.387C11.4665 123.37 11.5651 123.371 11.6605 123.392C11.7559 123.413 11.8463 123.452 11.9264 123.508C12.0066 123.564 12.075 123.635 12.1277 123.717C12.1805 123.8 12.2165 123.891 12.2337 123.988C12.2509 124.084 12.249 124.183 12.2282 124.278C12.2073 124.373 12.1678 124.464 12.112 124.544L8.15767 130.239C8.08927 130.337 7.99797 130.418 7.89161 130.474C7.78525 130.529 7.66699 130.558 7.54699 130.558Z" fill="black"/>
<path d="M7.65147 142.416C7.58874 142.416 7.52626 142.408 7.46553 142.393C7.2533 142.338 2.2468 140.966 0.470608 133.96C-0.528291 130.021 0.220217 121.483 1.25352 114.806C2.28683 108.129 4.1047 100.077 6.10743 97.4996C6.38953 97.0974 6.78197 96.7855 7.23733 96.6017C7.343 96.5471 7.46022 96.5187 7.57914 96.5188H7.72405C7.84236 96.5186 7.959 96.5468 8.06419 96.601C8.5202 96.7847 8.91319 97.0968 9.19555 97.4995C11.1983 100.077 13.0162 108.129 14.0495 114.806C15.083 121.483 15.8313 130.021 14.8326 133.96C13.0562 140.966 8.04968 142.338 7.83742 142.393C7.77668 142.408 7.7142 142.416 7.65147 142.416ZM7.65087 98.0429C7.42805 98.2106 7.24129 98.4215 7.10176 98.6631C3.78113 103.689 0.287981 127.195 1.91082 133.595C3.28759 139.025 6.80743 140.59 7.65313 140.893C8.51962 140.588 12.0102 139.046 13.3924 133.595C15.0148 127.195 11.5218 103.69 8.20142 98.6632C8.06207 98.421 7.87472 98.2099 7.65087 98.0429V98.0429Z" fill="black"/>
<path d="M51.8611 160.733H18.4978C18.3007 160.733 18.1118 160.655 17.9725 160.515C17.8332 160.376 17.7549 160.187 17.7549 159.99V123.462C17.7549 123.265 17.8332 123.076 17.9725 122.936C18.1118 122.797 18.3007 122.719 18.4978 122.719H51.8611C52.0582 122.719 52.2471 122.797 52.3864 122.936C52.5257 123.076 52.604 123.265 52.604 123.462V159.99C52.604 160.187 52.5257 160.376 52.3864 160.515C52.2471 160.655 52.0582 160.733 51.8611 160.733ZM19.2407 159.246H51.1182V124.206H19.2407V159.246Z" fill="black"/>
<path d="M22.5276 118.762C22.3305 118.762 22.1416 118.683 22.0023 118.544C21.8629 118.405 21.7847 118.215 21.7847 118.018V91.4143C21.7847 91.2171 21.8629 91.028 22.0023 90.8885C22.1416 90.749 22.3305 90.6707 22.5276 90.6707H38.1562C38.3532 90.6707 38.5422 90.749 38.6815 90.8885C38.8208 91.028 38.8991 91.2171 38.8991 91.4143V104.716C38.8991 104.913 38.8209 105.103 38.6815 105.242C38.5422 105.382 38.3533 105.46 38.1562 105.46C37.9592 105.46 37.7702 105.382 37.6309 105.242C37.4916 105.103 37.4133 104.913 37.4133 104.716V92.158H23.2704V118.018C23.2704 118.215 23.1922 118.405 23.0528 118.544C22.9135 118.683 22.7246 118.762 22.5276 118.762Z" fill="black"/>
<path d="M38.5005 89.6083H22.1828C22.0578 89.6083 21.9348 89.5767 21.8253 89.5165C21.7157 89.4563 21.6231 89.3694 21.556 89.2638C21.4889 89.1583 21.4495 89.0374 21.4415 88.9126C21.4334 88.7877 21.457 88.6628 21.51 88.5495L29.6688 71.0895C29.7286 70.9614 29.8237 70.853 29.9429 70.7771C30.0621 70.7012 30.2004 70.6609 30.3417 70.6609C30.4829 70.6609 30.6212 70.7012 30.7404 70.7771C30.8596 70.853 30.9547 70.9614 31.0145 71.0895L39.1733 88.5495C39.2263 88.6628 39.2499 88.7877 39.2419 88.9126C39.2338 89.0374 39.1944 89.1583 39.1273 89.2638C39.0602 89.3694 38.9676 89.4563 38.858 89.5166C38.7485 89.5768 38.6255 89.6083 38.5005 89.6083ZM23.3504 88.1209H37.3329L30.3417 73.1597L23.3504 88.1209Z" fill="black"/>
</svg>
