<svg width="247" height="206" viewBox="0 0 247 206" fill="none" xmlns="http://www.w3.org/2000/svg">
<path d="M65.9448 31.6645C65.9448 32.0767 65.8226 32.4796 65.5936 32.8223C65.3646 33.165 65.0391 33.4322 64.6583 33.5899C64.2775 33.7476 63.8585 33.7889 63.4543 33.7085C63.05 33.6281 62.6787 33.4296 62.3873 33.1381C62.0958 32.8467 61.8973 32.4754 61.8169 32.0711C61.7365 31.6669 61.7778 31.2478 61.9355 30.867C62.0932 30.4862 62.3603 30.1608 62.703 29.9318C63.0458 29.7028 63.4487 29.5806 63.8608 29.5806C64.1345 29.5806 64.4055 29.6345 64.6583 29.7392C64.9112 29.8439 65.1409 29.9974 65.3344 30.1909C65.5279 30.3845 65.6815 30.6142 65.7862 30.867C65.8909 31.1199 65.9448 31.3909 65.9448 31.6645Z" fill="#7658D6"/>
<path d="M190.566 85.8476C191.717 85.8476 192.65 84.9146 192.65 83.7637C192.65 82.6127 191.717 81.6797 190.566 81.6797C189.415 81.6797 188.482 82.6127 188.482 83.7637C188.482 84.9146 189.415 85.8476 190.566 85.8476Z" fill="#F9C337"/>
<path d="M4.67648 157.953C4.6765 158.365 4.55429 158.768 4.32531 159.11C4.09633 159.453 3.77086 159.72 3.39006 159.878C3.00927 160.036 2.59024 160.077 2.18598 159.997C1.78173 159.916 1.41041 159.718 1.11895 159.426C0.827498 159.135 0.629013 158.763 0.548597 158.359C0.468181 157.955 0.509433 157.536 0.667162 157.155C0.824891 156.774 1.092 156.449 1.43471 156.22C1.77742 155.991 2.18035 155.869 2.59252 155.869C3.14522 155.869 3.67526 156.088 4.06607 156.479C4.45689 156.87 4.67647 157.4 4.67648 157.953Z" fill="#7658D6"/>
<path d="M2.59252 50.0036C3.74347 50.0036 4.67649 49.0706 4.67649 47.9197C4.67649 46.7687 3.74347 45.8357 2.59252 45.8357C1.44158 45.8357 0.508545 46.7687 0.508545 47.9197C0.508545 49.0706 1.44158 50.0036 2.59252 50.0036Z" fill="#F9C337"/>
<path d="M133.048 17.0769C133.048 17.4891 132.926 17.892 132.697 18.2347C132.468 18.5774 132.143 18.8445 131.762 19.0022C131.381 19.1599 130.962 19.2012 130.558 19.1207C130.153 19.0403 129.782 18.8419 129.491 18.5504C129.199 18.259 129.001 17.8876 128.92 17.4834C128.84 17.0791 128.881 16.6601 129.039 16.2793C129.197 15.8986 129.464 15.5731 129.807 15.3441C130.149 15.1151 130.552 14.9929 130.964 14.9929C131.517 14.9929 132.047 15.2125 132.438 15.6033C132.829 15.9941 133.048 16.5242 133.048 17.0769Z" fill="#F9C337"/>
<path d="M230.995 29.9975C230.995 30.4096 230.872 30.8126 230.643 31.1553C230.414 31.498 230.089 31.7651 229.708 31.9228C229.327 32.0805 228.908 32.1218 228.504 32.0414C228.1 31.961 227.728 31.7625 227.437 31.4711C227.146 31.1796 226.947 30.8083 226.867 30.4041C226.786 29.9998 226.828 29.5808 226.985 29.2C227.143 28.8192 227.41 28.4938 227.753 28.2648C228.096 28.0358 228.498 27.9136 228.911 27.9136C229.463 27.9136 229.993 28.1331 230.384 28.5239C230.775 28.9147 230.995 29.4448 230.995 29.9975Z" fill="#7658D6"/>
<path d="M27.0623 22.3821C26.8951 22.3821 26.7347 22.3157 26.6165 22.1975C26.4983 22.0792 26.4319 21.9189 26.4319 21.7517V17.4038C26.4319 17.2366 26.4983 17.0763 26.6165 16.9581C26.7347 16.8399 26.8951 16.7734 27.0623 16.7734C27.2295 16.7734 27.3898 16.8399 27.508 16.9581C27.6263 17.0763 27.6927 17.2366 27.6927 17.4038V21.7517C27.6927 21.9189 27.6262 22.0792 27.508 22.1974C27.3898 22.3156 27.2295 22.3821 27.0623 22.3821Z" fill="#2D3962"/>
<path d="M29.236 20.2081H24.8882C24.721 20.2081 24.5607 20.1416 24.4424 20.0234C24.3242 19.9052 24.2578 19.7449 24.2578 19.5777C24.2578 19.4105 24.3242 19.2501 24.4424 19.1319C24.5607 19.0137 24.721 18.9473 24.8882 18.9473H29.236C29.4032 18.9473 29.5635 19.0137 29.6818 19.1319C29.8 19.2501 29.8664 19.4105 29.8664 19.5777C29.8664 19.7449 29.8 19.9052 29.6818 20.0234C29.5635 20.1416 29.4032 20.2081 29.236 20.2081Z" fill="#2D3962"/>
<path d="M55.0713 161.599C54.9885 161.599 54.9065 161.583 54.83 161.551C54.7535 161.52 54.684 161.473 54.6254 161.415C54.5669 161.356 54.5204 161.286 54.4888 161.21C54.4571 161.133 54.4409 161.051 54.4409 160.969V156.621C54.4409 156.454 54.5073 156.294 54.6255 156.175C54.7438 156.057 54.9041 155.991 55.0713 155.991C55.2385 155.991 55.3988 156.057 55.5171 156.175C55.6353 156.294 55.7017 156.454 55.7017 156.621V160.969C55.7018 161.051 55.6855 161.133 55.6538 161.21C55.6222 161.286 55.5757 161.356 55.5172 161.415C55.4586 161.473 55.3891 161.52 55.3126 161.551C55.2361 161.583 55.1541 161.599 55.0713 161.599Z" fill="#2D3962"/>
<path d="M57.245 159.425H52.8975C52.7303 159.425 52.57 159.359 52.4517 159.241C52.3335 159.122 52.2671 158.962 52.2671 158.795C52.2671 158.628 52.3335 158.467 52.4517 158.349C52.57 158.231 52.7303 158.165 52.8975 158.165H57.245C57.4122 158.165 57.5726 158.231 57.6908 158.349C57.809 158.467 57.8754 158.628 57.8754 158.795C57.8754 158.962 57.809 159.122 57.6908 159.241C57.5726 159.359 57.4122 159.425 57.245 159.425Z" fill="#2D3962"/>
<path d="M169.001 20.9165C168.918 20.9165 168.836 20.9002 168.76 20.8686C168.683 20.8369 168.614 20.7904 168.555 20.7319C168.497 20.6734 168.45 20.6039 168.419 20.5274C168.387 20.4509 168.371 20.3689 168.371 20.2861V15.9383C168.371 15.7711 168.437 15.6107 168.555 15.4925C168.673 15.3743 168.834 15.3079 169.001 15.3079C169.168 15.3079 169.329 15.3743 169.447 15.4925C169.565 15.6107 169.631 15.7711 169.631 15.9383V20.2861C169.631 20.3689 169.615 20.4509 169.583 20.5274C169.552 20.6039 169.505 20.6734 169.447 20.7319C169.388 20.7904 169.319 20.8369 169.242 20.8686C169.166 20.9002 169.084 20.9165 169.001 20.9165Z" fill="#2D3962"/>
<path d="M171.175 18.7425H166.827C166.66 18.7425 166.5 18.6761 166.381 18.5578C166.263 18.4396 166.197 18.2793 166.197 18.1121C166.197 17.9449 166.263 17.7846 166.381 17.6663C166.5 17.5481 166.66 17.4817 166.827 17.4817H171.175C171.342 17.4817 171.503 17.5481 171.621 17.6663C171.739 17.7846 171.806 17.9449 171.806 18.1121C171.806 18.2793 171.739 18.4396 171.621 18.5578C171.503 18.6761 171.342 18.7425 171.175 18.7425Z" fill="#2D3962"/>
<path d="M236.673 66.4479C236.59 66.448 236.508 66.4317 236.432 66.4C236.355 66.3683 236.286 66.3219 236.227 66.2634C236.169 66.2048 236.122 66.1353 236.091 66.0588C236.059 65.9823 236.043 65.9003 236.043 65.8175V61.47C236.043 61.3028 236.109 61.1425 236.227 61.0242C236.346 60.906 236.506 60.8396 236.673 60.8396C236.84 60.8396 237.001 60.906 237.119 61.0242C237.237 61.1425 237.304 61.3028 237.304 61.47V65.8175C237.304 65.9003 237.287 65.9823 237.256 66.0588C237.224 66.1353 237.177 66.2048 237.119 66.2634C237.06 66.3219 236.991 66.3683 236.914 66.4C236.838 66.4317 236.756 66.448 236.673 66.4479Z" fill="#2D3962"/>
<path d="M238.847 64.2745H234.5C234.332 64.2745 234.172 64.2081 234.054 64.0898C233.936 63.9716 233.869 63.8113 233.869 63.6441C233.869 63.4769 233.936 63.3165 234.054 63.1983C234.172 63.0801 234.332 63.0137 234.5 63.0137H238.847C239.014 63.0137 239.175 63.0801 239.293 63.1983C239.411 63.3165 239.477 63.4769 239.477 63.6441C239.477 63.8113 239.411 63.9716 239.293 64.0898C239.175 64.2081 239.014 64.2745 238.847 64.2745Z" fill="#2D3962"/>
<g opacity="0.1">
<path d="M246.723 196.032C246.191 205.624 191.493 205.991 123.362 205.991C55.2308 205.991 -0.000244141 206.689 -0.000244141 196.032C-0.000244141 183.232 56.3281 185.19 124.459 185.19C192.59 185.19 247.404 183.783 246.723 196.032Z" fill="#6751C4"/>
</g>
<path d="M190.909 151.035L232.081 153.545V195.966L190.909 193.456V151.035Z" fill="#AF7123"/>
<path d="M190.909 151.035L174.225 153.545V195.966L190.909 193.456V151.035Z" fill="#C17C26"/>
<path d="M215.397 198.477L174.225 195.966V153.545L215.397 156.056V198.477Z" fill="#F9C337"/>
<path d="M215.397 198.477L232.081 195.966V153.545L215.397 156.056V198.477Z" fill="#F9C337"/>
<g style="mix-blend-mode:overlay" opacity="0.15">
<g style="mix-blend-mode:overlay">
<path d="M215.397 156.056L174.225 153.545V159.801L215.397 162.312L232.081 159.801V153.545L215.397 156.056Z" fill="black"/>
</g>
</g>
<path d="M190.368 145.968L172.647 148.634V157.945L190.368 155.278V145.968Z" fill="#C17C26"/>
<path d="M190.369 145.968L233.094 148.634V157.945L190.369 155.278V145.968Z" fill="#AF7123"/>
<path d="M215.374 160.612L172.647 157.945V148.634L215.374 151.301V160.612Z" fill="#F9C337"/>
<path d="M215.374 160.612L233.094 157.945V148.634L215.374 151.301V160.612Z" fill="#F9C337"/>
<path d="M172.647 148.634L190.368 145.968L233.094 148.634L215.374 151.301L172.647 148.634Z" fill="#F99D98"/>
<path d="M202.12 108.555L234.653 111.137V149.072L202.12 146.49V108.555Z" fill="#6751C4"/>
<path d="M202.12 108.555L234.653 111.137L240.806 104.431L208.272 101.848L202.12 108.555Z" fill="#8A74E8"/>
<path d="M202.12 108.555L184.96 111.137V149.072L202.12 146.49V108.555Z" fill="#7658D6"/>
<path d="M202.12 108.555L184.959 111.137L178.03 106.493L195.189 103.911L202.12 108.555Z" fill="#8A74E8"/>
<path d="M217.494 151.654L184.96 149.072V111.137L217.494 113.719V151.654Z" fill="#7658D6"/>
<path d="M209.807 120.439L177.273 117.857L184.96 111.137L217.494 113.719L209.807 120.439Z" fill="#8A74E8"/>
<path d="M217.494 151.654L234.653 149.072V111.137L217.494 113.719V151.654Z" fill="#6751C4"/>
<path d="M227.261 115.788L244.421 113.206L234.653 111.137L217.494 113.719L227.261 115.788Z" fill="#8A74E8"/>
<path d="M220.993 89.3149C225.98 89.3149 230.023 85.2722 230.023 80.2852C230.023 75.2983 225.98 71.2556 220.993 71.2556C216.007 71.2556 211.964 75.2983 211.964 80.2852C211.964 85.2722 216.007 89.3149 220.993 89.3149Z" fill="#7658D6"/>
<path d="M223.554 76.515C224.273 76.5185 224.962 76.8058 225.471 77.3145C225.979 77.8231 226.267 78.512 226.27 79.2314C226.27 81.9743 221.277 84.6907 221.277 84.6907C221.277 84.6907 216.284 81.9344 216.284 79.2314C216.284 78.5109 216.57 77.82 217.079 77.3106C217.589 76.8012 218.28 76.515 219 76.515C219.452 76.5115 219.897 76.6219 220.295 76.836C220.693 77.0501 221.031 77.361 221.277 77.74C221.525 77.3627 221.863 77.0531 222.26 76.8392C222.658 76.6253 223.103 76.5139 223.554 76.515Z" fill="white"/>
<path d="M104.971 19.4555C108.498 15.9292 108.498 10.2119 104.971 6.68561C101.445 3.1593 95.7277 3.15929 92.2014 6.6856C88.675 10.2119 88.675 15.9292 92.2014 19.4555C95.7277 22.9818 101.445 22.9818 104.971 19.4555Z" fill="#F9C337"/>
<path d="M101.147 9.30013C101.866 9.30364 102.555 9.59094 103.064 10.0996C103.572 10.6082 103.86 11.2971 103.863 12.0165C103.863 14.7594 98.8697 17.4758 98.8697 17.4758C98.8697 17.4758 93.8765 14.7195 93.8765 12.0165C93.8765 11.296 94.1627 10.6051 94.6721 10.0957C95.1815 9.58633 95.8724 9.30014 96.5928 9.30013C97.0447 9.29659 97.4902 9.40696 97.8881 9.62106C98.2861 9.83516 98.6237 10.1461 98.8697 10.5251C99.1176 10.1478 99.4555 9.83823 99.8531 9.62435C100.251 9.41047 100.695 9.29904 101.147 9.30013Z" fill="white"/>
<path d="M35.0183 82.9983L64.2278 84.7798V114.875L35.0183 113.094V82.9983Z" fill="#AF7123"/>
<path d="M35.0181 82.9983L23.1812 84.7798V114.875L35.0181 113.094V82.9983Z" fill="#C17C26"/>
<path d="M52.3913 116.656L23.1812 114.875V84.7798L52.3913 86.5607V116.656Z" fill="#F9C337"/>
<path d="M52.3914 116.656L64.2277 114.875V84.7798L52.3914 86.5607V116.656Z" fill="#F9C337"/>
<g style="mix-blend-mode:overlay" opacity="0.15">
<g style="mix-blend-mode:overlay">
<path d="M52.3913 86.5607L23.1812 84.7798V89.2178L52.3913 90.9987L64.2276 89.2178V84.7798L52.3913 86.5607Z" fill="black"/>
</g>
</g>
<path d="M34.6343 79.4031L22.0623 81.2949V87.9008L34.6343 86.009V79.4031Z" fill="#C17C26"/>
<path d="M34.6345 79.4031L64.9466 81.2949V87.9008L34.6345 86.009V79.4031Z" fill="#AF7123"/>
<path d="M52.3743 89.7921L22.0623 87.9009V81.2949L52.3743 83.1867V89.7921Z" fill="#F9C337"/>
<path d="M52.3743 89.7921L64.9463 87.9009V81.2949L52.3743 83.1867V89.7921Z" fill="#F9C337"/>
<path d="M22.0623 81.2949L34.6343 79.4031L64.9463 81.2949L52.3743 83.1867L22.0623 81.2949Z" fill="#F99D98"/>
<path d="M31.9267 135.406H26.2412V191.52H31.9267V135.406Z" fill="#7658D6"/>
<path d="M23.0803 193.079C23.0803 190.895 24.6445 189.124 26.5739 189.124H31.5944C33.5239 189.124 35.088 190.895 35.088 193.079H23.0803Z" fill="#2D3962"/>
<path d="M17.1434 113.746H99.5984V135.847H17.1434C14.2126 135.847 11.4018 134.683 9.32943 132.61C7.25704 130.538 6.09277 127.727 6.09277 124.796V124.796C6.09277 121.865 7.25704 119.055 9.32943 116.982C11.4018 114.91 14.2126 113.746 17.1434 113.746Z" fill="#2D3962"/>
<path d="M93.4558 134.056H18.0239C15.535 134.056 13.1481 133.067 11.3882 131.307C9.62833 129.547 8.63965 127.16 8.63965 124.671C8.63965 122.182 9.62833 119.796 11.3882 118.036C13.1481 116.276 15.535 115.287 18.0239 115.287H93.4558V134.056ZM18.0239 115.889C16.8706 115.889 15.7286 116.116 14.6631 116.558C13.5976 116.999 12.6294 117.646 11.8139 118.461C10.9984 119.277 10.3515 120.245 9.9102 121.311C9.46885 122.376 9.24171 123.518 9.24171 124.671C9.24171 125.825 9.46885 126.967 9.9102 128.032C10.3515 129.098 10.9984 130.066 11.8139 130.881C12.6294 131.697 13.5976 132.344 14.6631 132.785C15.7286 133.226 16.8706 133.454 18.0239 133.454H92.8537V115.889H18.0239Z" fill="white"/>
<path d="M33.9196 135.583H24.2485V138.981H33.9196V135.583Z" fill="#2D3962"/>
<path d="M59.9407 62.1898C61.1049 54.967 56.1936 48.168 48.9709 47.0038C41.7481 45.8395 34.9491 50.7509 33.7849 57.9736C32.6206 65.1963 37.5319 71.9953 44.7547 73.1596C51.9774 74.3239 58.7764 69.4125 59.9407 62.1898Z" fill="#7658D6"/>
<path d="M46.8626 52.5002C45.417 52.5019 44.031 53.0769 43.0088 54.0991C41.9866 55.1213 41.4115 56.5073 41.4099 57.9529C41.4099 61.7319 46.868 68.1872 46.868 68.1872C46.868 68.1872 52.3153 61.5461 52.3153 57.9529C52.3137 56.5073 51.7387 55.1213 50.7165 54.0991C49.6942 53.0769 48.3083 52.5019 46.8626 52.5002ZM48.5078 59.5495C48.1824 59.8749 47.7679 60.0965 47.3165 60.1863C46.8652 60.2761 46.3974 60.23 45.9722 60.0539C45.5471 59.8778 45.1837 59.5796 44.928 59.197C44.6723 58.8144 44.5359 58.3645 44.5359 57.9043C44.5359 57.4441 44.6723 56.9943 44.928 56.6117C45.1837 56.2291 45.5471 55.9308 45.9722 55.7548C46.3974 55.5787 46.8652 55.5326 47.3165 55.6224C47.7679 55.7122 48.1824 55.9338 48.5078 56.2592C48.7247 56.4748 48.8968 56.7311 49.0143 57.0134C49.1317 57.2958 49.1922 57.5985 49.1922 57.9043C49.1922 58.2101 49.1317 58.5129 49.0143 58.7952C48.8968 59.0776 48.7247 59.3339 48.5078 59.5495Z" fill="white"/>
<path d="M213.021 49.5473C213.021 50.6646 211.678 51.5905 211.403 52.621C211.118 53.6872 211.81 55.159 211.27 56.0926C210.722 57.0396 209.096 57.1728 208.328 57.9413C207.559 58.7098 207.426 60.3355 206.479 60.8834C205.545 61.4235 204.074 60.7316 203.007 61.0165C201.977 61.2918 201.051 62.6352 199.934 62.6352C198.816 62.6352 197.89 61.292 196.86 61.0165C195.794 60.7316 194.322 61.4235 193.388 60.8834C192.441 60.3355 192.308 58.7098 191.54 57.9413C190.771 57.1728 189.145 57.0395 188.597 56.0926C188.057 55.1592 188.749 53.6874 188.464 52.6212C188.189 51.5907 186.846 50.6649 186.846 49.5475C186.846 48.4302 188.189 47.5043 188.464 46.4738C188.749 45.4076 188.057 43.9359 188.597 43.0023C189.145 42.0554 190.771 41.9222 191.54 41.1537C192.308 40.3851 192.441 38.7595 193.388 38.2115C194.322 37.6714 195.794 38.3634 196.86 38.0784C197.89 37.8029 198.816 36.4597 199.934 36.4597C201.051 36.4597 201.977 37.8029 203.007 38.0784C204.073 38.3634 205.545 37.6714 206.479 38.2115C207.426 38.7595 207.559 40.3851 208.328 41.1537C209.096 41.9222 210.722 42.0554 211.27 43.0023C211.81 43.9357 211.118 45.4076 211.403 46.4738C211.678 47.504 213.021 48.4299 213.021 49.5473Z" fill="#F9C337"/>
<path d="M195.376 49.577C194.996 49.0915 194.789 48.4925 194.789 47.8757C194.789 47.2589 194.996 46.6599 195.376 46.1745C195.569 45.9653 195.804 45.8003 196.067 45.6905C196.329 45.5808 196.612 45.5291 196.896 45.5388C197.179 45.5287 197.461 45.5804 197.723 45.6901C197.984 45.7999 198.218 45.9651 198.409 46.1745C198.786 46.6614 198.991 47.2598 198.991 47.8757C198.991 48.4916 198.786 49.0901 198.409 49.577C198.218 49.7863 197.984 49.9517 197.723 50.0615C197.461 50.1713 197.179 50.223 196.896 50.2129C196.612 50.2226 196.329 50.1708 196.067 50.061C195.804 49.9513 195.569 49.7862 195.376 49.577ZM197.544 48.8807C197.699 48.5685 197.78 48.2245 197.78 47.8757C197.78 47.527 197.699 47.1829 197.544 46.8707C197.472 46.7657 197.375 46.6798 197.263 46.6207C197.15 46.5615 197.025 46.5309 196.897 46.5315C196.77 46.5321 196.645 46.5639 196.533 46.6241C196.421 46.6843 196.325 46.7711 196.254 46.8769C196.095 47.1859 196.012 47.5284 196.012 47.8759C196.012 48.2234 196.095 48.5659 196.254 48.8749C196.325 48.9806 196.421 49.0673 196.533 49.1275C196.645 49.1876 196.77 49.2194 196.897 49.2199C197.025 49.2205 197.15 49.1899 197.263 49.1307C197.375 49.0716 197.472 48.9857 197.544 48.8807ZM201.945 45.6355H203.387L197.598 54.112H196.157L201.945 45.6355ZM201.564 53.9242C201.241 53.7305 200.982 53.4463 200.819 53.1069C200.644 52.7189 200.553 52.2978 200.553 51.8719C200.553 51.4459 200.644 51.0249 200.819 50.6368C200.982 50.2974 201.241 50.0132 201.564 49.8192C201.892 49.627 202.267 49.5287 202.648 49.5348C202.932 49.5251 203.215 49.5769 203.477 49.6866C203.739 49.7963 203.975 49.9614 204.167 50.1704C204.548 50.6559 204.755 51.2549 204.755 51.8717C204.755 52.4885 204.548 53.0875 204.167 53.573C203.975 53.7821 203.739 53.9472 203.477 54.057C203.215 54.1667 202.932 54.2186 202.648 54.209C202.267 54.215 201.892 54.1165 201.564 53.9242ZM203.295 52.8709C203.451 52.5608 203.532 52.2187 203.532 51.8719C203.532 51.525 203.451 51.183 203.295 50.8729C203.227 50.7643 203.131 50.6754 203.017 50.6149C202.904 50.5544 202.776 50.5243 202.648 50.5276C202.521 50.5253 202.395 50.5553 202.283 50.6146C202.171 50.6739 202.075 50.7606 202.006 50.8667C201.847 51.1778 201.764 51.5223 201.764 51.8717C201.764 52.2211 201.847 52.5656 202.006 52.8767C202.078 52.9818 202.174 53.0676 202.287 53.1268C202.399 53.1859 202.525 53.2165 202.652 53.2159C202.779 53.2154 202.905 53.1836 203.017 53.1234C203.129 53.0633 203.225 52.9766 203.295 52.8709Z" fill="white"/>
<path d="M88.8352 35.7461H157.025C159.508 35.7461 161.889 36.7325 163.645 38.4883C165.401 40.2441 166.387 42.6254 166.387 45.1085V188.108C166.387 189.337 166.145 190.554 165.674 191.69C165.204 192.826 164.514 193.858 163.645 194.728C162.775 195.597 161.743 196.287 160.608 196.757C159.472 197.228 158.254 197.47 157.025 197.47H88.8352C87.6057 197.47 86.3883 197.228 85.2524 196.757C84.1165 196.287 83.0844 195.597 82.2151 194.728C81.3457 193.858 80.6561 192.826 80.1856 191.69C79.7151 190.554 79.4729 189.337 79.4729 188.108V45.1084C79.4729 42.6253 80.4593 40.244 82.2151 38.4882C83.9708 36.7325 86.3522 35.7461 88.8352 35.7461Z" fill="#2D3962"/>
<path d="M88.1145 47.5193H157.745C158.935 47.5193 160.076 47.9919 160.917 48.8332C161.759 49.6744 162.231 50.8154 162.231 52.0051V188.2H83.6287V52.0051C83.6287 50.8154 84.1013 49.6744 84.9425 48.8332C85.7838 47.9919 86.9248 47.5193 88.1145 47.5193Z" fill="white"/>
<path d="M131.709 42.198H114.151C114.034 42.198 113.917 42.1748 113.809 42.1299C113.701 42.085 113.602 42.0191 113.519 41.9361C113.436 41.853 113.37 41.7545 113.325 41.646C113.28 41.5375 113.257 41.4212 113.257 41.3038C113.257 41.0667 113.351 40.8393 113.519 40.6716C113.687 40.5039 113.914 40.4097 114.151 40.4097H131.709C131.946 40.4097 132.173 40.5039 132.341 40.6716C132.509 40.8392 132.603 41.0667 132.603 41.3038C132.603 41.4212 132.58 41.5375 132.535 41.646C132.49 41.7545 132.424 41.8531 132.341 41.9361C132.258 42.0191 132.16 42.085 132.051 42.1299C131.943 42.1749 131.826 42.198 131.709 42.198Z" fill="#7658D6"/>
<path d="M165.117 52.0802C162.922 46.3024 159.452 45.5637 154.658 45.5637H91.2023C86.408 45.5637 82.9372 46.3024 80.7432 52.0802L73.2947 71.3901H172.565L165.117 52.0802Z" fill="#7658D6"/>
<path d="M94.1262 45.564L87.062 71.3901H101.171L105.816 45.564H94.1262Z" fill="#F9C337"/>
<path d="M151.734 45.564H140.044L144.689 71.3901H158.798L151.734 45.564Z" fill="#F9C337"/>
<path d="M128.444 45.564H117.416L115.192 71.3901H130.668L128.444 45.564Z" fill="#F9C337"/>
<path d="M87.0618 71.3901C87.0618 74.9798 90.2202 77.8899 94.1165 77.8899C98.0127 77.8899 101.171 74.9798 101.171 71.3901H87.0618Z" fill="#F9C337"/>
<path d="M115.192 71.3901C115.192 74.9798 118.65 77.8899 122.916 77.8899C127.182 77.8899 130.64 74.9798 130.64 71.3901H115.192Z" fill="#F9C337"/>
<path d="M158.798 71.3901C158.798 74.9798 155.64 77.8899 151.743 77.8899C147.847 77.8899 144.689 74.9798 144.689 71.3901H158.798Z" fill="#F9C337"/>
<path d="M101.171 71.3901C101.171 74.9798 104.31 77.8899 108.182 77.8899C112.053 77.8899 115.192 74.9798 115.192 71.3901H101.171Z" fill="#7658D6"/>
<path d="M73.2947 71.3901C73.2947 74.9798 76.3765 77.8899 80.1782 77.8899C83.9798 77.8899 87.0617 74.9798 87.0617 71.3901H73.2947Z" fill="#7658D6"/>
<path d="M144.689 71.3901C144.689 74.9798 141.55 77.8899 137.678 77.8899C133.807 77.8899 130.668 74.9798 130.668 71.3901H144.689Z" fill="#7658D6"/>
<path d="M172.565 71.3901C172.565 74.9798 169.483 77.8899 165.682 77.8899C161.88 77.8899 158.798 74.9798 158.798 71.3901H172.565Z" fill="#7658D6"/>
<g opacity="0.15">
<path d="M144.737 163.148C144.737 165.3 135.896 166.474 124.99 166.474C114.084 166.474 105.503 165.269 105.243 163.148C104.766 159.252 114.084 159.252 124.99 159.252C135.896 159.252 144.737 159.252 144.737 163.148Z" fill="#B75851"/>
</g>
<path d="M117.84 160.59C117.84 161.217 117.654 161.831 117.306 162.353C116.957 162.875 116.461 163.281 115.882 163.522C115.302 163.762 114.664 163.825 114.048 163.702C113.433 163.58 112.867 163.278 112.423 162.834C111.98 162.39 111.677 161.825 111.555 161.209C111.432 160.594 111.495 159.955 111.735 159.376C111.976 158.796 112.382 158.3 112.904 157.952C113.426 157.603 114.039 157.417 114.667 157.417C115.509 157.417 116.316 157.751 116.911 158.346C117.506 158.941 117.84 159.748 117.84 160.59Z" fill="#DD796B"/>
<path d="M114.667 162.066C115.482 162.066 116.143 161.405 116.143 160.59C116.143 159.775 115.482 159.114 114.667 159.114C113.852 159.114 113.191 159.775 113.191 160.59C113.191 161.405 113.852 162.066 114.667 162.066Z" fill="#5C47B5"/>
<path d="M138.47 160.59C138.47 161.217 138.284 161.831 137.936 162.353C137.587 162.875 137.092 163.281 136.512 163.522C135.932 163.762 135.294 163.825 134.678 163.702C134.063 163.58 133.497 163.278 133.053 162.834C132.61 162.39 132.307 161.825 132.185 161.209C132.063 160.594 132.125 159.956 132.366 159.376C132.606 158.796 133.012 158.3 133.534 157.952C134.056 157.603 134.67 157.417 135.297 157.417C136.139 157.417 136.946 157.751 137.541 158.346C138.136 158.941 138.47 159.748 138.47 160.59Z" fill="#DD796B"/>
<path d="M135.297 162.066C136.113 162.066 136.773 161.405 136.773 160.59C136.773 159.775 136.113 159.114 135.297 159.114C134.482 159.114 133.821 159.775 133.821 160.59C133.821 161.405 134.482 162.066 135.297 162.066Z" fill="#5C47B5"/>
<path d="M137.828 154.817H110.749C110.643 154.817 110.541 154.782 110.457 154.718C110.374 154.653 110.314 154.562 110.288 154.46L101.909 122.11C101.121 118.978 98.7803 116.876 96.0833 116.876H95.0825C94.9562 116.876 94.835 116.826 94.7457 116.736C94.6564 116.647 94.6062 116.526 94.6062 116.4C94.6062 116.273 94.6564 116.152 94.7457 116.063C94.835 115.974 94.9562 115.923 95.0825 115.923H96.0833C99.2245 115.923 101.936 118.315 102.832 121.875L104.499 128.312H144.284C144.357 128.312 144.428 128.329 144.493 128.361C144.558 128.392 144.615 128.439 144.66 128.496C144.704 128.553 144.735 128.62 144.75 128.691C144.765 128.761 144.764 128.835 144.746 128.905L138.29 154.457C138.263 154.56 138.204 154.651 138.12 154.717C138.037 154.782 137.934 154.817 137.828 154.817ZM111.117 153.864H137.457L143.672 129.265H104.746L111.117 153.864Z" fill="#5C47B5"/>
<path d="M142.67 135.653H105.929C105.802 135.653 105.681 135.603 105.592 135.513C105.503 135.424 105.452 135.303 105.452 135.177C105.452 135.05 105.503 134.929 105.592 134.84C105.681 134.75 105.802 134.7 105.929 134.7H142.67C142.733 134.7 142.795 134.713 142.852 134.736C142.91 134.76 142.963 134.795 143.007 134.84C143.051 134.884 143.086 134.936 143.11 134.994C143.134 135.052 143.147 135.114 143.147 135.177C143.147 135.239 143.134 135.301 143.11 135.359C143.086 135.417 143.051 135.469 143.007 135.513C142.963 135.558 142.91 135.593 142.852 135.617C142.795 135.641 142.733 135.653 142.67 135.653Z" fill="#5C47B5"/>
<path d="M141.056 142.041H107.525C107.399 142.041 107.277 141.991 107.188 141.902C107.099 141.812 107.049 141.691 107.049 141.565C107.049 141.438 107.099 141.317 107.188 141.228C107.277 141.139 107.399 141.088 107.525 141.088H141.056C141.182 141.088 141.303 141.139 141.393 141.228C141.482 141.317 141.532 141.438 141.532 141.565C141.532 141.691 141.482 141.812 141.393 141.902C141.303 141.991 141.182 142.041 141.056 142.041Z" fill="#5C47B5"/>
<path d="M139.382 148.429H109.359C109.233 148.429 109.112 148.379 109.022 148.289C108.933 148.2 108.883 148.079 108.883 147.953C108.883 147.826 108.933 147.705 109.022 147.616C109.112 147.527 109.233 147.476 109.359 147.476H139.382C139.508 147.476 139.629 147.527 139.719 147.616C139.808 147.705 139.858 147.826 139.858 147.953C139.858 148.079 139.808 148.2 139.719 148.289C139.629 148.379 139.508 148.429 139.382 148.429Z" fill="#5C47B5"/>
<path d="M115.928 154.817C115.813 154.817 115.701 154.775 115.615 154.699C115.528 154.622 115.472 154.517 115.457 154.403L112.086 128.851C112.077 128.789 112.082 128.726 112.098 128.665C112.114 128.605 112.142 128.548 112.18 128.498C112.218 128.449 112.265 128.407 112.32 128.376C112.374 128.345 112.433 128.324 112.495 128.316C112.557 128.308 112.62 128.312 112.681 128.328C112.741 128.344 112.798 128.372 112.848 128.41C112.897 128.448 112.939 128.496 112.97 128.55C113.001 128.604 113.022 128.664 113.03 128.726L116.401 154.278C116.409 154.34 116.405 154.403 116.389 154.464C116.373 154.524 116.345 154.581 116.307 154.63C116.269 154.68 116.221 154.722 116.167 154.753C116.113 154.784 116.053 154.805 115.991 154.813C115.97 154.816 115.949 154.817 115.928 154.817Z" fill="#5C47B5"/>
<path d="M122.14 154.817C122.019 154.817 121.903 154.771 121.815 154.688C121.727 154.606 121.673 154.493 121.665 154.372L119.98 128.82C119.976 128.757 119.984 128.695 120.004 128.635C120.024 128.576 120.056 128.521 120.097 128.474C120.138 128.427 120.188 128.389 120.244 128.361C120.301 128.333 120.362 128.317 120.424 128.313C120.486 128.309 120.549 128.317 120.608 128.337C120.668 128.357 120.722 128.389 120.769 128.43C120.816 128.471 120.855 128.522 120.882 128.578C120.91 128.634 120.927 128.695 120.931 128.757L122.616 154.31C122.624 154.436 122.582 154.56 122.499 154.655C122.416 154.75 122.298 154.808 122.172 154.816C122.161 154.817 122.151 154.817 122.14 154.817Z" fill="#5C47B5"/>
<path d="M133.192 154.817C133.17 154.817 133.149 154.816 133.129 154.813C133.067 154.805 133.007 154.785 132.953 154.753C132.898 154.722 132.851 154.68 132.813 154.631C132.775 154.581 132.747 154.524 132.731 154.464C132.715 154.404 132.711 154.341 132.719 154.279L136.09 128.726C136.098 128.664 136.118 128.604 136.149 128.55C136.18 128.495 136.222 128.448 136.272 128.409C136.321 128.371 136.378 128.343 136.439 128.327C136.499 128.311 136.562 128.306 136.624 128.315C136.687 128.323 136.746 128.343 136.801 128.375C136.855 128.406 136.902 128.448 136.941 128.498C136.979 128.547 137.006 128.604 137.022 128.665C137.039 128.725 137.042 128.789 137.034 128.851L133.663 154.403C133.648 154.518 133.592 154.623 133.505 154.699C133.418 154.775 133.307 154.817 133.192 154.817Z" fill="#5C47B5"/>
<path d="M127.655 154.817C127.644 154.817 127.634 154.817 127.623 154.816C127.497 154.808 127.379 154.75 127.296 154.655C127.213 154.56 127.171 154.436 127.179 154.31L128.865 128.757C128.869 128.695 128.885 128.634 128.913 128.577C128.94 128.521 128.979 128.471 129.026 128.43C129.073 128.388 129.128 128.357 129.187 128.337C129.246 128.316 129.309 128.308 129.371 128.312C129.434 128.316 129.495 128.333 129.551 128.36C129.607 128.388 129.657 128.427 129.699 128.474C129.74 128.521 129.771 128.576 129.791 128.635C129.812 128.694 129.82 128.757 129.816 128.819L128.13 154.372C128.122 154.492 128.068 154.606 127.98 154.688C127.892 154.771 127.776 154.817 127.655 154.817Z" fill="#5C47B5"/>
<path d="M114.668 161.066C114.636 161.066 114.604 161.063 114.573 161.057C114.512 161.044 114.454 161.02 114.402 160.985C114.35 160.95 114.305 160.905 114.271 160.853C114.236 160.801 114.212 160.743 114.2 160.681C114.188 160.62 114.188 160.557 114.201 160.495L115.462 154.246C115.475 154.185 115.499 154.127 115.534 154.075C115.569 154.023 115.614 153.978 115.666 153.944C115.718 153.909 115.776 153.885 115.838 153.873C115.899 153.861 115.962 153.862 116.024 153.874C116.085 153.886 116.143 153.911 116.195 153.946C116.247 153.981 116.291 154.025 116.326 154.077C116.361 154.13 116.385 154.188 116.397 154.249C116.409 154.311 116.408 154.374 116.396 154.435L115.134 160.684C115.112 160.792 115.054 160.889 114.969 160.958C114.884 161.028 114.778 161.066 114.668 161.066Z" fill="#5C47B5"/>
<path d="M135.297 161.066C135.198 161.066 135.101 161.035 135.02 160.977C134.939 160.918 134.878 160.836 134.846 160.742L132.74 154.493C132.72 154.433 132.711 154.371 132.716 154.308C132.72 154.246 132.736 154.185 132.764 154.129C132.792 154.073 132.831 154.023 132.878 153.982C132.925 153.941 132.98 153.909 133.039 153.889C133.098 153.869 133.161 153.861 133.223 153.865C133.286 153.87 133.347 153.886 133.403 153.914C133.459 153.942 133.509 153.98 133.55 154.027C133.591 154.074 133.622 154.129 133.642 154.189L135.749 160.438C135.769 160.497 135.777 160.559 135.773 160.622C135.769 160.684 135.752 160.745 135.724 160.801C135.696 160.857 135.658 160.907 135.611 160.948C135.564 160.989 135.509 161.021 135.45 161.041C135.401 161.058 135.349 161.066 135.297 161.066Z" fill="#5C47B5"/>
<path d="M96.2804 117.612H88.7332C88.5739 117.612 88.4162 117.58 88.2691 117.519C88.122 117.458 87.9883 117.369 87.8757 117.257C87.7631 117.144 87.6738 117.01 87.6128 116.863C87.5519 116.716 87.5205 116.558 87.5205 116.399C87.5205 116.24 87.5519 116.082 87.6128 115.935C87.6738 115.788 87.7631 115.654 87.8757 115.542C87.9883 115.429 88.122 115.34 88.2691 115.279C88.4162 115.218 88.5739 115.187 88.7332 115.187H96.2804V117.612Z" fill="#DD796B"/>
<path d="M123.154 113.176C128.932 113.176 133.616 108.492 133.616 102.714C133.616 96.9364 128.932 92.2524 123.154 92.2524C117.376 92.2524 112.692 96.9364 112.692 102.714C112.692 108.492 117.376 113.176 123.154 113.176Z" fill="#F9C337"/>
<path d="M122.821 108.124C122.686 108.124 122.553 108.095 122.43 108.039C122.308 107.983 122.198 107.902 122.11 107.8L118.355 103.51C118.273 103.416 118.211 103.307 118.171 103.19C118.131 103.072 118.115 102.948 118.123 102.824C118.131 102.7 118.164 102.579 118.219 102.468C118.274 102.357 118.351 102.257 118.444 102.175C118.538 102.094 118.646 102.031 118.764 101.991C118.881 101.952 119.006 101.936 119.13 101.944C119.254 101.952 119.375 101.985 119.486 102.04C119.597 102.095 119.696 102.171 119.778 102.265L122.673 105.573L127.014 98.2484C127.077 98.1415 127.161 98.0481 127.26 97.9736C127.36 97.899 127.473 97.8448 127.593 97.814C127.714 97.7832 127.839 97.7764 127.962 97.794C128.085 97.8116 128.203 97.8532 128.31 97.9165C128.417 97.9799 128.51 98.0637 128.584 98.1631C128.659 98.2625 128.713 98.3756 128.744 98.496C128.775 98.6163 128.781 98.7416 128.764 98.8645C128.746 98.9874 128.704 99.1057 128.641 99.2125L123.634 107.66C123.558 107.789 123.453 107.897 123.326 107.977C123.2 108.057 123.057 108.106 122.908 108.12C122.879 108.122 122.85 108.124 122.821 108.124Z" fill="#2D3962"/>
<path d="M90.0704 172.907L90.3698 173.689L91.206 173.732C91.2428 173.734 91.2782 173.747 91.3075 173.77C91.3368 173.792 91.3585 173.823 91.3699 173.858C91.3813 173.893 91.3818 173.931 91.3713 173.966C91.3608 174.001 91.3398 174.033 91.3112 174.056L90.66 174.582L90.8774 175.391C90.887 175.426 90.8855 175.464 90.8732 175.499C90.8609 175.534 90.8384 175.564 90.8085 175.586C90.7787 175.607 90.743 175.619 90.7061 175.62C90.6693 175.621 90.633 175.611 90.6021 175.591L89.9003 175.134L89.1983 175.591C89.1674 175.611 89.1311 175.621 89.0943 175.62C89.0574 175.619 89.0217 175.607 88.9919 175.586C88.9621 175.564 88.9395 175.534 88.9272 175.499C88.9149 175.464 88.9135 175.426 88.9231 175.391L89.1405 174.582L88.4893 174.056C88.4606 174.033 88.4397 174.001 88.4292 173.966C88.4187 173.931 88.4192 173.893 88.4305 173.858C88.4419 173.823 88.4637 173.792 88.493 173.77C88.5222 173.747 88.5576 173.734 88.5945 173.732L89.4307 173.689L89.7301 172.907C89.7433 172.873 89.7666 172.843 89.797 172.822C89.8274 172.801 89.8634 172.79 89.9002 172.79C89.9371 172.79 89.9731 172.801 90.0035 172.822C90.0339 172.843 90.0572 172.873 90.0704 172.907Z" fill="#F99D98"/>
<path d="M94.3031 172.907L94.6025 173.689L95.4387 173.732C95.4755 173.734 95.5109 173.747 95.5402 173.77C95.5695 173.792 95.5913 173.823 95.6027 173.858C95.614 173.893 95.6145 173.931 95.604 173.966C95.5935 174.001 95.5726 174.033 95.5439 174.056L94.8927 174.582L95.1101 175.391C95.1197 175.426 95.1182 175.464 95.1059 175.499C95.0936 175.534 95.0711 175.564 95.0413 175.586C95.0114 175.607 94.9757 175.619 94.9389 175.62C94.902 175.621 94.8657 175.611 94.8348 175.591L94.1329 175.134L93.431 175.591C93.4001 175.611 93.3639 175.621 93.327 175.62C93.2901 175.619 93.2544 175.607 93.2246 175.586C93.1948 175.564 93.1722 175.534 93.1599 175.499C93.1477 175.464 93.1462 175.426 93.1558 175.391L93.3732 174.582L92.722 174.056C92.6933 174.033 92.6723 174.001 92.6618 173.966C92.6513 173.931 92.6518 173.893 92.6632 173.858C92.6746 173.823 92.6964 173.792 92.7257 173.77C92.7549 173.747 92.7903 173.734 92.8272 173.732L93.6634 173.689L93.9628 172.907C93.976 172.873 93.9993 172.843 94.0297 172.822C94.0601 172.801 94.0961 172.79 94.133 172.79C94.1698 172.79 94.2058 172.801 94.2362 172.822C94.2666 172.843 94.2899 172.873 94.3031 172.907Z" fill="#F99D98"/>
<path d="M98.536 172.907L98.8354 173.689L99.6717 173.732C99.7085 173.734 99.7439 173.747 99.7731 173.77C99.8024 173.792 99.8242 173.823 99.8356 173.858C99.847 173.893 99.8474 173.931 99.8369 173.966C99.8265 174.001 99.8055 174.033 99.7768 174.056L99.1256 174.582L99.343 175.391C99.3526 175.426 99.3511 175.464 99.3388 175.499C99.3266 175.534 99.304 175.564 99.2742 175.586C99.2443 175.607 99.2086 175.619 99.1718 175.62C99.1349 175.621 99.0986 175.611 99.0677 175.591L98.3658 175.134L97.664 175.591C97.633 175.611 97.5968 175.621 97.5599 175.62C97.523 175.619 97.4873 175.607 97.4575 175.586C97.4277 175.564 97.4051 175.534 97.3928 175.499C97.3806 175.464 97.3791 175.426 97.3887 175.391L97.6061 174.582L96.9549 174.056C96.9262 174.033 96.9052 174.001 96.8947 173.966C96.8842 173.931 96.8847 173.893 96.8961 173.858C96.9075 173.823 96.9293 173.792 96.9586 173.769C96.9879 173.747 97.0233 173.734 97.0601 173.732L97.8963 173.689L98.1957 172.907C98.2089 172.873 98.2322 172.843 98.2626 172.822C98.2929 172.801 98.329 172.79 98.3658 172.79C98.4027 172.79 98.4387 172.801 98.4691 172.822C98.4995 172.843 98.5228 172.873 98.536 172.907Z" fill="#F99D98"/>
<path d="M102.769 172.907L103.068 173.689L103.904 173.732C103.941 173.734 103.977 173.747 104.006 173.77C104.035 173.792 104.057 173.823 104.068 173.858C104.08 173.893 104.08 173.931 104.07 173.966C104.059 174.001 104.038 174.033 104.009 174.056L103.358 174.582L103.576 175.391C103.585 175.426 103.584 175.464 103.572 175.499C103.559 175.534 103.537 175.564 103.507 175.586C103.477 175.607 103.441 175.619 103.404 175.62C103.368 175.621 103.331 175.611 103.3 175.591L102.599 175.134L101.897 175.591C101.866 175.611 101.829 175.621 101.793 175.62C101.756 175.619 101.72 175.607 101.69 175.586C101.66 175.564 101.638 175.534 101.626 175.499C101.613 175.464 101.612 175.426 101.621 175.391L101.839 174.582L101.188 174.056C101.159 174.033 101.138 174.001 101.127 173.966C101.117 173.931 101.117 173.893 101.129 173.858C101.14 173.823 101.162 173.792 101.191 173.769C101.221 173.747 101.256 173.734 101.293 173.732L102.129 173.689L102.428 172.907C102.442 172.873 102.465 172.843 102.495 172.822C102.526 172.801 102.562 172.79 102.599 172.79C102.635 172.79 102.671 172.801 102.702 172.822C102.732 172.843 102.755 172.873 102.769 172.907Z" fill="#F99D98"/>
<path d="M107.001 172.907L107.301 173.689L108.137 173.732C108.174 173.734 108.209 173.747 108.238 173.77C108.268 173.792 108.289 173.823 108.301 173.858C108.312 173.893 108.313 173.931 108.302 173.966C108.292 174.001 108.271 174.033 108.242 174.056L107.591 174.582L107.808 175.391C107.818 175.426 107.816 175.464 107.804 175.499C107.792 175.534 107.769 175.564 107.74 175.586C107.71 175.607 107.674 175.619 107.637 175.62C107.6 175.621 107.564 175.611 107.533 175.591L106.831 175.134L106.129 175.591C106.098 175.611 106.062 175.621 106.025 175.62C105.988 175.619 105.953 175.607 105.923 175.586C105.893 175.564 105.87 175.534 105.858 175.499C105.846 175.464 105.844 175.426 105.854 175.391L106.071 174.582L105.42 174.056C105.392 174.033 105.371 174.001 105.36 173.966C105.35 173.931 105.35 173.893 105.361 173.858C105.373 173.823 105.395 173.792 105.424 173.769C105.453 173.747 105.489 173.734 105.525 173.732L106.362 173.689L106.661 172.907C106.674 172.873 106.698 172.843 106.728 172.822C106.758 172.801 106.794 172.79 106.831 172.79C106.868 172.79 106.904 172.801 106.934 172.822C106.965 172.843 106.988 172.873 107.001 172.907Z" fill="#F99D98"/>
<path d="M114.06 179.385H89.376C89.2506 179.385 89.1265 179.36 89.0107 179.312C88.8949 179.264 88.7896 179.194 88.701 179.105C88.6123 179.017 88.542 178.911 88.494 178.796C88.4461 178.68 88.4214 178.556 88.4214 178.43C88.4214 178.177 88.522 177.934 88.701 177.755C88.88 177.576 89.1228 177.476 89.376 177.476H114.06C114.313 177.476 114.556 177.576 114.735 177.755C114.914 177.934 115.015 178.177 115.015 178.43C115.015 178.556 114.99 178.68 114.942 178.796C114.894 178.911 114.824 179.017 114.735 179.105C114.647 179.194 114.541 179.264 114.426 179.312C114.31 179.36 114.186 179.385 114.06 179.385Z" fill="#F9C337"/>
<path d="M104.787 183.067H89.376C89.1228 183.067 88.88 182.966 88.701 182.787C88.522 182.608 88.4214 182.366 88.4214 182.112C88.4214 181.987 88.4461 181.863 88.494 181.747C88.542 181.631 88.6123 181.526 88.701 181.437C88.7896 181.349 88.8949 181.278 89.0107 181.23C89.1265 181.182 89.2506 181.158 89.376 181.158H104.787C104.912 181.158 105.036 181.182 105.152 181.23C105.268 181.278 105.373 181.349 105.462 181.437C105.55 181.526 105.621 181.631 105.669 181.747C105.717 181.863 105.741 181.987 105.741 182.112C105.741 182.238 105.717 182.362 105.669 182.478C105.621 182.594 105.55 182.699 105.462 182.787C105.373 182.876 105.268 182.946 105.152 182.994C105.036 183.042 104.912 183.067 104.787 183.067Z" fill="#F9C337"/>
</svg>
