<svg width="19" height="13" viewBox="0 0 19 13" fill="none" xmlns="http://www.w3.org/2000/svg">
<path d="M17.8334 7.25008C18.2476 7.25008 18.5834 6.91429 18.5834 6.50008C18.5834 6.08587 18.2476 5.75008 17.8334 5.75008V7.25008ZM1.16675 5.75008C0.752535 5.75008 0.416749 6.08587 0.416749 6.50008C0.416749 6.91429 0.752535 7.25008 1.16675 7.25008V5.75008ZM4.80546 12.2411C5.09965 12.5327 5.57452 12.5306 5.86611 12.2364C6.15769 11.9422 6.15557 11.4673 5.86137 11.1757L4.80546 12.2411ZM3.49699 9.8883L4.02495 9.35561L3.49699 9.8883ZM3.49699 3.11186L2.96903 2.57917H2.96903L3.49699 3.11186ZM5.86137 1.82444C6.15557 1.53286 6.15769 1.05799 5.86611 0.763789C5.57452 0.469592 5.09965 0.467474 4.80546 0.759057L5.86137 1.82444ZM1.18747 6.82647L0.443486 6.9213L0.443486 6.9213L1.18747 6.82647ZM1.18747 6.17369L0.443486 6.07886L0.443486 6.07886L1.18747 6.17369ZM17.8334 5.75008H1.16675V7.25008H17.8334V5.75008ZM5.86137 11.1757L4.02495 9.35561L2.96903 10.421L4.80546 12.2411L5.86137 11.1757ZM4.02495 3.64455L5.86137 1.82444L4.80546 0.759057L2.96903 2.57917L4.02495 3.64455ZM4.02495 9.35561C3.28016 8.61744 2.76739 8.10763 2.42008 7.67516C2.08228 7.25453 1.96316 6.98041 1.93145 6.73164L0.443486 6.9213C0.524527 7.5571 0.827909 8.08815 1.25055 8.61441C1.66368 9.12884 2.2493 9.70766 2.96903 10.421L4.02495 9.35561ZM2.96903 2.57917C2.2493 3.29251 1.66368 3.87132 1.25055 4.38575C0.827909 4.91202 0.524527 5.44306 0.443486 6.07886L1.93145 6.26852C1.96316 6.01975 2.08228 5.74563 2.42008 5.325C2.76739 4.89253 3.28016 4.38272 4.02495 3.64455L2.96903 2.57917ZM1.93145 6.73164C1.91185 6.57787 1.91185 6.42229 1.93145 6.26852L0.443486 6.07886C0.407835 6.35856 0.407835 6.6416 0.443486 6.9213L1.93145 6.73164Z" fill="#292826"/>
</svg>
