<svg width="20" height="18" viewBox="0 0 20 18" fill="none" xmlns="http://www.w3.org/2000/svg">
<path fill-rule="evenodd" clip-rule="evenodd" d="M1.43974 0.515053C1.35601 0.180183 1.01667 -0.0234095 0.681801 0.0603162C0.346931 0.144042 0.143339 0.483381 0.227064 0.818251L1.1036 4.32406L1.91927 7.72738C2.2661 9.17453 2.5391 10.3136 2.86306 11.1985C3.19536 12.1062 3.60286 12.8109 4.25667 13.3513C4.3131 13.3979 4.37058 13.4433 4.42909 13.4873C5.10697 13.9971 5.88723 14.2292 6.84739 14.3408C7.78341 14.4496 8.95472 14.4496 10.4428 14.4495H10.9374C12.2249 14.4496 13.2385 14.4496 14.055 14.367C14.8913 14.2824 15.5795 14.1069 16.1987 13.7192C16.4925 13.5353 16.7654 13.32 17.0127 13.0772C17.595 12.5056 17.9405 11.7877 18.238 10.8569C18.4567 10.1723 18.6605 9.3346 18.9057 8.31244L18.9666 8.05833C19.1476 7.30339 19.2967 6.68117 19.3543 6.1771C19.4141 5.65394 19.3897 5.1558 19.1286 4.70098C19.0169 4.50645 18.8772 4.32937 18.7141 4.17542C18.3327 3.81545 17.8539 3.67562 17.3312 3.61184C16.8276 3.55039 16.1878 3.5504 15.4115 3.55042L2.19865 3.55042L1.43974 0.515053ZM3.1256 7.39744L2.50317 4.80042H15.3709C16.198 4.80042 16.7609 4.80152 17.1798 4.85264C17.5884 4.90249 17.7559 4.98993 17.8562 5.08451C17.9303 5.15449 17.9938 5.23498 18.0446 5.3234C18.1132 5.4429 18.1592 5.62619 18.1124 6.03514C18.07 6.40671 17.9629 6.87915 17.8049 7.54165L11.6668 7.54165C11.3216 7.54165 11.0418 7.82147 11.0418 8.16665C11.0418 8.51183 11.3216 8.79165 11.6668 8.79165L17.5037 8.79165C17.388 9.26379 17.2824 9.67643 17.1782 10.0417H14.1668C13.8216 10.0417 13.5418 10.3215 13.5418 10.6667C13.5418 11.0118 13.8216 11.2917 14.1668 11.2917H16.7391C16.5616 11.6773 16.3698 11.9567 16.137 12.1852C15.9542 12.3647 15.7525 12.5238 15.5354 12.6597C15.1403 12.9071 14.663 13.0491 13.9292 13.1233C13.1829 13.1988 12.2324 13.1995 10.9032 13.1995H10.4826C8.94607 13.1995 7.84725 13.1986 6.99169 13.0991C6.15195 13.0015 5.61507 12.8152 5.18045 12.4883C5.13721 12.4558 5.09472 12.4223 5.05302 12.3878C4.63383 12.0413 4.3275 11.5627 4.03687 10.7688C3.74077 9.95999 3.48372 8.89166 3.1256 7.39744Z" fill="black"/>
<path d="M8.72821 16.4561C8.72821 16.9406 8.33548 17.3333 7.85102 17.3333C7.36656 17.3333 6.97383 16.9406 6.97383 16.4561C6.97383 15.9717 7.36656 15.5789 7.85102 15.5789C8.33548 15.5789 8.72821 15.9717 8.72821 16.4561Z" fill="black"/>
<path d="M13.9914 16.4561C13.9914 16.9406 13.5986 17.3333 13.1142 17.3333C12.6297 17.3333 12.237 16.9406 12.237 16.4561C12.237 15.9717 12.6297 15.5789 13.1142 15.5789C13.5986 15.5789 13.9914 15.9717 13.9914 16.4561Z" fill="black"/>
</svg>
