<svg width="20" height="20" viewBox="0 0 20 20" fill="none" xmlns="http://www.w3.org/2000/svg">
<path d="M12.3776 15.7042C13.8661 13.4404 13.6158 10.367 11.6267 8.37545C9.62085 6.36707 6.51635 6.12915 4.2502 7.6617M12.3776 15.7042C12.1633 16.03 11.913 16.3391 11.6267 16.6258C10.3031 17.951 7.49628 19.0968 5.21822 17.6873C5.09145 17.6088 5.02806 17.5696 4.98013 17.5506C4.88849 17.5143 4.81899 17.5037 4.72072 17.5113C4.66933 17.5153 4.61109 17.5304 4.49463 17.5607C3.76177 17.7508 3.39534 17.8459 3.13135 17.7921C2.67317 17.6988 2.31509 17.3403 2.22185 16.8815C2.16812 16.6172 2.26309 16.2503 2.45304 15.5165C2.48324 15.3999 2.49834 15.3415 2.50229 15.2899C2.50983 15.1915 2.49912 15.1211 2.46265 15.0294C2.44352 14.9813 2.4044 14.9183 2.32617 14.7923C0.913538 12.5163 2.00679 9.75714 3.38674 8.37545C3.65629 8.10556 3.94567 7.86765 4.2502 7.6617M12.3776 15.7042L12.4999 15.6832C13.0179 15.5588 13.5294 15.3527 14.0206 15.0488C14.1745 14.9535 14.2515 14.9059 14.3097 14.8828C14.4209 14.8387 14.5053 14.826 14.6247 14.8352C14.6871 14.84 14.7578 14.8584 14.8992 14.8951C15.7891 15.126 16.2341 15.2415 16.5546 15.1762C17.111 15.0628 17.5458 14.6274 17.659 14.0704C17.7242 13.7494 17.6089 13.3039 17.3783 12.4129C17.3416 12.2712 17.3233 12.2004 17.3185 12.1377C17.3093 12.0183 17.3223 11.9328 17.3666 11.8214C17.3898 11.763 17.4373 11.6865 17.5323 11.5335C19.2477 8.76978 17.9201 5.41936 16.2445 3.7416C13.4815 0.975131 9.00182 0.975131 6.23883 3.7416C5.13484 4.84698 4.47196 6.22678 4.2502 7.6617" stroke="white"/>
<path d="M10 13C10 13.5523 10.4477 14 11 14C11.5523 14 12 13.5523 12 13C12 12.4477 11.5523 12 11 12C10.4477 12 10 12.4477 10 13Z" fill="white"/>
<path d="M7 13C7 13.5523 7.44772 14 8 14C8.55228 14 9 13.5523 9 13C9 12.4477 8.55228 12 8 12C7.44772 12 7 12.4477 7 13Z" fill="white"/>
<path d="M4 13C4 13.5523 4.44772 14 5 14C5.55228 14 6 13.5523 6 13C6 12.4477 5.55228 12 5 12C4.44772 12 4 12.4477 4 13Z" fill="white"/>
</svg>
