<svg width="20" height="20" viewBox="0 0 20 20" fill="none" xmlns="http://www.w3.org/2000/svg">
<path d="M7 4L6.5 5.5H7.5H9H12L13.5 5L13 4L12.5 3L11 2H10H9L8 2.5L7.5 3L7 4Z" fill="#FFCF20"/>
<path fill-rule="evenodd" clip-rule="evenodd" d="M9.99988 1C7.81375 1 6.04154 2.77221 6.04154 4.95833V5.32146C5.72434 5.38407 5.43114 5.47346 5.14956 5.60255C4.31169 5.98664 3.60239 6.60424 3.10668 7.3813C2.80665 7.85162 2.62861 8.37775 2.48876 9.01956C2.35174 9.64837 2.24286 10.4323 2.10434 11.4297L2.09667 11.4849C1.91841 12.7683 1.77906 13.7716 1.73674 14.5797C1.69377 15.4002 1.74575 16.084 1.99259 16.7118C2.39602 17.7378 3.14093 18.5933 4.10169 19.134C4.68951 19.4649 5.35963 19.6104 6.17826 19.6808C6.98453 19.75 7.99744 19.75 9.29316 19.75H10.7066C12.0023 19.75 13.0152 19.75 13.8215 19.6808C14.6401 19.6104 15.3102 19.4649 15.8981 19.134C16.8588 18.5933 17.6037 17.7378 18.0072 16.7118C18.254 16.084 18.306 15.4002 18.263 14.5797C18.2207 13.7716 18.0813 12.7683 17.9031 11.4848L17.8954 11.4296C17.7569 10.4323 17.648 9.64837 17.511 9.01956C17.3711 8.37775 17.1931 7.85163 16.8931 7.3813C16.3974 6.60424 15.6881 5.98664 14.8502 5.60255C14.5686 5.47346 14.2754 5.38407 13.9582 5.32146V4.95833C13.9582 2.77221 12.186 1 9.99988 1ZM6.66654 9.75C6.32136 9.75 6.04154 9.47018 6.04154 9.125V6.60469C5.90581 6.6423 5.78413 6.68673 5.67046 6.73884C5.05117 7.02274 4.5269 7.47922 4.16051 8.05357C3.97137 8.35005 3.83406 8.71682 3.7101 9.2857C3.58447 9.86222 3.48175 10.5987 3.3389 11.6272C3.15565 12.9466 3.02422 13.8969 2.98503 14.6451C2.94617 15.3872 3.00311 15.8658 3.15589 16.2543C3.45408 17.0127 4.00466 17.645 4.71479 18.0447C5.07861 18.2495 5.54486 18.3717 6.28523 18.4353C7.03174 18.4995 7.99105 18.5 9.32313 18.5H10.6766C12.0087 18.5 12.968 18.4995 13.7145 18.4353C14.4549 18.3717 14.9211 18.2495 15.285 18.0447C15.9951 17.645 16.5457 17.0127 16.8439 16.2543C16.9966 15.8658 17.0536 15.3872 17.0147 14.6451C16.9755 13.8969 16.8441 12.9466 16.6608 11.6272C16.518 10.5987 16.4153 9.86222 16.2897 9.2857C16.1657 8.71682 16.0284 8.35005 15.8392 8.05357C15.4729 7.47922 14.9486 7.02274 14.3293 6.73884C14.2156 6.68673 14.0939 6.6423 13.9582 6.60469V9.125C13.9582 9.47018 13.6784 9.75 13.3332 9.75C12.988 9.75 12.7082 9.47018 12.7082 9.125V6.44166C12.18 6.41709 11.5281 6.41667 10.6766 6.41667H9.32313C8.47167 6.41667 7.81975 6.41709 7.29154 6.44166V9.125C7.29154 9.47018 7.01172 9.75 6.66654 9.75ZM10.7144 5.16667C11.4976 5.16666 12.1516 5.16666 12.7082 5.19054V4.95833C12.7082 3.46256 11.4956 2.25 9.99988 2.25C8.50411 2.25 7.29154 3.46256 7.29154 4.95833V5.19054C7.84811 5.16666 8.50217 5.16666 9.28538 5.16667H10.7144Z" fill="#292826"/>
</svg>
