<svg width="11" height="20" viewBox="0 0 11 20" fill="none" xmlns="http://www.w3.org/2000/svg">
<path fill-rule="evenodd" clip-rule="evenodd" d="M4.46283 0.0121298C3.33517 0.12986 2.48834 0.349178 1.67146 0.735125C1.12205 0.994663 0.643977 1.31913 0.448268 1.56522C-0.00588583 2.13636 -0.128033 2.92021 0.14202 3.53068C0.18224 3.62159 0.902617 4.66432 1.74291 5.84784L3.27067 7.99967V13.1722C3.27067 17.7927 3.27732 18.3675 3.33302 18.5571C3.43636 18.9089 3.61851 19.2062 3.88117 19.452C4.67605 20.1955 5.83233 20.1809 6.59738 19.4176C6.86888 19.1467 7.01174 18.9098 7.11638 18.5571C7.17294 18.3665 7.17939 17.8152 7.17939 13.1716V7.99842L8.70703 5.84753C9.54721 4.66456 10.2676 3.6221 10.3079 3.53103C10.433 3.24827 10.4809 2.84368 10.4279 2.51891C10.3338 1.94284 10.0328 1.49033 9.51707 1.14929C8.71364 0.618059 7.73763 0.263069 6.59308 0.0858481C6.19889 0.024794 4.80379 -0.0234786 4.46283 0.0121298ZM6.09058 0.810719C7.40258 0.94342 8.82836 1.47422 9.3565 2.0266C9.62913 2.3117 9.7387 2.78278 9.61319 3.12996C9.57086 3.24698 8.9772 4.11984 8.07839 5.38653L6.61262 7.45225L6.4465 7.45295C6.35516 7.45335 6.28038 7.44396 6.28038 7.43212C6.28038 7.42028 6.34194 7.16613 6.41719 6.86735C6.49243 6.56857 6.55399 6.28886 6.55399 6.24579C6.55399 6.03483 6.36411 5.85109 6.14612 5.85109C6.09167 5.85109 5.99387 5.89948 5.92883 5.95857C5.82764 6.05055 5.79054 6.14498 5.67152 6.61328C5.59507 6.91426 5.51541 7.22648 5.4945 7.30708L5.45654 7.45366H5.24305C5.12567 7.45366 5.02959 7.44447 5.02959 7.43322C5.02959 7.37099 4.66686 5.77537 4.63262 5.68688C4.53725 5.44055 4.20435 5.38044 4.01032 5.57447C3.93754 5.64725 3.89607 5.72913 3.89607 5.80004C3.89607 5.86125 3.97236 6.25833 4.06563 6.68251L4.23515 7.45366L4.03631 7.45284L3.83744 7.45202L2.37366 5.39099C0.813615 3.19445 0.740874 3.07215 0.782462 2.71676C0.840898 2.21786 1.13034 1.88874 1.82179 1.53504C3.02067 0.921805 4.57747 0.657654 6.09058 0.810719ZM6.39764 9.21258V10.1898H5.22503H4.05242V9.21258V8.2354H5.22503H6.39764V9.21258ZM6.3976 14.6359L6.39756 18.3003L6.28648 18.5352C6.08131 18.9688 5.71463 19.1977 5.22503 19.1977C4.75524 19.1977 4.37434 18.9705 4.16839 18.5673L4.07196 18.3785L4.0616 14.675L4.05124 10.9715H5.22444H6.39764L6.3976 14.6359Z" fill="#292826"/>
</svg>
