<svg width="20" height="20" viewBox="0 0 20 20" fill="none" xmlns="http://www.w3.org/2000/svg">
<path d="M12.4998 14.1666H9.1665M6.6665 14.1666H4.99984M1.67571 8.33325C1.6665 8.81411 1.6665 9.36364 1.6665 9.99992C1.6665 12.3335 1.6665 13.5002 2.12064 14.3915C2.52012 15.1756 3.15753 15.813 3.94154 16.2124C4.83284 16.6666 5.99962 16.6666 8.33317 16.6666H11.6665C14.0001 16.6666 15.1668 16.6666 16.0581 16.2124C16.8421 15.813 17.4796 15.1756 17.879 14.3915C18.3332 13.5002 18.3332 12.3335 18.3332 9.99992C18.3332 9.36364 18.3332 8.81411 18.324 8.33325M1.67571 8.33325C1.70027 7.05057 1.79033 6.25656 2.12064 5.60829C2.52012 4.82428 3.15753 4.18686 3.94154 3.78739C4.83284 3.33325 5.99962 3.33325 8.33317 3.33325H11.6665C14.0001 3.33325 15.1668 3.33325 16.0581 3.78739C16.8421 4.18686 17.4796 4.82428 17.879 5.60829C18.2093 6.25656 18.2994 7.05057 18.324 8.33325M1.67571 8.33325H18.324" stroke="black" stroke-width="1.5" stroke-linecap="round"/>
</svg>
