<svg width="20" height="17" viewBox="0 0 20 17" fill="none" xmlns="http://www.w3.org/2000/svg">
<path d="M19 6.5H1L0.5 5L1 4L2 2.5L4 1L14 0.5L17 1.5L18.5 3.5L19 4V4.5V6.5Z" fill="#FFC801"/>
<path d="M4.4186 12.093C4.03329 12.093 3.72093 12.4054 3.72093 12.7907C3.72093 13.176 4.03329 13.4884 4.4186 13.4884H6.27907C6.66438 13.4884 6.97674 13.176 6.97674 12.7907C6.97674 12.4054 6.66438 12.093 6.27907 12.093H4.4186Z" fill="#292826"/>
<path d="M9.06977 12.093C8.68445 12.093 8.37209 12.4054 8.37209 12.7907C8.37209 13.176 8.68445 13.4884 9.06977 13.4884H12.7907C13.176 13.4884 13.4884 13.176 13.4884 12.7907C13.4884 12.4054 13.176 12.093 12.7907 12.093H9.06977Z" fill="#292826"/>
<path fill-rule="evenodd" clip-rule="evenodd" d="M14.9722 0.0656856C14.1681 -7.58469e-06 13.1677 -4.20069e-06 11.8917 6.86616e-08H8.10832C6.8323 -4.20069e-06 5.83189 -7.58469e-06 5.02785 0.0656856C4.20911 0.132579 3.53273 0.27105 2.92052 0.582989C1.91407 1.0958 1.0958 1.91407 0.582989 2.92052C0.133897 3.80191 0.0377651 4.83663 0.0104047 6.26572C6.79865e-08 6.80917 6.86616e-08 7.42814 6.86616e-08 8.13415V8.17075C-4.20069e-06 9.44677 -7.58469e-06 10.4472 0.0656856 11.2512C0.132579 12.07 0.27105 12.7463 0.582989 13.3586C1.0958 14.365 1.91407 15.1833 2.92052 15.6961C3.53273 16.008 4.20911 16.1465 5.02785 16.2134C5.83188 16.2791 6.83226 16.2791 8.10825 16.2791H11.8917C13.1677 16.2791 14.1681 16.2791 14.9722 16.2134C15.7909 16.1465 16.4673 16.008 17.0795 15.6961C18.0859 15.1833 18.9042 14.365 19.417 13.3586C19.729 12.7463 19.8674 12.07 19.9343 11.2512C20 10.4472 20 9.4468 20 8.17082V8.13414C20 7.42813 20 6.80917 19.9896 6.26572C19.9622 4.83663 19.8661 3.80191 19.417 2.92052C18.9042 1.91407 18.0859 1.0958 17.0795 0.582989C16.4673 0.27105 15.7909 0.132579 14.9722 0.0656856ZM3.55399 1.82625C3.93672 1.63125 4.40903 1.51624 5.14147 1.4564C5.88206 1.39589 6.82557 1.39535 8.13953 1.39535H11.8605C13.1744 1.39535 14.1179 1.39589 14.8585 1.4564C15.591 1.51624 16.0633 1.63125 16.446 1.82625C17.1899 2.20529 17.7947 2.81009 18.1737 3.55399C18.4101 4.01788 18.5232 4.59736 18.5715 5.5814H1.42853C1.47676 4.59736 1.58989 4.01788 1.82625 3.55399C2.20529 2.81009 2.81009 2.20529 3.55399 1.82625ZM1.39535 8.13953C1.39535 7.7165 1.39536 7.33091 1.39749 6.97674H18.6025C18.6046 7.33091 18.6047 7.7165 18.6047 8.13953C18.6047 9.4535 18.6041 10.397 18.5436 11.1376C18.4838 11.87 18.3688 12.3424 18.1737 12.7251C17.7947 13.469 17.1899 14.0738 16.446 14.4528C16.0633 14.6478 15.591 14.7628 14.8585 14.8227C14.1179 14.8832 13.1744 14.8837 11.8605 14.8837H8.13953C6.82557 14.8837 5.88206 14.8832 5.14147 14.8227C4.40903 14.7628 3.93672 14.6478 3.55399 14.4528C2.81009 14.0738 2.20529 13.469 1.82625 12.7251C1.63125 12.3424 1.51624 11.87 1.4564 11.1376C1.39589 10.397 1.39535 9.4535 1.39535 8.13953Z" fill="#292826"/>
</svg>
