<svg width="15" height="15" viewBox="0 0 15 15" fill="none" xmlns="http://www.w3.org/2000/svg">
<path d="M11.5732 7.98718L12.0685 8.0561L11.5732 7.98718ZM11.4093 9.16532L11.9045 9.23424V9.23424L11.4093 9.16532ZM3.59071 9.16533L4.08594 9.09641L3.59071 9.16533ZM3.42675 7.98719L2.93152 8.05611H2.93152L3.42675 7.98719ZM5.73978 13.5855L5.54539 14.0462H5.54539L5.73978 13.5855ZM4.04693 11.6002L4.51625 11.4278L4.04693 11.6002ZM10.9531 11.6002L11.4224 11.7726L10.9531 11.6002ZM9.26022 13.5855L9.06583 13.1249L9.26022 13.5855ZM3.62276 5.57771C3.59664 5.3028 3.35261 5.10112 3.07771 5.12724C2.8028 5.15336 2.60112 5.39739 2.62724 5.67229L3.62276 5.57771ZM12.3728 5.67229C12.3989 5.39739 12.1972 5.15336 11.9223 5.12724C11.6474 5.10112 11.4034 5.3028 11.3772 5.57771L12.3728 5.67229ZM12.5 4.875C12.7761 4.875 13 4.65114 13 4.375C13 4.09886 12.7761 3.875 12.5 3.875V4.875ZM2.5 3.875C2.22386 3.875 2 4.09886 2 4.375C2 4.65114 2.22386 4.875 2.5 4.875V3.875ZM5.75 11.25C5.75 11.5261 5.97386 11.75 6.25 11.75C6.52614 11.75 6.75 11.5261 6.75 11.25H5.75ZM6.75 6.25C6.75 5.97386 6.52614 5.75 6.25 5.75C5.97386 5.75 5.75 5.97386 5.75 6.25H6.75ZM8.25 11.25C8.25 11.5261 8.47386 11.75 8.75 11.75C9.02614 11.75 9.25 11.5261 9.25 11.25H8.25ZM9.25 6.25C9.25 5.97386 9.02614 5.75 8.75 5.75C8.47386 5.75 8.25 5.97386 8.25 6.25H9.25ZM10 4.375V4.875H10.5V4.375H10ZM5 4.375H4.5V4.875H5V4.375ZM11.078 7.91826L10.9141 9.0964L11.9045 9.23424L12.0685 8.0561L11.078 7.91826ZM4.08594 9.09641L3.92198 7.91827L2.93152 8.05611L3.09548 9.23425L4.08594 9.09641ZM7.5 13.25C6.54146 13.25 6.20832 13.2405 5.93417 13.1249L5.54539 14.0462C6.05079 14.2595 6.63129 14.25 7.5 14.25V13.25ZM3.09548 9.23425C3.27007 10.4888 3.36551 11.1954 3.5776 11.7726L4.51625 11.4278C4.3505 10.9766 4.26774 10.4028 4.08594 9.09641L3.09548 9.23425ZM5.93417 13.1249C5.3678 12.8859 4.83663 12.2998 4.51625 11.4278L3.5776 11.7726C3.96379 12.8238 4.65398 13.67 5.54539 14.0462L5.93417 13.1249ZM10.9141 9.0964C10.7323 10.4028 10.6495 10.9766 10.4837 11.4278L11.4224 11.7726C11.6345 11.1954 11.7299 10.4888 11.9045 9.23424L10.9141 9.0964ZM7.5 14.25C8.36871 14.25 8.94921 14.2595 9.45461 14.0462L9.06583 13.1249C8.79168 13.2405 8.45854 13.25 7.5 13.25V14.25ZM10.4837 11.4278C10.1634 12.2998 9.6322 12.8859 9.06583 13.1249L9.45461 14.0462C10.346 13.67 11.0362 12.8238 11.4224 11.7726L10.4837 11.4278ZM3.92198 7.91827C3.78311 6.92045 3.67957 6.1756 3.62276 5.57771L2.62724 5.67229C2.68659 6.29689 2.79384 7.06679 2.93152 8.05611L3.92198 7.91827ZM12.0685 8.0561C12.2062 7.06679 12.3134 6.29689 12.3728 5.67229L11.3772 5.57771C11.3204 6.1756 11.2169 6.92044 11.078 7.91826L12.0685 8.0561ZM12.5 3.875H2.5V4.875H12.5V3.875ZM6.75 11.25V6.25H5.75V11.25H6.75ZM9.25 11.25V6.25H8.25V11.25H9.25ZM9.5 3.75V4.375H10.5V3.75H9.5ZM10 3.875H5V4.875H10V3.875ZM5.5 4.375V3.75H4.5V4.375H5.5ZM7.5 1.75C8.60457 1.75 9.5 2.64543 9.5 3.75H10.5C10.5 2.09315 9.15685 0.75 7.5 0.75V1.75ZM7.5 0.75C5.84315 0.75 4.5 2.09315 4.5 3.75H5.5C5.5 2.64543 6.39543 1.75 7.5 1.75V0.75Z" fill="#2D264B"/>
</svg>
