<svg width="20" height="20" viewBox="0 0 20 20" fill="none" xmlns="http://www.w3.org/2000/svg">
<path d="M17 10H3L2.5 10.5V11.5V14L3 16L4 17.5L7 18.5H9H11.5H14L16.5 17L17 16.5L17.5 15.5V14V13L17 10Z" fill="#FFC801"/>
<path fill-rule="evenodd" clip-rule="evenodd" d="M15.7959 2.69755C16.4808 3.38247 16.722 4.34236 16.5201 5.22131C17.8891 5.3568 18.9584 6.51169 18.9584 7.91635C18.9584 8.69985 18.6257 9.40564 18.0939 9.90016C18.1251 10.3955 18.1251 10.8541 18.1251 11.7619V11.8077C18.1251 12.8057 18.1251 13.5853 18.0841 14.2144C18.0425 14.8532 17.9567 15.381 17.7641 15.8682C17.2826 17.086 16.3552 18.0627 15.1767 18.5741C14.7023 18.78 14.1892 18.8709 13.5745 18.9149C12.9711 18.958 12.2246 18.958 11.2744 18.958H8.72582C7.77565 18.958 7.02909 18.958 6.42571 18.9149C5.81098 18.8709 5.29791 18.78 4.82344 18.5741C3.64495 18.0627 2.71755 17.086 2.23603 15.8682C2.04342 15.381 1.95766 14.8532 1.91605 14.2144C1.87508 13.5853 1.87508 12.8058 1.87508 11.8077V11.7854C1.87508 11.389 1.86718 11.0696 1.86028 10.7902C1.85159 10.439 1.84447 10.151 1.85656 9.85275C1.35379 9.36105 1.04175 8.67514 1.04175 7.91635C1.04175 6.46803 2.17859 5.28524 3.60861 5.21165C3.41064 4.33534 3.6526 3.37997 4.33501 2.69756C5.39268 1.63989 7.1075 1.63989 8.16517 2.69756L9.93294 4.46533C9.97911 4.51149 10.0233 4.55894 10.0654 4.60756C10.1076 4.55894 10.1518 4.51149 10.1979 4.46532L11.9657 2.69755C13.0234 1.63988 14.7382 1.63988 15.7959 2.69755ZM12.8496 3.58143C13.4191 3.01192 14.3425 3.01192 14.912 3.58143C15.3516 4.021 15.4521 4.67222 15.2127 5.20801H11.223L12.8496 3.58143ZM7.28129 3.58144L8.90786 5.20801H4.91821C4.67881 4.67222 4.77933 4.02101 5.21889 3.58144C5.78841 3.01193 6.71178 3.01193 7.28129 3.58144ZM2.29175 7.91635C2.29175 7.11093 2.94467 6.45801 3.75008 6.45801H9.37508V9.37468H3.75008C2.94467 9.37468 2.29175 8.72176 2.29175 7.91635ZM10.6251 17.4997L10.6251 10.6247H16.2501C16.463 10.6247 16.6702 10.6001 16.869 10.5536C16.875 10.861 16.8751 11.2353 16.8751 11.7854C16.8751 12.8105 16.8748 13.5494 16.8368 14.1332C16.7991 14.7118 16.7263 15.0935 16.6017 15.4086C16.2374 16.3299 15.5425 17.0527 14.6791 17.4274C14.3879 17.5538 14.0328 17.6289 13.4853 17.6681C12.9317 17.7076 12.2297 17.708 11.2501 17.708H10.5895C10.6125 17.6429 10.6251 17.5727 10.6251 17.4997ZM9.37508 17.4997L9.37508 10.6247H3.75008C3.52782 10.6247 3.31181 10.5979 3.10511 10.5474L3.10819 10.6627C3.11569 10.9398 3.12508 11.2866 3.12508 11.7854C3.12508 12.8105 3.12539 13.5494 3.16341 14.1332C3.20109 14.7118 3.27391 15.0935 3.39847 15.4086C3.76273 16.3299 4.45762 17.0527 5.32103 17.4274C5.61227 17.5538 5.96741 17.6289 6.51483 17.6681C7.06845 17.7076 7.77041 17.708 8.75008 17.708H9.41065C9.38762 17.6429 9.37508 17.5727 9.37508 17.4997ZM17.7084 7.91635C17.7084 7.11093 17.0555 6.45801 16.2501 6.45801H10.6251V9.37468H16.2501C17.0555 9.37468 17.7084 8.72176 17.7084 7.91635Z" fill="#292826"/>
</svg>
