<svg width="12" height="15" viewBox="0 0 12 15" fill="none" xmlns="http://www.w3.org/2000/svg">
<path fill-rule="evenodd" clip-rule="evenodd" d="M9.29441 1.10458C8.646 0.730197 8.10531 0.418005 7.64274 0.22789C7.1545 0.0272231 6.66809 -0.0749475 6.1496 0.0639804C5.63112 0.202908 5.26095 0.534598 4.93846 0.952501C4.63292 1.34843 4.32076 1.88914 3.94642 2.53757L0.716738 8.13146C0.499602 8.50683 0.322232 8.81346 0.232581 9.14274C0.219774 9.18978 0.208757 9.23728 0.19967 9.28551C0.126974 9.67134 0.186296 10.0587 0.26132 10.5486L0.281536 10.681C0.420024 11.5905 0.534174 12.3401 0.70634 12.9086C0.8864 13.5031 1.1632 14.0177 1.70759 14.332C2.25198 14.6463 2.83604 14.6287 3.44094 14.4874C4.01933 14.3523 4.72561 14.0763 5.58247 13.7415L5.70725 13.6928C6.16903 13.5128 6.53415 13.3705 6.83195 13.1147C7.12975 12.8588 7.3254 12.5192 7.57285 12.0898L10.8025 6.49591C11.1768 5.84751 11.489 5.30681 11.6792 4.84424C11.8798 4.356 11.982 3.86959 11.8431 3.3511C11.7041 2.83261 11.3724 2.46245 10.9545 2.13996C10.5586 1.83442 10.0179 1.52226 9.36947 1.14792L9.29441 1.10458ZM9.38576 6.4497L4.69479 3.74137L1.84192 8.68268C1.53112 9.221 1.45635 9.36678 1.42806 9.51695C1.39976 9.66712 1.41636 9.83012 1.50995 10.4446C1.65765 11.4144 1.75968 12.0741 1.90268 12.5463C2.04081 13.0024 2.18326 13.1633 2.33259 13.2495C2.48192 13.3357 2.69249 13.3786 3.15655 13.2702C3.63695 13.1579 4.25925 12.9165 5.17298 12.5595C5.75196 12.3333 5.90141 12.2662 6.01732 12.1666C6.13323 12.067 6.22209 11.9293 6.53289 11.391L9.38576 6.4497ZM10.0094 5.36642C10.2437 4.9537 10.4126 4.63776 10.523 4.36906C10.6705 4.01018 10.6754 3.82297 10.6357 3.67462C10.5959 3.52628 10.498 3.36661 10.1909 3.12956C9.86933 2.88142 9.40265 2.61046 8.70694 2.20878C8.01122 1.80711 7.54322 1.53845 7.16756 1.38405C6.80868 1.23655 6.62147 1.23164 6.47313 1.27139C6.32478 1.31114 6.16511 1.40899 5.92806 1.71617C5.75058 1.94616 5.56141 2.2504 5.32109 2.65959L10.0094 5.36642Z" fill="black"/>
</svg>
