<svg width="20" height="15" viewBox="0 0 20 15" fill="none" xmlns="http://www.w3.org/2000/svg">
<path d="M1 11.5L9.5 6.5H10C12.6667 8.16667 18.1 11.5 18.5 11.5C18.9 11.5 19 11.8333 19 12L19.5 12.5V13L18.5 14H3H1L0.5 13L1 11.5Z" fill="#FACB52"/>
<path fill-rule="evenodd" clip-rule="evenodd" d="M9.37361 0.0586037C8.29107 0.342923 7.50993 1.32876 7.4911 2.43439C7.48606 2.72871 7.54118 2.83913 7.77131 2.99572C8.02113 3.16576 8.38519 3.07687 8.55023 2.80553C8.59122 2.73813 8.63709 2.57532 8.65217 2.44377C8.69671 2.05466 8.81201 1.80265 9.05792 1.55674C9.33181 1.28285 9.60776 1.16916 9.99875 1.16916C10.3897 1.16916 10.6657 1.28285 10.9396 1.55674C11.2196 1.8368 11.3344 2.1203 11.3333 2.52902C11.3326 2.76298 11.3118 2.85815 11.2176 3.05648C11.076 3.35475 10.9286 3.50591 10.5256 3.76632C9.8121 4.2274 9.41268 4.95044 9.41268 5.78113V6.0828L5.16395 8.53915C1.17547 10.845 0.898186 11.0123 0.637153 11.269C0.327282 11.5738 0.147321 11.8849 0.0554261 12.2747C-0.200762 13.3612 0.453481 14.4535 1.55677 14.781C1.74903 14.8381 2.54292 14.844 10.0087 14.844H18.2485L18.5441 14.7447C19.0976 14.559 19.5374 14.1734 19.7832 13.6588C20.283 12.612 19.9005 11.4954 18.8233 10.8568C18.6222 10.7376 16.6862 9.61426 14.5212 8.36055L10.5848 6.08104V5.8388C10.5848 5.29974 10.7501 5.02526 11.2934 4.66245C11.7478 4.35899 12.0109 4.07842 12.2217 3.67247C12.4285 3.27434 12.4993 2.97775 12.4993 2.50991C12.4993 1.77358 12.2872 1.26523 11.7604 0.73879C11.379 0.357653 11.0992 0.191758 10.6397 0.0741931C10.2785 -0.0181707 9.69337 -0.0253598 9.37361 0.0586037ZM14.2167 9.53819C16.4848 10.8513 18.3971 11.9675 18.4665 12.0187C18.5359 12.0698 18.6376 12.1884 18.6925 12.2821C18.9666 12.7498 18.7844 13.3581 18.3043 13.5779L18.0978 13.6724L9.95249 13.6624L1.80725 13.6523L1.616 13.5341C1.49746 13.4608 1.37977 13.3431 1.30648 13.2246C1.20403 13.0588 1.18825 12.9964 1.18825 12.7567C1.18825 12.5244 1.20567 12.4505 1.29737 12.2945C1.35743 12.1924 1.45413 12.074 1.51226 12.0314C1.80776 11.8151 9.98695 7.11165 10.0361 7.12978C10.0674 7.14131 11.9487 8.22509 14.2167 9.53819Z" fill="#292826"/>
</svg>
