<svg width="20" height="20" viewBox="0 0 20 20" fill="none" xmlns="http://www.w3.org/2000/svg">
<path d="M9.99992 3.41667C9.5857 3.41667 9.24992 3.75245 9.24992 4.16667C9.24992 4.58088 9.5857 4.91667 9.99992 4.91667V3.41667ZM16.6666 4.91667C17.0808 4.91667 17.4166 4.58088 17.4166 4.16667C17.4166 3.75245 17.0808 3.41667 16.6666 3.41667V4.91667ZM9.99992 15.0833C9.5857 15.0833 9.24992 15.4191 9.24992 15.8333C9.24992 16.2475 9.5857 16.5833 9.99992 16.5833V15.0833ZM16.6666 16.5833C17.0808 16.5833 17.4166 16.2475 17.4166 15.8333C17.4166 15.4191 17.0808 15.0833 16.6666 15.0833V16.5833ZM9.99992 10.75C10.4141 10.75 10.7499 10.4142 10.7499 10C10.7499 9.58579 10.4141 9.25 9.99992 9.25V10.75ZM3.33325 9.25C2.91904 9.25 2.58325 9.58579 2.58325 10C2.58325 10.4142 2.91904 10.75 3.33325 10.75L3.33325 9.25ZM9.99992 4.91667L16.6666 4.91667V3.41667L9.99992 3.41667V4.91667ZM9.99992 16.5833H16.6666V15.0833H9.99992V16.5833ZM9.99992 9.25L3.33325 9.25L3.33325 10.75L9.99992 10.75V9.25ZM2.58325 4.16667C2.58325 5.50135 3.66523 6.58333 4.99992 6.58333V5.08333C4.49366 5.08333 4.08325 4.67293 4.08325 4.16667H2.58325ZM4.99992 6.58333C6.33461 6.58333 7.41658 5.50135 7.41658 4.16667H5.91659C5.91659 4.67293 5.50618 5.08333 4.99992 5.08333V6.58333ZM7.41658 4.16667C7.41658 2.83198 6.33461 1.75 4.99992 1.75V3.25C5.50618 3.25 5.91659 3.66041 5.91659 4.16667H7.41658ZM4.99992 1.75C3.66523 1.75 2.58325 2.83198 2.58325 4.16667H4.08325C4.08325 3.66041 4.49366 3.25 4.99992 3.25V1.75ZM2.58325 15.8333C2.58325 17.168 3.66523 18.25 4.99992 18.25V16.75C4.49366 16.75 4.08325 16.3396 4.08325 15.8333H2.58325ZM4.99992 18.25C6.33461 18.25 7.41658 17.168 7.41658 15.8333H5.91659C5.91659 16.3396 5.50618 16.75 4.99992 16.75V18.25ZM7.41658 15.8333C7.41658 14.4986 6.33461 13.4167 4.99992 13.4167V14.9167C5.50618 14.9167 5.91659 15.3271 5.91659 15.8333H7.41658ZM4.99992 13.4167C3.66523 13.4167 2.58325 14.4986 2.58325 15.8333H4.08325C4.08325 15.3271 4.49366 14.9167 4.99992 14.9167V13.4167ZM17.4166 10C17.4166 8.66531 16.3346 7.58333 14.9999 7.58333V9.08333C15.5062 9.08333 15.9166 9.49374 15.9166 10L17.4166 10ZM14.9999 7.58333C13.6652 7.58333 12.5833 8.66531 12.5833 10L14.0833 10C14.0833 9.49374 14.4937 9.08333 14.9999 9.08333V7.58333ZM12.5833 10C12.5833 11.3347 13.6652 12.4167 14.9999 12.4167V10.9167C14.4937 10.9167 14.0833 10.5063 14.0833 10L12.5833 10ZM14.9999 12.4167C16.3346 12.4167 17.4166 11.3347 17.4166 10L15.9166 10C15.9166 10.5063 15.5062 10.9167 14.9999 10.9167V12.4167Z" fill="#353B3B"/>
</svg>
