<svg width="26" height="25" viewBox="0 0 26 25" fill="none" xmlns="http://www.w3.org/2000/svg">
<path d="M17.3095 1.5L21.7601 3.5V4L19.7821 6.5L18.2985 7.5L17.3095 6.5L15.826 5.5H11.3755L8.40843 7L6.92491 9.5L6.43041 12V14L8.40843 17L10.3865 18.5L12.859 19.5L15.826 19L17.804 18L19.7821 16V15L13.3535 14.5L13.848 10H23.2436L25.2216 10.5L25.7161 12.5L24.7271 17L21.2656 21.5L19.2876 23L15.3315 24.5L11.3755 24L6.43041 22L3.95788 19.5L2.47436 17L1.48535 13.5L1.97986 9L2.96887 8C3.46337 7.5 2.96887 7 2.96887 6.5C2.96887 6 3.95788 6 3.95788 5.5C3.95788 5.1 4.28755 4.66667 4.45238 4.5C4.78206 4.33333 5.5403 3.9 5.9359 3.5C6.43041 3 6.92491 3 7.41942 2.5C7.91392 2 7.91392 2 8.40843 2C8.90294 2 9.89195 1 10.3865 1H11.3755H12.859H13.848H14.837L17.3095 1.5Z" fill="#F9C337"/>
<path fill-rule="evenodd" clip-rule="evenodd" d="M12.5524 0.0137436C10.6827 0.205641 9.26799 0.613429 7.76123 1.39485C6.55168 2.02214 5.6825 2.66576 4.65567 3.69439C3.61535 4.73651 2.937 5.67812 2.29063 6.97727C0.542535 10.491 0.558276 14.58 2.33345 18.0891C3.00666 19.4199 3.76244 20.4475 4.81747 21.4667C5.81512 22.4305 6.77708 23.1072 8.00628 23.71C8.91702 24.1566 9.50297 24.3731 10.4472 24.6119C13.3367 25.3426 16.3027 25.037 18.9724 23.7337C20.2668 23.1017 21.2634 22.3847 22.3316 21.317C23.4089 20.2399 24.0844 19.3013 24.7247 17.9914C25.1783 17.0634 25.398 16.4701 25.6296 15.5481C25.9264 14.3659 25.992 13.8113 25.9907 12.4939C25.9896 11.3584 25.9229 10.674 25.7253 9.76963L25.6693 9.51309H19.2941H12.919V12.4939V15.4748H16.1208C17.8818 15.4748 19.3226 15.4934 19.3226 15.5161C19.3226 15.5388 19.1647 15.7972 18.9717 16.0903C16.6917 19.5526 11.8175 20.0475 8.88348 17.1145C6.38323 14.6151 6.31177 10.6053 8.72148 8.02594C10.0433 6.61097 11.8527 5.87558 13.7989 5.96227C15.4565 6.03606 16.8668 6.64528 18.0766 7.8101L18.5709 8.28596L20.6576 6.19947C21.8054 5.0519 22.7444 4.08772 22.7444 4.05693C22.7444 3.99008 21.7392 3.05273 21.2504 2.66376C19.5727 1.32868 17.4699 0.430621 15.2558 0.10356C14.7727 0.032215 12.9594 -0.028037 12.5524 0.0137436ZM14.2352 1.20657C16.642 1.37081 18.8311 2.23266 20.6876 3.74688L21.077 4.06451L19.8132 5.33048L18.5494 6.59646L18.1905 6.32989C16.3275 4.94591 14.0671 4.44586 11.8475 4.9266C9.2306 5.49335 7.04549 7.44297 6.17788 9.98523C5.86742 10.8949 5.80974 11.2825 5.80808 12.4695C5.80676 13.4174 5.81991 13.604 5.91924 14.0474C6.0762 14.7479 6.23668 15.22 6.52035 15.8155C7.56223 18.0025 9.54061 19.5533 11.9585 20.0783C12.6348 20.2252 14.2726 20.2377 14.9459 20.1011C16.5358 19.7786 17.8124 19.0932 18.9593 17.9461C19.8915 17.0138 20.3648 16.2636 20.8422 14.9617L21.0752 14.3264L17.5959 14.302L14.1166 14.2775V12.4939V10.7103L19.3688 10.6978C22.2575 10.691 24.6375 10.702 24.6576 10.7223C24.798 10.8637 24.8622 12.9705 24.7519 13.8133C24.4128 16.4048 23.3026 18.6817 21.4991 20.4847C18.0931 23.8896 12.9677 24.7702 8.62255 22.697C6.25017 21.5651 4.28269 19.5573 3.20004 17.1634C2.5194 15.6584 2.19853 14.1622 2.19853 12.4939C2.19853 10.8256 2.5194 9.3295 3.20004 7.82447C4.82568 4.22987 8.27592 1.70852 12.1858 1.25788C12.6048 1.2096 12.8183 1.19298 13.3589 1.16674C13.453 1.16215 13.8473 1.18008 14.2352 1.20657Z" fill="black"/>
</svg>
