<svg width="20" height="18" viewBox="0 0 20 18" fill="none" xmlns="http://www.w3.org/2000/svg">
<path fill-rule="evenodd" clip-rule="evenodd" d="M2.5486 0.0312618C1.93477 0.136143 1.3819 0.431435 0.903326 0.910009C0.516631 1.2967 0.291102 1.65943 0.113045 2.18089L0 2.51208V8.62439V14.7367L0.117667 15.0823C0.288337 15.5834 0.514903 15.943 0.906998 16.3351C1.29909 16.7272 1.6587 16.9538 2.15983 17.1244L2.5054 17.2421H10H17.4946L17.8402 17.1244C18.3413 16.9538 18.7009 16.7272 19.093 16.3351C19.4851 15.943 19.7117 15.5834 19.8823 15.0823L20 14.7367V8.62439V2.51208L19.8823 2.16651C19.7117 1.66539 19.4851 1.30578 19.093 0.913681C18.7009 0.521586 18.3413 0.29502 17.8402 0.12435L17.4946 0.00668298L10.1296 0.00050581C6.07883 -0.00286352 2.66739 0.0109595 2.5486 0.0312618ZM17.6942 0.809232C18.1131 0.972428 18.3385 1.11735 18.6286 1.41014C18.8986 1.68271 19.091 2.00176 19.228 2.40409C19.3055 2.63178 19.3089 2.89118 19.3089 8.62439V14.6071L19.209 14.8961C18.9503 15.6449 18.3748 16.2089 17.6026 16.4705C17.3745 16.5478 17.0709 16.551 10 16.551C2.92911 16.551 2.62549 16.5478 2.39741 16.4705C1.52946 16.1764 0.865572 15.442 0.715724 14.61C0.651447 14.2531 0.651447 2.99567 0.715724 2.63882C0.791879 2.21597 1.05421 1.72828 1.38151 1.40094C1.69853 1.08392 2.21266 0.797137 2.59179 0.725776C2.7222 0.70124 5.70069 0.687676 10.108 0.691478L17.4082 0.697828L17.6942 0.809232ZM3.54017 4.58357L3.43413 4.68958V6.20539V7.7212L3.54017 7.8272C3.607 7.89407 3.69555 7.93325 3.7797 7.93325C3.86384 7.93325 3.9524 7.89407 4.01922 7.8272C4.12138 7.72509 4.12527 7.69973 4.12527 7.13606V6.55096H4.81641H5.50756V7.13606C5.50756 7.69973 5.51145 7.72509 5.61361 7.8272C5.75387 7.9675 5.9524 7.9675 6.09266 7.8272L6.1987 7.7212V6.20539V4.68958L6.09266 4.58357C6.02583 4.51671 5.93728 4.47753 5.85313 4.47753C5.76898 4.47753 5.68043 4.51671 5.61361 4.58357C5.51145 4.68569 5.50756 4.71105 5.50756 5.27472V5.85982H4.81641H4.12527V5.27472C4.12527 4.71105 4.12138 4.68569 4.01922 4.58357C3.9524 4.51671 3.86384 4.47753 3.7797 4.47753C3.69555 4.47753 3.607 4.51671 3.54017 4.58357ZM7.94549 4.51532C7.73425 4.57023 7.36713 4.78651 7.25106 4.92448C7.19231 4.99429 7.09188 5.15066 7.02786 5.27204L6.91145 5.49264L6.89801 6.60426L6.88454 7.71588L6.99322 7.82457C7.1362 7.96755 7.33356 7.96863 7.47495 7.8272C7.57711 7.72509 7.58099 7.69973 7.58099 7.13606V6.55096H8.27214H8.96328V7.13606C8.96328 7.69973 8.96717 7.72509 9.06933 7.8272C9.21093 7.96884 9.40808 7.96755 9.55162 7.82401L9.66086 7.71476L9.64682 6.6037C9.63283 5.4929 9.63279 5.4926 9.51641 5.27204C9.34466 4.94642 9.21348 4.81018 8.92233 4.65502C8.64324 4.50625 8.21572 4.44509 7.94549 4.51532ZM10.4516 4.58357L10.3456 4.68958V6.20539V7.7212L10.4516 7.8272C10.5803 7.95588 10.7711 7.96565 10.9131 7.85074C11.0133 7.76971 11.0155 7.75187 11.0367 6.82768L11.0583 5.88707L11.8055 6.88474C12.2165 7.43347 12.5826 7.89385 12.619 7.90785C12.7559 7.96033 12.9015 7.92984 13.0041 7.8272L13.1102 7.7212V6.20539V4.68958L13.0041 4.58357C12.8754 4.45489 12.6846 4.44513 12.5426 4.56003C12.4424 4.64107 12.4402 4.65891 12.419 5.5831L12.3974 6.5237L11.6502 5.52604C11.2392 4.97731 10.8731 4.51692 10.8367 4.50292C10.6999 4.45044 10.5542 4.48094 10.4516 4.58357ZM13.9121 4.57882L13.8013 4.68958V6.20539V7.7212L13.9121 7.83195C14.0223 7.94219 14.0256 7.94262 14.6356 7.92625C15.2156 7.91066 15.2638 7.90254 15.5369 7.77403C15.9378 7.58539 16.1884 7.34033 16.3829 6.94664C16.5352 6.63856 16.5443 6.59705 16.5443 6.20763C16.5443 5.83398 16.5314 5.76776 16.4076 5.50647C16.2175 5.10517 15.9724 4.85472 15.5801 4.66085C15.2576 4.50146 15.2486 4.49977 14.6386 4.484C14.0257 4.46815 14.0223 4.46858 13.9121 4.57882ZM8.65067 5.28409C8.81067 5.40357 8.91469 5.55658 8.94657 5.71943L8.97408 5.85982H8.27754C7.52013 5.85982 7.53227 5.86439 7.62708 5.61424C7.6879 5.45372 7.83136 5.30133 7.99136 5.22724C8.1635 5.14755 8.50752 5.17722 8.65067 5.28409ZM15.157 5.2212C15.3943 5.29131 15.7521 5.64915 15.8222 5.88642C15.9419 6.29143 15.8575 6.61433 15.5522 6.9196C15.3074 7.16444 15.1108 7.2421 14.7358 7.2421H14.4924V6.20539V5.16867H14.7358C14.8697 5.16867 15.0592 5.1923 15.157 5.2212ZM3.54017 9.42159L3.43413 9.52759V11.0434V12.5592L3.54017 12.6652C3.66886 12.7939 3.8597 12.8037 4.00168 12.6888C4.1019 12.6077 4.10406 12.59 4.12527 11.6635L4.14687 10.7206L4.35849 11.0091C4.4749 11.1677 4.62553 11.3204 4.69326 11.3485C4.88199 11.4266 5.03235 11.3388 5.27434 11.0091L5.48596 10.7206L5.50756 11.6635C5.52877 12.59 5.53093 12.6077 5.63114 12.6888C5.77313 12.8037 5.96397 12.7939 6.09266 12.6652L6.1987 12.5592V11.0434V9.52759L6.09266 9.42159C5.9765 9.30539 5.78475 9.28189 5.66838 9.36953C5.62894 9.39925 5.42968 9.64707 5.22562 9.92029C5.02151 10.1935 4.83741 10.4171 4.81641 10.4171C4.79542 10.4171 4.61132 10.1935 4.40721 9.92029C4.20315 9.64707 4.00389 9.39925 3.96445 9.36953C3.84808 9.28189 3.65633 9.30539 3.54017 9.42159ZM7.94549 9.35334C7.73425 9.40824 7.36713 9.62452 7.25106 9.76249C7.19231 9.8323 7.09188 9.98867 7.02786 10.1101L6.91145 10.3307L6.89801 11.4423L6.88454 12.5539L6.99322 12.6626C7.1362 12.8056 7.33356 12.8066 7.47495 12.6652C7.57711 12.5631 7.58099 12.5377 7.58099 11.9741V11.389H8.27214H8.96328V11.9741C8.96328 12.5377 8.96717 12.5631 9.06933 12.6652C9.21093 12.8069 9.40808 12.8056 9.55162 12.662L9.66086 12.5528L9.64682 11.4417C9.63283 10.3309 9.63279 10.3306 9.51641 10.1101C9.34466 9.78444 9.21348 9.6482 8.92233 9.49303C8.64324 9.34426 8.21572 9.2831 7.94549 9.35334ZM10.4563 9.41683L10.3456 9.52759V11.0434V12.5592L10.4563 12.67C10.5666 12.7802 10.5699 12.7806 11.1799 12.7643C11.7599 12.7487 11.8081 12.7406 12.0812 12.612C12.4821 12.4234 12.7327 12.1783 12.9272 11.7847C13.0795 11.4766 13.0886 11.4351 13.0886 11.0456C13.0886 10.672 13.0756 10.6058 12.9518 10.3445C12.7617 9.94318 12.5167 9.69273 12.1244 9.49886C11.8019 9.33947 11.7928 9.33778 11.1829 9.32202C10.57 9.30616 10.5666 9.3066 10.4563 9.41683ZM13.9073 9.42159L13.8013 9.52759V11.0434V12.5592L13.9073 12.6652L14.0133 12.7713H15.1836H16.3538L16.4598 12.6652C16.6001 12.525 16.6001 12.3264 16.4598 12.1862C16.3538 12.0801 16.3537 12.0801 15.4231 12.0801H14.4924V11.7345V11.389H15.4231C16.3537 11.389 16.3538 11.389 16.4598 11.2829C16.5267 11.2161 16.5659 11.1275 16.5659 11.0434C16.5659 10.9593 16.5267 10.8707 16.4598 10.8039C16.3538 10.6978 16.3537 10.6978 15.4231 10.6978H14.4924V10.3523V10.0067H15.4231C16.3537 10.0067 16.3538 10.0067 16.4598 9.90064C16.5267 9.83381 16.5659 9.74526 16.5659 9.66111C16.5659 9.57696 16.5267 9.48841 16.4598 9.42159L16.3538 9.31554H15.1836H14.0133L13.9073 9.42159ZM8.65067 10.1221C8.81067 10.2416 8.91469 10.3946 8.94657 10.5574L8.97408 10.6978H8.27754C7.52013 10.6978 7.53227 10.7024 7.62708 10.4523C7.6879 10.2917 7.83136 10.1393 7.99136 10.0653C8.1635 9.98556 8.50752 10.0152 8.65067 10.1221ZM11.7013 10.0592C11.9385 10.1293 12.2964 10.4872 12.3665 10.7244C12.4861 11.1294 12.4018 11.4523 12.0965 11.7576C11.8517 12.0025 11.655 12.0801 11.2801 12.0801H11.0367V11.0434V10.0067H11.2801C11.414 10.0067 11.6035 10.0303 11.7013 10.0592Z" fill="#292826"/>
</svg>
