<svg width="20" height="20" viewBox="0 0 20 20" fill="none" xmlns="http://www.w3.org/2000/svg">
<path d="M16 13.5V15V16V16.5L16.5 17H17H17.5H18C18.1667 16.8333 18.6 16.5 19 16.5C19.4 16.5 19.1667 16.1667 19 16V15V14.5V13.5L18.5 13V12.5H17H16V13.5Z" fill="#FACB52"/>
<path d="M1 13.5V15V16V16.5L1.5 17H2H2.5H3C3.16667 16.8333 3.6 16.5 4 16.5C4.4 16.5 4.16667 16.1667 4 16V15V14.5V13.5L3.5 13V12.5H2H1V13.5Z" fill="#FACB52"/>
<path fill-rule="evenodd" clip-rule="evenodd" d="M8.66411 3.0372C9.54741 2.8766 10.4524 2.8766 11.3357 3.0372C15.3048 3.75884 17.9831 7.50236 17.3847 11.4918L17.3779 11.5373C16.169 11.6007 15.2083 12.601 15.2083 13.8257V15.4924C15.2083 16.7581 16.2343 17.7841 17.4999 17.7841C18.7656 17.7841 19.7916 16.7581 19.7916 15.4924V13.8257C19.7916 12.9583 19.31 12.2044 18.6002 11.8152L18.6209 11.6773C19.3194 7.01997 16.1928 2.6498 11.5593 1.80736C10.5282 1.61988 9.47166 1.61988 8.44051 1.80736C3.80707 2.6498 0.680393 7.01997 1.37899 11.6773L1.39968 11.8152C0.689797 12.2044 0.208252 12.9583 0.208252 13.8257V15.4924C0.208252 16.7581 1.23427 17.7841 2.49992 17.7841C3.76557 17.7841 4.79159 16.7581 4.79159 15.4924V13.8257C4.79159 12.601 3.83088 11.6007 2.62197 11.5373L2.61516 11.4918C2.01674 7.50236 4.69508 3.75884 8.66411 3.0372ZM2.24376 12.8157C2.32506 12.7951 2.41075 12.7841 2.49992 12.7841C3.07521 12.7841 3.54159 13.2504 3.54159 13.8257V15.4924C3.54159 16.0677 3.07522 16.5341 2.49992 16.5341C1.92462 16.5341 1.45825 16.0677 1.45825 15.4924V13.8257C1.45825 13.3395 1.79198 12.9297 2.24376 12.8157ZM16.4583 13.8257C16.4583 13.2504 16.9246 12.7841 17.4999 12.7841C17.5891 12.7841 17.6748 12.7951 17.7561 12.8157C18.2079 12.9297 18.5416 13.3395 18.5416 13.8257V15.4924C18.5416 16.0677 18.0752 16.5341 17.4999 16.5341C16.9246 16.5341 16.4583 16.0677 16.4583 15.4924V13.8257Z" fill="black"/>
</svg>
