<svg width="21" height="20" viewBox="0 0 21 20" fill="none" xmlns="http://www.w3.org/2000/svg">
<path d="M5.70462 3.60037C8.04304 1.90141 9.21225 1.05193 10.5475 1.00295C10.6547 0.999018 10.7619 0.999018 10.869 1.00295C12.2043 1.05193 13.3735 1.90141 15.7119 3.60037C18.0503 5.29933 19.2195 6.14881 19.6787 7.40361C19.7156 7.50427 19.7487 7.60624 19.7781 7.70933C20.1441 8.9944 19.6975 10.3689 18.8043 13.1179L17.2952 17.7624C17.0555 18.5004 16.3677 19 15.5918 19C14.6026 19 13.8007 18.1981 13.8007 17.2089V14.7985C13.8007 13.8703 13.0482 13.1179 12.1201 13.1179H9.29645C8.36828 13.1179 7.61584 13.8703 7.61584 14.7985V17.2089C7.61584 18.1981 6.81394 19 5.82474 19C5.04878 19 4.36108 18.5004 4.12129 17.7624L2.6122 13.1179C1.71901 10.3689 1.27241 8.9944 1.63845 7.70933C1.66781 7.60624 1.70095 7.50427 1.73778 7.40361C2.197 6.14881 3.36621 5.29933 5.70462 3.60037Z" stroke="#292826" stroke-width="1.5"/>
</svg>
