<svg width="26" height="25" viewBox="0 0 26 25" fill="none" xmlns="http://www.w3.org/2000/svg">
<circle cx="13.2686" cy="12" r="6" fill="#F9C337"/>
<path fill-rule="evenodd" clip-rule="evenodd" d="M6.20263 0.0709824C3.41811 0.461893 1.17695 2.46503 0.492488 5.17459C0.428036 5.42972 0.35172 5.8362 0.322863 6.0779C0.250452 6.68448 0.250452 18.3129 0.322863 18.9194C0.662456 21.7648 2.68688 24.0792 5.44581 24.7761C5.70093 24.8405 6.10742 24.9168 6.34911 24.9457C6.95569 25.0181 18.5841 25.0181 19.1907 24.9457C21.7553 24.6396 23.8996 22.9661 24.8314 20.5434C24.9822 20.1512 25.1586 19.4083 25.2169 18.9194C25.2893 18.3129 25.2893 6.68448 25.2169 6.0779C24.9108 3.51325 23.2373 1.36896 20.8146 0.437186C20.4224 0.286359 19.6796 0.109995 19.1907 0.0516469C18.5224 -0.0281367 6.78406 -0.0106566 6.20263 0.0709824ZM18.9812 1.51802C21.5023 1.79058 23.478 3.76622 23.7505 6.28732C23.8259 6.98481 23.8259 18.0125 23.7505 18.71C23.478 21.2311 21.5023 23.2068 18.9812 23.4793C18.2837 23.5547 7.25603 23.5547 6.55853 23.4793C4.03744 23.2068 2.06179 21.2311 1.78924 18.71C1.71385 18.0125 1.71385 6.98481 1.78924 6.28732C1.91844 5.09247 2.39992 4.04844 3.22378 3.17688C4.09261 2.25771 5.28766 1.65235 6.49559 1.51949C7.09568 1.45347 18.3719 1.45216 18.9812 1.51802ZM19.3749 3.26653C18.6484 3.51413 18.1153 4.15601 17.99 4.93407C17.865 5.71003 18.2225 6.50645 18.8964 6.95376C19.3312 7.24242 19.8422 7.3578 20.3345 7.27851C21.1342 7.14975 21.7932 6.58389 22.022 5.82966C22.1198 5.5073 22.1162 4.91034 22.0146 4.60957C21.8001 3.97437 21.2925 3.46662 20.659 3.25359C20.3385 3.14582 19.7105 3.15212 19.3749 3.26653ZM20.3361 4.71738C20.8532 5.02279 20.6376 5.82268 20.0383 5.82268C19.7059 5.82268 19.4459 5.56262 19.4459 5.23026C19.4459 4.77646 19.9472 4.4876 20.3361 4.71738ZM11.6469 5.73835C10.8666 5.87375 10.0129 6.17921 9.3764 6.55074C7.21535 7.81204 5.93247 10.0293 5.93511 12.4987C5.93706 14.3629 6.62401 16.0253 7.93365 17.3349C9.24373 18.645 10.9086 19.3328 12.7699 19.3328C14.6311 19.3328 16.296 18.645 17.6061 17.3349C18.9162 16.0248 19.604 14.3599 19.604 12.4987C19.604 10.6374 18.9162 8.97252 17.6061 7.66244C16.5755 6.63179 15.2962 5.97594 13.8441 5.73376C13.3342 5.64875 12.1488 5.6512 11.6469 5.73835ZM13.6764 7.20283C16.2514 7.65189 18.1409 9.8932 18.1409 12.4987C18.1409 15.4548 15.726 17.8697 12.7699 17.8697C9.81379 17.8697 7.3989 15.4548 7.3989 12.4987C7.3989 9.18575 10.422 6.63536 13.6764 7.20283Z" fill="black"/>
</svg>
