<svg width="20" height="20" viewBox="0 0 20 20" fill="none" xmlns="http://www.w3.org/2000/svg">
<path d="M3 4.5C3 4.66667 2.89998 5.2 2.49991 6C2.09991 6.4 2.33325 7.83333 2.49991 8.5L2.5 11.5L3.5 16.5L7 17L12 17.5L13.5 17L16 16.5C16.3333 15.8333 17.1 14.4 17.5 14C17.9 13.6 17.6667 13.1667 17.5 13V9V7.5V6L16.5 4.5L16 3.5H15L14 3H11.5C11.1 3 10.6667 2.66667 10.5 2.5H7.5C7.1 2.5 7 2.83333 7 3C6.5 3 5.4 3.1 5 3.5L4 4L3.5 4.5H3Z" fill="#FACB52"/>
<path fill-rule="evenodd" clip-rule="evenodd" d="M10.625 4.16667C10.625 3.82149 10.3452 3.54167 10 3.54167C9.65482 3.54167 9.375 3.82149 9.375 4.16667V4.42339C9.10269 4.4917 8.83548 4.59844 8.58107 4.74533C6.31284 6.05488 6.60114 9.41576 9.05925 10.3199L9.37504 10.4361L9.37501 14.3495C8.92926 14.2238 8.531 13.9308 8.28166 13.499L7.96869 12.9569C7.7961 12.6579 7.41386 12.5555 7.11492 12.7281C6.81599 12.9007 6.71357 13.2829 6.88616 13.5819L7.19913 14.124C7.68119 14.9589 8.49388 15.483 9.375 15.6279L9.375 15.8333C9.375 16.1785 9.65482 16.4583 10 16.4583C10.3452 16.4583 10.625 16.1785 10.625 15.8333L10.625 15.5766C10.8973 15.5083 11.1646 15.4016 11.419 15.2547C13.6872 13.9451 13.399 10.5842 10.9408 9.6801L10.625 9.56395L10.625 5.65044C11.0708 5.77615 11.4691 6.06915 11.7184 6.50104L12.0314 7.04312C12.204 7.34205 12.5862 7.44448 12.8852 7.27189C13.1841 7.0993 13.2865 6.71705 13.1139 6.41812L12.801 5.87604C12.3189 5.04107 11.5062 4.51694 10.625 4.37208V4.16667ZM9.20607 5.82786C9.26155 5.79583 9.31793 5.76703 9.37501 5.74141L9.37503 9.09999C8.01913 8.50128 7.89212 6.58646 9.20607 5.82786ZM10.625 14.2586L10.625 10.9C11.9809 11.4987 12.108 13.4135 10.794 14.1721C10.7385 14.2042 10.6821 14.233 10.625 14.2586Z" fill="black"/>
<path fill-rule="evenodd" clip-rule="evenodd" d="M13.7196 1.97811C12.7678 1.87499 11.5682 1.87499 10.0377 1.875H9.96229C8.43185 1.87499 7.23218 1.87499 6.2804 1.97811C5.30912 2.08334 4.52213 2.30194 3.8502 2.79013C3.44341 3.08568 3.08568 3.44341 2.79013 3.8502C2.30194 4.52213 2.08334 5.30912 1.97811 6.2804C1.87499 7.23218 1.87499 8.43185 1.875 9.96229V10.0377C1.87499 11.5682 1.87499 12.7678 1.97811 13.7196C2.08334 14.6909 2.30194 15.4779 2.79013 16.1498C3.08567 16.5566 3.44341 16.9143 3.8502 17.2099C4.52213 17.6981 5.30912 17.9167 6.2804 18.0219C7.23216 18.125 8.4318 18.125 9.96221 18.125H10.0377C11.5681 18.125 12.7678 18.125 13.7196 18.0219C14.6909 17.9167 15.4779 17.6981 16.1498 17.2099C16.5566 16.9143 16.9143 16.5566 17.2099 16.1498C17.6981 15.4779 17.9167 14.6909 18.0219 13.7196C18.125 12.7678 18.125 11.5682 18.125 10.0378V9.96227C18.125 8.43187 18.125 7.23216 18.0219 6.2804C17.9167 5.30912 17.6981 4.52213 17.2099 3.8502C16.9143 3.44341 16.5566 3.08567 16.1498 2.79013C15.4779 2.30194 14.6909 2.08334 13.7196 1.97811ZM4.58493 3.8014C5.00826 3.49383 5.55011 3.31454 6.41504 3.22083C7.29166 3.12586 8.42369 3.125 10 3.125C11.5763 3.125 12.7083 3.12586 13.585 3.22083C14.4499 3.31454 14.9917 3.49383 15.4151 3.8014C15.7157 4.01985 15.9802 4.28426 16.1986 4.58493C16.5062 5.00826 16.6855 5.55011 16.7792 6.41504C16.8741 7.29166 16.875 8.42369 16.875 10C16.875 11.5763 16.8741 12.7083 16.7792 13.585C16.6855 14.4499 16.5062 14.9917 16.1986 15.4151C15.9802 15.7157 15.7157 15.9802 15.4151 16.1986C14.9917 16.5062 14.4499 16.6855 13.585 16.7792C12.7083 16.8741 11.5763 16.875 10 16.875C8.42369 16.875 7.29166 16.8741 6.41504 16.7792C5.55011 16.6855 5.00826 16.5062 4.58493 16.1986C4.28426 15.9802 4.01985 15.7157 3.8014 15.4151C3.49383 14.9917 3.31454 14.4499 3.22083 13.585C3.12586 12.7083 3.125 11.5763 3.125 10C3.125 8.42369 3.12586 7.29166 3.22083 6.41504C3.31454 5.55011 3.49383 5.00826 3.8014 4.58493C4.01985 4.28426 4.28426 4.01985 4.58493 3.8014Z" fill="black"/>
</svg>
