<svg width="20" height="20" viewBox="0 0 20 20" fill="none" xmlns="http://www.w3.org/2000/svg">
<path d="M6 6L5.5 7H7H10H12.5L14 6.5V6V4.5V4C13.5669 3.66667 12.6605 2.9 12.5 2.5C12.3395 2.1 11.7664 2 11.5 2H10.5H9.5C9.1 2 8.33333 2.33333 8 2.5L7.5 3L6 4.5L5.5 5L6 6Z" fill="#F9C337"/>
<path d="M5.3791 18.1295L5.5336 17.654L5.3791 18.1295ZM2.70393 15.4543L3.17946 15.2998L2.70393 15.4543ZM17.2961 15.4543L16.8205 15.2998L17.2961 15.4543ZM14.6209 18.1295L14.4664 17.654L14.6209 18.1295ZM14.6209 6.87068L14.4664 7.34621L14.6209 6.87068ZM17.2961 9.54584L16.8205 9.70035L17.2961 9.54584ZM5.3791 6.87068L5.5336 7.34621L5.3791 6.87068ZM2.70393 9.54584L3.17946 9.70035L2.70393 9.54584ZM8.33333 7.16675H11.6667V6.16675H8.33333V7.16675ZM11.6667 17.8334H8.33333V18.8334H11.6667V17.8334ZM8.33333 17.8334C6.74335 17.8334 6.06694 17.8272 5.5336 17.654L5.22459 18.605C5.94652 18.8396 6.82118 18.8334 8.33333 18.8334V17.8334ZM2 12.5001C2 14.0122 1.99383 14.8869 2.2284 15.6088L3.17946 15.2998C3.00617 14.7665 3 14.0901 3 12.5001H2ZM5.5336 17.654C4.41733 17.2913 3.54216 16.4161 3.17946 15.2998L2.2284 15.6088C2.69002 17.0295 3.80388 18.1434 5.22459 18.605L5.5336 17.654ZM17 12.5001C17 14.0901 16.9938 14.7665 16.8205 15.2998L17.7716 15.6088C18.0062 14.8869 18 14.0122 18 12.5001H17ZM11.6667 18.8334C13.1788 18.8334 14.0535 18.8396 14.7754 18.605L14.4664 17.654C13.9331 17.8272 13.2567 17.8334 11.6667 17.8334V18.8334ZM16.8205 15.2998C16.4578 16.4161 15.5827 17.2913 14.4664 17.654L14.7754 18.605C16.1961 18.1434 17.31 17.0295 17.7716 15.6088L16.8205 15.2998ZM18 12.5001C18 10.9879 18.0062 10.1133 17.7716 9.39134L16.8205 9.70035C16.9938 10.2337 17 10.9101 17 12.5001H18ZM14.4664 7.34621C15.5827 7.70891 16.4578 8.58408 16.8205 9.70035L17.7716 9.39134C17.31 7.97062 16.1961 6.85677 14.7754 6.39515L14.4664 7.34621ZM3 12.5001C3 10.9101 3.00617 10.2337 3.17946 9.70035L2.2284 9.39134C1.99383 10.1133 2 10.9879 2 12.5001H3ZM5.22459 6.39515C3.80388 6.85677 2.69002 7.97062 2.2284 9.39134L3.17946 9.70035C3.54216 8.58408 4.41733 7.70891 5.5336 7.34621L5.22459 6.39515ZM13.6667 5.83341V6.66675H14.6667V5.83341H13.6667ZM6.33333 6.66675V5.83341H5.33333V6.66675H6.33333ZM10 2.16675C12.025 2.16675 13.6667 3.80837 13.6667 5.83341H14.6667C14.6667 3.25609 12.5773 1.16675 10 1.16675V2.16675ZM10 1.16675C7.42267 1.16675 5.33333 3.25609 5.33333 5.83341H6.33333C6.33333 3.80837 7.97496 2.16675 10 2.16675V1.16675ZM7.83333 12.5001C7.83333 13.6967 8.80338 14.6667 10 14.6667V13.6667C9.35567 13.6667 8.83333 13.1444 8.83333 12.5001H7.83333ZM10 14.6667C11.1966 14.6667 12.1667 13.6967 12.1667 12.5001H11.1667C11.1667 13.1444 10.6443 13.6667 10 13.6667V14.6667ZM12.1667 12.5001C12.1667 11.3035 11.1966 10.3334 10 10.3334V11.3334C10.6443 11.3334 11.1667 11.8557 11.1667 12.5001H12.1667ZM10 10.3334C8.80338 10.3334 7.83333 11.3035 7.83333 12.5001H8.83333C8.83333 11.8557 9.35567 11.3334 10 11.3334V10.3334ZM8.33333 6.16675C7.15207 6.16675 6.36436 6.165 5.75027 6.26846L5.9164 7.25456C6.4273 7.16849 7.11182 7.16675 8.33333 7.16675V6.16675ZM5.75027 6.26846C5.56573 6.29955 5.3925 6.34059 5.22459 6.39515L5.5336 7.34621C5.64869 7.30882 5.77349 7.27864 5.9164 7.25456L5.75027 6.26846ZM5.33333 6.66675V6.76151H6.33333V6.66675H5.33333ZM11.6667 7.16675C12.8882 7.16675 13.5727 7.16849 14.0836 7.25456L14.2497 6.26846C13.6356 6.165 12.8479 6.16675 11.6667 6.16675V7.16675ZM14.0836 7.25456C14.2265 7.27864 14.3513 7.30882 14.4664 7.34621L14.7754 6.39515C14.6075 6.34059 14.4343 6.29955 14.2497 6.26846L14.0836 7.25456ZM13.6667 6.66675V6.76151H14.6667V6.66675H13.6667Z" fill="#292826"/>
</svg>
