<svg width="20" height="20" viewBox="0 0 20 20" fill="none" xmlns="http://www.w3.org/2000/svg">
<path d="M2.49991 6.5C2.09991 6.5 2.33325 7.83333 2.49991 8.5L17.5 8L17 6L16 5L14.5 3.5H7.5C6.5 3.66667 4.4 4 4 4C3.5 4 3 5.5 3 6C3 6.5 2.99991 6.5 2.49991 6.5Z" fill="#FACB52"/>
<path d="M10.8333 13.5416C10.4882 13.5416 10.2083 13.8214 10.2083 14.1666C10.2083 14.5118 10.4882 14.7916 10.8333 14.7916H14.1667C14.5118 14.7916 14.7917 14.5118 14.7917 14.1666C14.7917 13.8214 14.5118 13.5416 14.1667 13.5416H10.8333Z" fill="black"/>
<path fill-rule="evenodd" clip-rule="evenodd" d="M13.6209 2.7671C12.9006 2.70825 12.0044 2.70825 10.8613 2.70825H9.1387C7.9956 2.70825 7.0994 2.70825 6.37911 2.7671C5.64566 2.82702 5.03974 2.95107 4.4913 3.23051C3.58969 3.68991 2.85665 4.42294 2.39726 5.32455C1.99495 6.11413 1.90883 7.04107 1.88432 8.32129C1.875 8.80813 1.875 9.36263 1.875 9.9951V10.0279C1.875 11.171 1.87499 12.0672 1.93384 12.7875C1.99377 13.5209 2.11782 14.1268 2.39726 14.6753C2.85665 15.5769 3.58969 16.3099 4.4913 16.7693C5.03974 17.0488 5.64566 17.1728 6.37911 17.2327C7.09939 17.2916 7.99557 17.2916 9.13864 17.2916H10.8613C12.0044 17.2916 12.9006 17.2916 13.6209 17.2327C14.3543 17.1728 14.9603 17.0488 15.5087 16.7693C16.4103 16.3099 17.1433 15.5769 17.6027 14.6753C17.8822 14.1268 18.0062 13.5209 18.0662 12.7875C18.125 12.0672 18.125 11.171 18.125 10.0279V9.99509C18.125 9.36262 18.125 8.80813 18.1157 8.32129C18.0912 7.04107 18.005 6.11413 17.6027 5.32455C17.1433 4.42294 16.4103 3.68991 15.5087 3.23051C14.9603 2.95107 14.3543 2.82702 13.6209 2.7671ZM5.05878 4.34427C5.40164 4.16958 5.82475 4.06655 6.4809 4.01294C7.14435 3.95874 7.98958 3.95825 9.16667 3.95825H10.8333C12.0104 3.95825 12.8556 3.95874 13.5191 4.01294C14.1752 4.06655 14.5984 4.16958 14.9412 4.34427C15.6076 4.68382 16.1494 5.22563 16.489 5.89204C16.7007 6.30761 16.8021 6.82672 16.8453 7.70825H3.15472C3.19793 6.82672 3.29928 6.30761 3.51102 5.89204C3.85057 5.22563 4.39238 4.68382 5.05878 4.34427ZM3.125 9.99992C3.125 9.62095 3.12501 9.27553 3.12692 8.95825H16.8731C16.875 9.27553 16.875 9.62095 16.875 9.99992C16.875 11.177 16.8745 12.0222 16.8203 12.6857C16.7667 13.3418 16.6637 13.7649 16.489 14.1078C16.1494 14.7742 15.6076 15.316 14.9412 15.6556C14.5984 15.8303 14.1752 15.9333 13.5191 15.9869C12.8556 16.0411 12.0104 16.0416 10.8333 16.0416H9.16667C7.98958 16.0416 7.14435 16.0411 6.4809 15.9869C5.82475 15.9333 5.40164 15.8303 5.05878 15.6556C4.39238 15.316 3.85057 14.7742 3.51102 14.1078C3.33632 13.7649 3.2333 13.3418 3.17969 12.6857C3.12549 12.0222 3.125 11.177 3.125 9.99992Z" fill="black"/>
</svg>
