<svg width="50" height="14" viewBox="0 0 50 14" fill="none" xmlns="http://www.w3.org/2000/svg">
<g clip-path="url(#clip0_1121_524)">
<g clip-path="url(#clip1_1121_524)">
<path d="M38.4314 3.57812H35.6641C35.4751 3.57812 35.3141 3.71568 35.2846 3.90259L34.1655 10.9976C34.1433 11.1376 34.2517 11.2639 34.3929 11.2639H35.8129C35.9448 11.2639 36.0577 11.1676 36.0783 11.0365L36.3959 9.02534C36.4251 8.83802 36.5865 8.70046 36.7754 8.70046H37.6509C39.4739 8.70046 40.5254 7.81849 40.8006 6.07072C40.9248 5.30607 40.8054 4.70527 40.4474 4.28451C40.0545 3.82249 39.3574 3.57812 38.4314 3.57812ZM38.7506 6.16943C38.5997 7.16226 37.8411 7.16226 37.1072 7.16226H36.6901L36.9834 5.30809C37.0008 5.19602 37.0971 5.11349 37.2107 5.11349H37.4021C37.9014 5.11349 38.3731 5.11349 38.6166 5.39831C38.7619 5.56823 38.806 5.82069 38.7506 6.16943Z" fill="#179BD7"/>
<path d="M46.7017 6.1373H45.3775C45.2638 6.1373 45.1671 6.21984 45.1501 6.33191L45.0915 6.7025L44.9984 6.56818C44.7116 6.15187 44.0723 6.0127 43.4339 6.0127C41.9697 6.0127 40.7196 7.12164 40.476 8.67723C40.3498 9.45321 40.529 10.1952 40.9692 10.7127C41.3738 11.1884 41.9507 11.3867 42.6381 11.3867C43.8178 11.3867 44.472 10.6281 44.472 10.6281L44.413 10.9963C44.3907 11.1371 44.4992 11.2633 44.6412 11.2633H45.8343C46.0232 11.2633 46.1842 11.1257 46.2137 10.9384L46.9302 6.40352C46.9521 6.26394 46.8437 6.1373 46.7017 6.1373ZM44.8548 8.71607C44.7277 9.47303 44.1261 9.98118 43.3599 9.98118C42.9759 9.98118 42.6676 9.85779 42.4702 9.62394C42.2744 9.39171 42.2008 9.06117 42.2623 8.69301C42.3824 7.94252 42.9925 7.41779 43.747 7.41779C44.1233 7.41779 44.4292 7.5428 44.6306 7.77867C44.8333 8.01696 44.9134 8.34953 44.8548 8.71607Z" fill="#179BD7"/>
<path d="M48.2635 3.77264L47.1279 10.9976C47.1057 11.1375 47.2141 11.2638 47.3553 11.2638H48.497C48.6867 11.2638 48.8478 11.1262 48.8769 10.9389L49.9968 3.84425C50.019 3.70427 49.9106 3.57764 49.7694 3.57764H48.4909C48.378 3.57804 48.2809 3.66057 48.2635 3.77264Z" fill="#179BD7"/>
<path d="M18.696 3.57812H15.9291C15.7398 3.57812 15.5787 3.71568 15.5492 3.90259L14.4302 10.9976C14.4079 11.1376 14.5163 11.2639 14.6583 11.2639H15.9793C16.1686 11.2639 16.3296 11.1263 16.3592 10.939L16.661 9.02534C16.6901 8.83802 16.8515 8.70046 17.0405 8.70046H17.9164C19.739 8.70046 20.7909 7.81849 21.0656 6.07072C21.1894 5.30607 21.0709 4.70527 20.7128 4.28451C20.3196 3.82249 19.6221 3.57812 18.696 3.57812ZM19.0152 6.16943C18.8639 7.16226 18.1053 7.16226 17.3718 7.16226H16.9543L17.2472 5.30809C17.2646 5.19602 17.3617 5.11349 17.475 5.11349H17.6664C18.166 5.11349 18.6373 5.11349 18.8809 5.39831C19.0261 5.56823 19.0706 5.82069 19.0152 6.16943Z" fill="#253B80"/>
<path d="M26.9666 6.13755H25.6416C25.5287 6.13755 25.4312 6.22008 25.4138 6.33215L25.3552 6.70274L25.2625 6.56842C24.9757 6.15211 24.336 6.01294 23.6976 6.01294C22.2334 6.01294 20.9829 7.12188 20.7393 8.67748C20.6127 9.45345 20.7927 10.1954 21.2329 10.7129C21.6367 11.1887 22.2144 11.3869 22.9018 11.3869C24.0815 11.3869 24.7357 10.6283 24.7357 10.6283L24.6767 10.9965C24.6544 11.1373 24.7629 11.2635 24.904 11.2635H26.0975C26.2873 11.2635 26.4475 11.126 26.4774 10.9387L27.1935 6.40376C27.2162 6.26418 27.1082 6.13755 26.9666 6.13755ZM25.1197 8.71632C24.9918 9.47328 24.391 9.98142 23.6248 9.98142C23.24 9.98142 22.9326 9.85803 22.7351 9.62418C22.5393 9.39196 22.4649 9.06142 22.5272 8.69325C22.6465 7.94277 23.2574 7.41803 24.012 7.41803C24.3882 7.41803 24.6941 7.54305 24.8956 7.77891C25.0974 8.01721 25.1775 8.34977 25.1197 8.71632Z" fill="#253B80"/>
<path d="M34.0234 6.13745H32.6919C32.5649 6.13745 32.4455 6.20056 32.3735 6.30616L30.5371 9.01115L29.7587 6.41175C29.7098 6.24911 29.5597 6.13745 29.3898 6.13745H28.0814C27.9224 6.13745 27.8119 6.29281 27.8625 6.4425L29.3291 10.7464L27.9503 12.6928C27.8419 12.8461 27.9511 13.0569 28.1384 13.0569H29.4682C29.5945 13.0569 29.7126 12.9954 29.7842 12.8918L34.2127 6.49955C34.3187 6.34662 34.2099 6.13745 34.0234 6.13745Z" fill="#253B80"/>
<path d="M2.93959 12.6427L3.15119 11.2987L2.67985 11.2878H0.429199L1.99329 1.37039C1.99814 1.34045 2.01392 1.31253 2.03698 1.29271C2.06004 1.27289 2.08958 1.26196 2.12033 1.26196H5.91525C7.1751 1.26196 8.04453 1.52413 8.49847 2.04158C8.71127 2.28433 8.8468 2.538 8.91235 2.81715C8.98112 3.11007 8.98234 3.46002 8.91518 3.88685L8.91032 3.918V4.1915L9.12313 4.31206C9.30236 4.40714 9.44477 4.51597 9.554 4.64058C9.73606 4.84812 9.85379 5.11191 9.90356 5.42464C9.95494 5.74628 9.93795 6.12901 9.85379 6.56231C9.7567 7.06075 9.59972 7.49486 9.38772 7.85008C9.19272 8.17738 8.94431 8.44885 8.64937 8.65923C8.36779 8.85909 8.0332 9.01081 7.65492 9.1079C7.28838 9.20338 6.87045 9.25153 6.41207 9.25153H6.11673C5.90554 9.25153 5.70042 9.32759 5.5394 9.46393C5.37797 9.6031 5.27116 9.79326 5.23839 10.0012L5.21614 10.1222L4.84231 12.491L4.82532 12.578C4.82087 12.6055 4.81318 12.6192 4.80186 12.6285C4.79174 12.637 4.77718 12.6427 4.76302 12.6427H2.93959Z" fill="#253B80"/>
<path d="M9.32492 3.94946C9.31359 4.02188 9.30065 4.09592 9.28608 4.17198C8.78562 6.74144 7.07346 7.62908 4.88672 7.62908H3.77333C3.50591 7.62908 3.28056 7.82328 3.23889 8.08706L2.66884 11.7024L2.50741 12.7271C2.48031 12.9003 2.61382 13.0565 2.78859 13.0565H4.76333C4.99717 13.0565 5.19582 12.8865 5.23264 12.6559L5.25206 12.5556L5.62386 10.1961L5.64773 10.0667C5.68414 9.83523 5.88319 9.66531 6.11704 9.66531H6.41238C8.32562 9.66531 9.82336 8.88853 10.2611 6.6407C10.444 5.70168 10.3493 4.91761 9.86543 4.36618C9.71898 4.1999 9.53732 4.06193 9.32492 3.94946Z" fill="#179BD7"/>
<path d="M8.80128 3.74067C8.72482 3.71842 8.64593 3.69819 8.56501 3.67998C8.48369 3.66218 8.40035 3.6464 8.31458 3.63265C8.01438 3.5841 7.68546 3.56104 7.33308 3.56104H4.35864C4.28541 3.56104 4.21582 3.57762 4.15352 3.60756C4.01636 3.67351 3.91441 3.80338 3.88973 3.96237L3.25698 7.9701L3.23877 8.08703C3.28044 7.82324 3.50579 7.62905 3.77321 7.62905H4.88661C7.07334 7.62905 8.7855 6.741 9.28597 4.17195C9.30093 4.09588 9.31348 4.02185 9.3248 3.94943C9.19817 3.88227 9.06102 3.82482 8.91335 3.77587C8.87694 3.76373 8.83931 3.752 8.80128 3.74067Z" fill="#222D65"/>
<path d="M3.88959 3.96249C3.91427 3.80349 4.01622 3.67362 4.15337 3.60808C4.21608 3.57814 4.28526 3.56155 4.35849 3.56155H7.33293C7.68532 3.56155 8.01424 3.58461 8.31444 3.63316C8.40021 3.64692 8.48355 3.6627 8.56487 3.6805C8.64578 3.6987 8.72467 3.71893 8.80114 3.74118C8.83917 3.75251 8.8768 3.76424 8.91361 3.77598C9.06128 3.82493 9.19843 3.88278 9.32507 3.94954C9.47395 3 9.32385 2.35349 8.81045 1.76807C8.24444 1.12358 7.22289 0.847656 5.9157 0.847656H2.12078C1.85376 0.847656 1.62599 1.04185 1.58472 1.30604L0.00404124 11.3254C-0.0271111 11.5236 0.125819 11.7024 0.325679 11.7024H2.66858L3.25683 7.97022L3.88959 3.96249Z" fill="#253B80"/>
</g>
</g>
<defs>
<clipPath id="clip0_1121_524">
<rect width="50" height="14" fill="white"/>
</clipPath>
<clipPath id="clip1_1121_524">
<rect width="50" height="50" fill="white" transform="translate(0 -18)"/>
</clipPath>
</defs>
</svg>
