<svg width="20" height="20" viewBox="0 0 20 20" fill="none" xmlns="http://www.w3.org/2000/svg">
<path d="M1.5 6.49988L3 3.99988C3.33333 3.66655 4.2 3.09988 5 3.49988C5.8 3.89988 6 4.33322 6 4.49988L7 4.99988V5.99988V7.49988C7 7.99988 7.1 9.09988 7.5 9.49988C7.9 9.89988 8.66667 10.9999 9 11.4999L10.5 12.9999L12.5 12.4999H14L15.5 13.9999L16 14.4999L16.5 15.9999L14.5 18.4999L8.5 16.4999L4 12.4999L2 8.49988L1.5 6.49988Z" fill="#F9C337"/>
<path d="M10.8249 2.29175C11.5423 2.29175 11.8598 2.29238 12.1216 2.31582C15.0327 2.57646 17.3398 4.88355 17.6004 7.79465C17.6239 8.05648 17.6245 8.37398 17.6245 9.09137V9.91633C17.6245 10.2615 17.9043 10.5413 18.2495 10.5413C18.5947 10.5413 18.8745 10.2615 18.8745 9.91633V9.04934C18.8745 8.38526 18.8745 8.00786 18.8455 7.68318C18.5309 4.16979 15.7465 1.38536 12.2331 1.0708C11.9084 1.04173 11.531 1.04174 10.8668 1.04175H9.99993C9.65475 1.04175 9.37493 1.32157 9.37493 1.66675C9.37493 2.01193 9.65475 2.29175 9.99993 2.29175L10.8249 2.29175Z" fill="#292826"/>
<path fill-rule="evenodd" clip-rule="evenodd" d="M5.92636 3.3545C5.04962 2.54889 3.702 2.54889 2.82525 3.3545C2.78935 3.38749 2.75102 3.42582 2.70125 3.4756L1.95333 4.22353C1.20074 4.97612 0.884805 6.06105 1.11569 7.10004C2.42567 12.9949 7.02944 17.5987 12.9243 18.9087C13.9633 19.1396 15.0482 18.8236 15.8008 18.071L16.5487 17.3232C16.5985 17.2734 16.6369 17.235 16.6699 17.1991C17.4755 16.3224 17.4755 14.9747 16.6699 14.098C16.6369 14.0621 16.5985 14.0237 16.5487 13.9739L15.3243 12.7495C14.4742 11.8995 13.1904 11.6563 12.0884 12.1367C11.4575 12.4117 10.7225 12.2725 10.2358 11.7859L8.2385 9.78853C7.75183 9.30186 7.61264 8.5669 7.88766 7.93598C8.36804 6.83393 8.12491 5.55016 7.27483 4.70007L6.05039 3.47562C6.00061 3.42584 5.96227 3.38749 5.92636 3.3545ZM3.67101 4.27493C4.06953 3.90874 4.68209 3.90874 5.08061 4.27493C5.09436 4.28757 5.11239 4.3054 5.17578 4.36879L6.39095 5.58395C6.87762 6.07062 7.0168 6.80558 6.74179 7.4365C6.2614 8.53855 6.50453 9.82233 7.35461 10.6724L9.35196 12.6698C10.202 13.5198 11.4858 13.763 12.5879 13.2826C13.2188 13.0076 13.9537 13.1468 14.4404 13.6334L15.6556 14.8486C15.719 14.912 15.7368 14.93 15.7494 14.9438C16.1156 15.3423 16.1156 15.9548 15.7494 16.3534C15.7368 16.3671 15.719 16.3851 15.6556 16.4485L14.917 17.1871C14.4666 17.6375 13.8173 17.8266 13.1955 17.6884C7.77438 16.4838 3.54061 12.25 2.33592 6.82888C2.19775 6.20709 2.38682 5.55781 2.83722 5.10741L3.57583 4.36879C3.63922 4.3054 3.65726 4.28757 3.67101 4.27493Z" fill="#292826"/>
<path d="M10.5891 3.98803C10.2439 3.98803 9.96409 4.26785 9.96409 4.61303C9.96409 4.95821 10.2439 5.23803 10.5891 5.23803H11.0605C11.0696 5.23803 11.078 5.23803 11.0858 5.23803C11.1406 5.23804 11.166 5.23809 11.1872 5.23839C13.1035 5.26584 14.6503 6.81266 14.6778 8.72898C14.6781 8.75321 14.6781 8.78297 14.6781 8.85567V9.32707C14.6781 9.67225 14.958 9.95207 15.3031 9.95207C15.6483 9.95207 15.9281 9.67225 15.9281 9.32707V8.84962C15.9281 8.84152 15.9281 8.83382 15.9281 8.82648C15.9281 8.77508 15.9281 8.74115 15.9276 8.71107C15.8905 6.11842 13.7977 4.02565 11.2051 3.98852C11.1707 3.98803 11.1313 3.98803 11.0665 3.98803H10.5891Z" fill="#292826"/>
</svg>
