<svg width="15" height="22" viewBox="0 0 15 22" fill="none" xmlns="http://www.w3.org/2000/svg">
<path fill-rule="evenodd" clip-rule="evenodd" d="M8.99065 1.02443C8.79992 1.05475 8.42124 1.20621 8.22868 1.32918C7.81061 1.59618 7.45401 2.11096 7.35359 2.59249C7.11273 3.74752 7.89134 4.86273 9.05528 5.02982C9.99348 5.16447 10.9208 4.59205 11.2428 3.67953C11.4941 2.96726 11.2923 2.12237 10.7413 1.57993C10.2914 1.13685 9.62113 0.924202 8.99065 1.02443ZM9.86043 1.77519C10.1026 1.87967 10.4174 2.17669 10.5478 2.42372C10.6408 2.59987 10.6514 2.66173 10.6514 3.03017C10.6514 3.38451 10.639 3.46363 10.5607 3.6104C10.2612 4.1716 9.65907 4.47588 9.08115 4.35811C8.62573 4.26527 8.29546 4.00475 8.09719 3.58192C8.00978 3.39549 7.99427 3.30917 7.99438 3.01063C7.9945 2.70213 8.00802 2.63258 8.10454 2.44404C8.28796 2.08576 8.57235 1.8447 8.96275 1.71669C9.18392 1.64417 9.62301 1.67277 9.86043 1.77519ZM5.3371 5.57965L3.65686 6.21482L3.4405 6.42973C3.23144 6.63742 3.19702 6.7051 2.41739 8.44211C1.97365 9.43072 1.5895 10.3241 1.56371 10.4275C1.46395 10.8273 1.64049 11.3998 1.94633 11.6683C2.28695 11.9674 2.81787 12.09 3.2128 11.9609C3.48696 11.8712 3.73634 11.6939 3.88498 11.4831C3.95215 11.3878 4.2712 10.7194 4.59396 9.9979C4.91673 9.27637 5.19838 8.68391 5.21987 8.6813C5.24136 8.67872 5.26434 8.71447 5.27095 8.76077C5.27755 8.80708 4.92083 10.1259 4.47822 11.6914C3.8445 13.933 3.65014 14.5711 3.56362 14.6942C2.03964 16.8622 1.154 18.1506 1.08577 18.2987C1.01595 18.4504 1.0002 18.5562 1 18.8752C0.999769 19.2317 1.01036 19.2883 1.12075 19.52C1.33855 19.977 1.69668 20.2596 2.18817 20.362C2.6543 20.4592 3.14552 20.3299 3.49102 20.0189C3.56906 19.9487 4.26952 19.0384 5.04763 17.9961C6.41722 16.1614 6.47087 16.0828 6.7294 15.5343C6.87624 15.2227 7.04583 14.8648 7.10624 14.739L7.21612 14.5103L7.80874 15.0628L8.40135 15.6153L8.41272 17.7337L8.42406 19.8521L8.54531 20.108C8.75663 20.5539 9.06087 20.8172 9.51614 20.9481C10.1785 21.1385 10.9324 20.7902 11.2478 20.148L11.3547 19.9303L11.3656 17.448L11.3764 14.9658L11.287 14.7909C11.2378 14.6947 10.6777 13.9039 10.0422 13.0335C9.40672 12.1631 8.87452 11.4299 8.85951 11.4041C8.83072 11.3547 9.20838 10.0007 9.27426 9.91721C9.29548 9.89037 9.351 9.86837 9.39762 9.86837C9.44428 9.86837 10.1572 10.2278 10.982 10.6671C11.8131 11.1098 12.5678 11.4865 12.6749 11.5122C13.1507 11.6264 13.6471 11.4694 13.9872 11.0974C14.2611 10.7977 14.3564 10.5297 14.3355 10.1177C14.3157 9.72625 14.1804 9.43072 13.911 9.19041C13.792 9.08432 13.1904 8.74608 12.1707 8.21196C11.3136 7.76298 10.5906 7.37868 10.5642 7.35789C10.5377 7.33714 10.3883 7.07244 10.232 6.76973C9.82421 5.9795 9.84191 5.99381 8.58005 5.43597C7.64114 5.02095 7.49742 4.96835 7.27133 4.9571C7.02531 4.94483 6.96447 4.96444 5.3371 5.57965ZM8.31468 6.0523L9.32279 6.49546L9.64622 7.09757C9.82409 7.42873 10.0263 7.75493 10.0956 7.8225C10.1664 7.89154 10.9142 8.30832 11.8041 8.77472C12.6745 9.23089 13.4193 9.63282 13.4592 9.66787C13.4991 9.70292 13.565 9.79686 13.6057 9.87657C13.8616 10.378 13.4329 10.9623 12.8754 10.8718C12.8008 10.8597 12.0589 10.4852 11.2267 10.0395C9.77005 9.25949 9.70405 9.22866 9.45955 9.21366C9.2482 9.20069 9.17657 9.21362 9.03281 9.29052C8.72607 9.45468 8.65566 9.58444 8.39854 10.46C8.15127 11.302 8.13572 11.4496 8.26736 11.7041C8.30007 11.7674 8.86346 12.554 9.5193 13.452L10.7117 15.0848L10.7011 17.4551L10.6904 19.8254L10.5696 19.9755C10.4034 20.1819 10.2286 20.2927 10.0194 20.3241C9.68979 20.3735 9.35194 20.2053 9.18603 19.9092L9.08834 19.7349L9.0688 17.5858C9.05133 15.6646 9.04227 15.4238 8.98319 15.316C8.92692 15.2133 8.43746 14.7345 7.45983 13.8258C7.20698 13.5907 7.06748 13.561 6.90406 13.7075C6.8476 13.7581 6.61385 14.2068 6.35322 14.7649L5.90045 15.7344L4.48068 17.637C2.90477 19.7487 2.93119 19.721 2.49921 19.7209C2.23916 19.7209 2.12397 19.6784 1.93574 19.5132C1.67187 19.2815 1.56925 18.8762 1.69723 18.5712C1.72626 18.502 2.28988 17.6755 2.94979 16.7345C3.60965 15.7935 4.18289 14.9671 4.22365 14.898C4.33618 14.7071 5.94277 8.99964 5.94277 8.79067C5.94277 8.31555 5.57472 7.95367 5.09147 7.95367C4.9027 7.95367 4.84737 7.96958 4.7777 8.0437C4.73116 8.09325 4.40687 8.7759 4.05699 9.56077C3.70715 10.3456 3.389 11.0364 3.34996 11.096C3.25266 11.2445 2.96397 11.3675 2.77301 11.3419C2.43114 11.2961 2.15945 10.9685 2.20177 10.6532C2.23315 10.4193 3.77463 7.01496 3.90237 6.89758C3.9713 6.8342 4.4504 6.63261 5.24004 6.33466C5.91667 6.07938 6.61975 5.81277 6.80243 5.74224C6.98511 5.67171 7.17325 5.6129 7.22057 5.61157C7.26785 5.61024 7.7602 5.80859 8.31468 6.0523Z" fill="white" stroke="white" stroke-width="0.5"/>
</svg>
