<svg width="17" height="18" viewBox="0 0 17 18" fill="none" xmlns="http://www.w3.org/2000/svg">
<path d="M13.9233 13.2376C13.6304 12.9447 13.1555 12.9447 12.8626 13.2376C12.5697 13.5305 12.5697 14.0053 12.8626 14.2982L13.9233 13.2376ZM15.7197 17.1553C16.0126 17.4482 16.4874 17.4482 16.7803 17.1553C17.0732 16.8624 17.0732 16.3876 16.7803 16.0947L15.7197 17.1553ZM12.8626 14.2982L15.7197 17.1553L16.7803 16.0947L13.9233 13.2376L12.8626 14.2982ZM7.67858 13.7321C4.54239 13.7321 2 11.1897 2 8.05356H0.5C0.5 12.0182 3.71396 15.2321 7.67858 15.2321V13.7321ZM13.3572 8.05356C13.3572 11.1897 10.8148 13.7321 7.67858 13.7321V15.2321C11.6432 15.2321 14.8572 12.0182 14.8572 8.05356H13.3572ZM7.67858 2.375C10.8148 2.375 13.3572 4.91738 13.3572 8.05356H14.8572C14.8572 4.08895 11.6432 0.875 7.67858 0.875V2.375ZM7.67858 0.875C3.71396 0.875 0.5 4.08895 0.5 8.05356H2C2 4.91738 4.54239 2.375 7.67858 2.375V0.875Z" fill="#292826"/>
</svg>
