<svg width="20" height="20" viewBox="0 0 20 20" fill="none" xmlns="http://www.w3.org/2000/svg">
<path d="M12.5 5.5H6.5V5L7 4L7.5 3L8.5 2V1.5H10H10.5L11.5 2L13 3V4.5L12.5 5.5Z" fill="#FACB52"/>
<path fill-rule="evenodd" clip-rule="evenodd" d="M9.99988 0.833496C7.81375 0.833496 6.04154 2.6057 6.04154 4.79183V5.15495C5.72434 5.21757 5.43114 5.30696 5.14956 5.43604C4.31169 5.82014 3.60239 6.43774 3.10668 7.2148C2.80665 7.68512 2.62861 8.21124 2.48876 8.85306C2.35174 9.48187 2.24286 10.2658 2.10434 11.2632L2.09667 11.3184C1.91841 12.6018 1.77906 13.6051 1.73674 14.4132C1.69377 15.2337 1.74575 15.9175 1.99259 16.5453C2.39602 17.5713 3.14093 18.4268 4.10169 18.9675C4.68951 19.2984 5.35963 19.4439 6.17826 19.5143C6.98453 19.5835 7.99744 19.5835 9.29316 19.5835H10.7066C12.0023 19.5835 13.0152 19.5835 13.8215 19.5143C14.6401 19.4439 15.3102 19.2984 15.8981 18.9675C16.8588 18.4268 17.6037 17.5713 18.0072 16.5453C18.254 15.9175 18.306 15.2337 18.263 14.4132C18.2207 13.6051 18.0813 12.6017 17.9031 11.3183L17.8954 11.2631C17.7569 10.2658 17.648 9.48186 17.511 8.85306C17.3711 8.21124 17.1931 7.68512 16.8931 7.2148C16.3974 6.43774 15.6881 5.82014 14.8502 5.43604C14.5686 5.30696 14.2754 5.21757 13.9582 5.15495V4.79183C13.9582 2.6057 12.186 0.833496 9.99988 0.833496ZM6.66654 9.5835C6.32136 9.5835 6.04154 9.30367 6.04154 8.9585V6.43818C5.90581 6.4758 5.78413 6.52023 5.67046 6.57234C5.05117 6.85623 4.5269 7.31272 4.16051 7.88707C3.97137 8.18355 3.83406 8.55032 3.7101 9.1192C3.58447 9.69571 3.48175 10.4322 3.3389 11.4607C3.15565 12.7801 3.02422 13.7304 2.98503 14.4786C2.94617 15.2207 3.00311 15.6993 3.15589 16.0878C3.45408 16.8462 4.00466 17.4785 4.71479 17.8782C5.07861 18.083 5.54486 18.2052 6.28523 18.2688C7.03174 18.333 7.99105 18.3335 9.32313 18.3335H10.6766C12.0087 18.3335 12.968 18.333 13.7145 18.2688C14.4549 18.2052 14.9211 18.083 15.285 17.8782C15.9951 17.4785 16.5457 16.8462 16.8439 16.0878C16.9966 15.6993 17.0536 15.2207 17.0147 14.4786C16.9755 13.7304 16.8441 12.7801 16.6608 11.4607C16.518 10.4322 16.4153 9.69571 16.2897 9.1192C16.1657 8.55032 16.0284 8.18355 15.8392 7.88707C15.4729 7.31272 14.9486 6.85623 14.3293 6.57234C14.2156 6.52023 14.0939 6.4758 13.9582 6.43818V8.9585C13.9582 9.30367 13.6784 9.5835 13.3332 9.5835C12.988 9.5835 12.7082 9.30367 12.7082 8.9585V6.27515C12.18 6.25059 11.5281 6.25016 10.6766 6.25016H9.32313C8.47167 6.25016 7.81975 6.25059 7.29154 6.27515V8.9585C7.29154 9.30367 7.01172 9.5835 6.66654 9.5835ZM10.7144 5.00016C11.4976 5.00016 12.1516 5.00015 12.7082 5.02404V4.79183C12.7082 3.29606 11.4956 2.0835 9.99988 2.0835C8.50411 2.0835 7.29154 3.29606 7.29154 4.79183V5.02404C7.84811 5.00015 8.50217 5.00016 9.28538 5.00016H10.7144Z" fill="black"/>
</svg>
