<svg width="24" height="20" viewBox="0 0 24 20" fill="none" xmlns="http://www.w3.org/2000/svg">
<path d="M17 18L15 18.4995V9.49951L23 5.5V14.5L20.5 16L17 18Z" fill="#FFC801"/>
<path fill-rule="evenodd" clip-rule="evenodd" d="M2.59616 0.0708826C2.1364 0.233542 1.96964 0.830882 2.28076 1.2006C2.52147 1.48673 2.41751 1.47696 5.22334 1.47696C7.29683 1.47696 7.81501 1.46483 7.93811 1.41338C8.23982 1.28733 8.42005 0.912074 8.33342 0.590259C8.26961 0.353324 8.043 0.106338 7.83686 0.0490748C7.73142 0.0197979 6.74739 0.0027851 5.22417 0.00384552C3.23827 0.00532089 2.74605 0.0178615 2.59616 0.0708826ZM9.99644 0.104309C9.69279 0.257886 9.56844 0.467296 9.59085 0.787451C9.61053 1.06952 9.70551 1.23394 9.92691 1.36935C10.0463 1.44233 10.2026 1.45704 11.0708 1.47696L12.0764 1.50001L9.34188 3.07893L6.60733 4.65785L3.55967 4.65804L0.51202 4.65822L0.359596 4.76196C0.138936 4.91212 0.0303579 5.08059 0.00412401 5.31338C-0.0259828 5.58051 0.110812 5.85526 0.347101 6.00215L0.521426 6.11054L3.59508 6.12331L6.66869 6.13608L10.3726 8.27532L14.0764 10.4145L14.0882 14.1964L14.1 17.9783L13.4427 17.5969C10.0177 15.6092 7.17889 13.9893 7.03182 13.9386C6.88728 13.8888 6.23858 13.8793 3.68697 13.8896C0.587679 13.9021 0.51806 13.9043 0.360103 13.9971C0.121093 14.1375 -0.0170383 14.403 0.00592211 14.678C0.0265773 14.9261 0.131144 15.0955 0.359596 15.2509L0.51202 15.3547L3.55967 15.3547H6.60733L10.5724 17.6453C12.7823 18.922 14.6205 19.9551 14.725 19.9794C14.8775 20.0148 14.9509 20.006 15.1169 19.9322C15.4088 19.8025 23.0804 15.3711 23.2744 15.2201C23.6208 14.9505 23.597 15.3352 23.597 10.0064C23.597 4.67768 23.6208 5.06261 23.2744 4.79257C23.1413 4.68888 16.8809 1.05546 15.4601 0.257425L15.0458 0.024639L12.6246 0.0120984L10.2035 -0.000488281L9.99644 0.104309ZM18.1567 3.51444C19.9191 4.53083 21.3663 5.36659 21.3727 5.37161C21.3911 5.38613 14.8917 9.13044 14.8481 9.13044C14.779 9.13044 8.37989 5.42044 8.37828 5.37945C8.3756 5.31301 14.8088 1.6179 14.8832 1.64307C14.9213 1.65594 16.3943 2.49805 18.1567 3.51444ZM22.1105 10.4538L22.0987 14.2206L18.9636 16.0343C17.2392 17.0318 15.7713 17.8788 15.7016 17.9165L15.5748 17.985V14.2112V10.4374L18.8137 8.56496C20.5951 7.53515 22.0683 6.69128 22.0875 6.68971C22.1066 6.68815 22.117 8.38196 22.1105 10.4538ZM2.53531 9.34556C2.45107 9.38748 2.32659 9.49462 2.25867 9.5837C2.08195 9.81538 2.08223 10.1979 2.25932 10.43C2.50607 10.7536 2.46168 10.7483 4.8272 10.7339C6.89498 10.7214 6.94961 10.7187 7.07659 10.6246C7.5292 10.2891 7.5292 9.72377 7.07659 9.38826C6.94952 9.29407 6.8965 9.29153 4.81743 9.2806C2.91604 9.2706 2.67201 9.27756 2.53531 9.34556Z" fill="#292826"/>
</svg>
