<svg width="20" height="20" viewBox="0 0 20 20" fill="none" xmlns="http://www.w3.org/2000/svg">
<circle cx="9.5" cy="7.5" r="3.5" fill="#F9C337"/>
<path d="M12.8332 7.50008C12.8332 9.06489 11.5646 10.3334 9.99984 10.3334V11.3334C12.1169 11.3334 13.8332 9.61717 13.8332 7.50008H12.8332ZM9.99984 10.3334C8.43503 10.3334 7.1665 9.06489 7.1665 7.50008H6.1665C6.1665 9.61717 7.88275 11.3334 9.99984 11.3334V10.3334ZM7.1665 7.50008C7.1665 5.93527 8.43503 4.66675 9.99984 4.66675V3.66675C7.88275 3.66675 6.1665 5.38299 6.1665 7.50008H7.1665ZM9.99984 4.66675C11.5646 4.66675 12.8332 5.93527 12.8332 7.50008H13.8332C13.8332 5.38299 12.1169 3.66675 9.99984 3.66675V4.66675ZM7.49984 13.8334H12.4998V12.8334H7.49984V13.8334ZM2.1665 10.0001C2.1665 5.67385 5.67361 2.16675 9.99984 2.16675V1.16675C5.12132 1.16675 1.1665 5.12157 1.1665 10.0001H2.1665ZM9.99984 2.16675C14.3261 2.16675 17.8332 5.67385 17.8332 10.0001H18.8332C18.8332 5.12157 14.8784 1.16675 9.99984 1.16675V2.16675ZM17.8332 10.0001C17.8332 12.2216 16.9091 14.2264 15.423 15.6526L16.1154 16.3741C17.7898 14.7672 18.8332 12.505 18.8332 10.0001H17.8332ZM15.423 15.6526C14.015 17.0038 12.1048 17.8334 9.99984 17.8334V18.8334C12.3731 18.8334 14.5287 17.8968 16.1154 16.3741L15.423 15.6526ZM12.4998 13.8334C13.874 13.8334 15.0207 14.8122 15.2788 16.1108L16.2596 15.9159C15.9103 14.1583 14.3603 12.8334 12.4998 12.8334V13.8334ZM9.99984 17.8334C7.89484 17.8334 5.98466 17.0038 4.57672 15.6526L3.88431 16.3741C5.47099 17.8968 7.62656 18.8334 9.99984 18.8334V17.8334ZM4.57672 15.6526C3.0906 14.2264 2.1665 12.2216 2.1665 10.0001H1.1665C1.1665 12.505 2.20984 14.7672 3.88431 16.3741L4.57672 15.6526ZM7.49984 12.8334C5.63934 12.8334 4.0894 14.1583 3.74011 15.9159L4.72092 16.1108C4.97902 14.8122 6.12568 13.8334 7.49984 13.8334V12.8334Z" fill="#292826"/>
</svg>
