<svg width="25" height="21" viewBox="0 0 25 21" fill="none" xmlns="http://www.w3.org/2000/svg">
<path d="M15.6037 10.2255L17.0236 8.71083C17.127 9.12315 17.1875 9.55423 17.1875 10.0009C17.1875 12.7583 15.0848 15.0014 12.5 15.0014C12.0812 15.0014 11.6771 14.9368 11.2906 14.8266L12.7105 13.3119C14.2631 13.1989 15.4979 11.8817 15.6037 10.2255ZM24.9016 9.59611C24.8055 9.41172 23.4426 6.8642 20.7785 4.70526L19.6416 5.91808C21.5842 7.44176 22.815 9.21879 23.2996 10.0022C22.3736 11.5063 18.7412 16.6682 12.5 16.6682C11.5641 16.6682 10.6937 16.5405 9.8748 16.3367L8.59102 17.7062C9.77129 18.0923 11.0686 18.335 12.5 18.335C20.6783 18.335 24.733 10.7293 24.9016 10.4058C25.0328 10.1539 25.0328 9.84801 24.9016 9.59611ZM21.6461 1.42268L4.45859 19.7576C4.30605 19.9204 4.10605 20.0018 3.90625 20.0018C3.70645 20.0018 3.50645 19.9204 3.35391 19.7576C3.04863 19.432 3.04863 18.9047 3.35391 18.5792L5.54063 16.2465C2.00547 13.9698 0.20918 10.6185 0.0984375 10.4058C-0.0328125 10.1539 -0.0328125 9.8478 0.0984375 9.59591C0.266992 9.27254 4.32168 1.66687 12.5 1.66687C14.6146 1.66687 16.4463 2.1815 18.0121 2.9424L20.5414 0.24424C20.8467 -0.0814135 21.341 -0.0814135 21.6461 0.24424C21.9512 0.569894 21.9514 1.09723 21.6461 1.42268ZM6.70566 15.0037L8.68359 12.8937C8.1373 12.0761 7.8125 11.0792 7.8125 10.0009C7.8125 7.24361 9.91523 5.0005 12.5 5.0005C13.5107 5.0005 14.4453 5.34699 15.2117 5.92954L16.8111 4.22334C15.5475 3.6835 14.1115 3.33368 12.5 3.33368C6.25879 3.33368 2.62637 8.4956 1.70059 9.99969C2.28848 10.9502 3.97832 13.3562 6.70566 15.0037ZM9.81777 11.6836L14.0773 7.13964C13.6127 6.84691 13.0777 6.66731 12.5 6.66731C10.777 6.66731 9.375 8.16286 9.375 10.0009C9.375 10.6172 9.54336 11.1879 9.81777 11.6836Z" fill="black"/>
</svg>
