<svg width="966" height="174" viewBox="0 0 966 174" fill="none" xmlns="http://www.w3.org/2000/svg">
<g clip-path="url(#clip0_1280_524)">
<path d="M116.58 3.852V126H86.826V75.714H40.542V126H10.788V3.852H40.542V51.702H86.826V3.852H116.58ZM237.239 28.908L176.339 172.11H144.323L166.595 122.694L127.097 28.908H160.331L182.777 89.634L205.049 28.908H237.239ZM277.753 42.654C280.653 38.13 284.655 34.476 289.759 31.692C294.863 28.908 300.837 27.516 307.681 27.516C315.685 27.516 322.935 29.546 329.431 33.606C335.927 37.666 341.031 43.466 344.743 51.006C348.571 58.546 350.485 67.304 350.485 77.28C350.485 87.256 348.571 96.072 344.743 103.728C341.031 111.268 335.927 117.126 329.431 121.302C322.935 125.362 315.685 127.392 307.681 127.392C300.953 127.392 294.979 126 289.759 123.216C284.655 120.432 280.653 116.836 277.753 112.428V172.284H247.999V28.908H277.753V42.654ZM320.209 77.28C320.209 69.856 318.121 64.056 313.945 59.88C309.885 55.588 304.839 53.442 298.807 53.442C292.891 53.442 287.845 55.588 283.669 59.88C279.609 64.172 277.579 70.03 277.579 77.454C277.579 84.878 279.609 90.736 283.669 95.028C287.845 99.32 292.891 101.466 298.807 101.466C304.723 101.466 309.769 99.32 313.945 95.028C318.121 90.62 320.209 84.704 320.209 77.28ZM457.619 75.888C457.619 78.672 457.445 81.572 457.097 84.588H389.759C390.223 90.62 392.137 95.26 395.501 98.508C398.981 101.64 403.215 103.206 408.203 103.206C415.627 103.206 420.789 100.074 423.689 93.81H455.357C453.733 100.19 450.775 105.932 446.483 111.036C442.307 116.14 437.029 120.142 430.649 123.042C424.269 125.942 417.135 127.392 409.247 127.392C399.735 127.392 391.267 125.362 383.843 121.302C376.419 117.242 370.619 111.442 366.443 103.902C362.267 96.362 360.179 87.546 360.179 77.454C360.179 67.362 362.209 58.546 366.269 51.006C370.445 43.466 376.245 37.666 383.669 33.606C391.093 29.546 399.619 27.516 409.247 27.516C418.643 27.516 426.995 29.488 434.303 33.432C441.611 37.376 447.295 43.002 451.355 50.31C455.531 57.618 457.619 66.144 457.619 75.888ZM427.169 68.058C427.169 62.954 425.429 58.894 421.949 55.878C418.469 52.862 414.119 51.354 408.899 51.354C403.911 51.354 399.677 52.804 396.197 55.704C392.833 58.604 390.745 62.722 389.933 68.058H427.169Z" fill="#F9C337"/>
<path d="M513.335 127.218C505.331 127.218 498.255 125.826 492.107 123.042C486.075 120.258 481.319 116.372 477.839 111.384C474.359 106.396 472.503 100.828 472.271 94.68H485.147C485.727 100.596 488.337 105.816 492.977 110.34C497.617 114.748 504.403 116.952 513.335 116.952C521.571 116.952 528.067 114.864 532.823 110.688C537.695 106.396 540.131 101.002 540.131 94.506C540.131 89.286 538.797 85.11 536.129 81.978C533.461 78.73 530.155 76.352 526.211 74.844C522.267 73.22 516.815 71.48 509.855 69.624C501.735 67.42 495.297 65.274 490.541 63.186C485.785 61.098 481.725 57.85 478.361 53.442C474.997 49.034 473.315 43.06 473.315 35.52C473.315 29.256 474.939 23.688 478.187 18.816C481.435 13.828 486.017 9.94199 491.933 7.158C497.849 4.374 504.635 2.982 512.291 2.982C523.543 2.982 532.591 5.766 539.435 11.334C546.395 16.786 550.397 23.862 551.441 32.562H538.217C537.405 27.574 534.679 23.166 530.039 19.338C525.399 15.394 519.135 13.422 511.247 13.422C503.939 13.422 497.849 15.394 492.977 19.338C488.105 23.166 485.669 28.444 485.669 35.172C485.669 40.276 487.003 44.394 489.671 47.526C492.339 50.658 495.645 53.036 499.589 54.66C503.649 56.284 509.101 58.024 515.945 59.88C523.833 62.084 530.213 64.288 535.085 66.492C539.957 68.58 544.075 71.828 547.439 76.236C550.803 80.644 552.485 86.56 552.485 93.984C552.485 99.668 550.977 105.062 547.961 110.166C544.945 115.27 540.479 119.388 534.563 122.52C528.647 125.652 521.571 127.218 513.335 127.218ZM591.856 41.262V100.248C591.856 106.048 592.958 110.05 595.162 112.254C597.366 114.458 601.252 115.56 606.82 115.56H617.956V126H604.906C596.322 126 589.942 124.028 585.766 120.084C581.59 116.024 579.502 109.412 579.502 100.248V41.262H566.278V30.996H579.502V7.158H591.856V30.996H617.956V41.262H591.856ZM650.223 47.874C652.891 41.958 656.951 37.376 662.403 34.128C667.971 30.88 674.757 29.256 682.761 29.256V41.958H679.455C670.639 41.958 663.563 44.336 658.227 49.092C652.891 53.848 650.223 61.794 650.223 72.93V126H638.043V30.996H650.223V47.874ZM787.04 73.626C787.04 77.802 786.924 80.992 786.692 83.196H707.87C708.218 90.388 709.958 96.536 713.09 101.64C716.222 106.744 720.34 110.63 725.444 113.298C730.548 115.85 736.116 117.126 742.148 117.126C750.036 117.126 756.648 115.212 761.984 111.384C767.436 107.556 771.032 102.394 772.772 95.898H785.648C783.328 105.178 778.34 112.776 770.684 118.692C763.144 124.492 753.632 127.392 742.148 127.392C733.216 127.392 725.212 125.42 718.136 121.476C711.06 117.416 705.492 111.732 701.432 104.424C697.488 97 695.516 88.358 695.516 78.498C695.516 68.638 697.488 59.996 701.432 52.572C705.376 45.148 710.886 39.464 717.962 35.52C725.038 31.576 733.1 29.604 742.148 29.604C751.196 29.604 759.084 31.576 765.812 35.52C772.656 39.464 777.876 44.8 781.472 51.528C785.184 58.14 787.04 65.506 787.04 73.626ZM774.686 73.278C774.802 66.202 773.352 60.17 770.336 55.182C767.436 50.194 763.434 46.424 758.33 43.872C753.226 41.32 747.658 40.044 741.626 40.044C732.578 40.044 724.864 42.944 718.484 48.744C712.104 54.544 708.566 62.722 707.87 73.278H774.686ZM895.28 73.626C895.28 77.802 895.164 80.992 894.932 83.196H816.11C816.458 90.388 818.198 96.536 821.33 101.64C824.462 106.744 828.58 110.63 833.684 113.298C838.788 115.85 844.356 117.126 850.388 117.126C858.276 117.126 864.888 115.212 870.224 111.384C875.676 107.556 879.272 102.394 881.012 95.898H893.888C891.568 105.178 886.58 112.776 878.924 118.692C871.384 124.492 861.872 127.392 850.388 127.392C841.456 127.392 833.452 125.42 826.376 121.476C819.3 117.416 813.732 111.732 809.672 104.424C805.728 97 803.756 88.358 803.756 78.498C803.756 68.638 805.728 59.996 809.672 52.572C813.616 45.148 819.126 39.464 826.202 35.52C833.278 31.576 841.34 29.604 850.388 29.604C859.436 29.604 867.324 31.576 874.052 35.52C880.896 39.464 886.116 44.8 889.712 51.528C893.424 58.14 895.28 65.506 895.28 73.626ZM882.926 73.278C883.042 66.202 881.592 60.17 878.576 55.182C875.676 50.194 871.674 46.424 866.57 43.872C861.466 41.32 855.898 40.044 849.866 40.044C840.818 40.044 833.104 42.944 826.724 48.744C820.344 54.544 816.806 62.722 816.11 73.278H882.926ZM933.399 41.262V100.248C933.399 106.048 934.501 110.05 936.705 112.254C938.909 114.458 942.795 115.56 948.363 115.56H959.499V126H946.449C937.865 126 931.485 124.028 927.309 120.084C923.133 116.024 921.045 109.412 921.045 100.248V41.262H907.821V30.996H921.045V7.158H933.399V30.996H959.499V41.262H933.399Z" fill="#EDEDED"/>
</g>
<defs>
<clipPath id="clip0_1280_524">
<rect width="966" height="174" fill="white"/>
</clipPath>
</defs>
</svg>
