<svg width="25" height="17" viewBox="0 0 25 17" fill="none" xmlns="http://www.w3.org/2000/svg">
<path d="M12.5 16.5C20.6783 16.5 24.733 9.37031 24.9016 9.06699C25.0328 8.83086 25.0328 8.54395 24.9016 8.30781C24.733 8.00469 20.6783 0.875 12.5 0.875C4.32168 0.875 0.266992 8.00469 0.0984371 8.30801C-0.0328129 8.54414 -0.0328129 8.83105 0.0984371 9.06719C0.266992 9.37031 4.32168 16.5 12.5 16.5ZM23.2994 8.68633C22.3701 10.0947 18.7215 14.9375 12.5 14.9375C6.25879 14.9375 2.62637 10.0986 1.70059 8.68867C2.62988 7.28027 6.27852 2.4375 12.5 2.4375C18.7412 2.4375 22.3736 7.27637 23.2994 8.68633ZM12.5 13.375C15.0848 13.375 17.1875 11.2723 17.1875 8.6875C17.1875 6.10273 15.0848 4 12.5 4C9.91523 4 7.8125 6.10273 7.8125 8.6875C7.8125 11.2723 9.91523 13.375 12.5 13.375ZM12.5 5.5625C14.223 5.5625 15.625 6.96445 15.625 8.6875C15.625 10.4105 14.223 11.8125 12.5 11.8125C10.777 11.8125 9.375 10.4105 9.375 8.6875C9.375 6.96445 10.777 5.5625 12.5 5.5625Z" fill="black"/>
</svg>
