<svg width="48" height="48" viewBox="0 0 48 48" fill="none" xmlns="http://www.w3.org/2000/svg">
<path d="M24 28.4988C29.5228 28.4988 34 24.1338 34 18.7494C34 13.365 29.5228 9 24 9C18.4772 9 14 13.365 14 18.7494C14 24.1338 18.4772 28.4988 24 28.4988Z" stroke="#292D32" stroke-width="2" stroke-linecap="round" stroke-linejoin="round"/>
<path d="M17.3629 26.2789L17.3481 37.3482C17.3481 38.6981 18.2815 39.3581 19.437 38.8031L23.4074 36.8983C23.7333 36.7333 24.2815 36.7333 24.6074 36.8983L28.5926 38.8031C29.7333 39.3431 30.6815 38.6981 30.6815 37.3482V26.0089" stroke="#292D32" stroke-width="2" stroke-linecap="round" stroke-linejoin="round"/>
<path d="M22 20.5556C22 21.4178 22.5988 22.1111 23.3333 22.1111H24.8343C25.473 22.1111 25.992 21.5067 25.992 20.7511C25.992 19.9422 25.6727 19.6489 25.2016 19.4622L22.7984 18.5289C22.3273 18.3422 22.008 18.0578 22.008 17.24C22.008 16.4933 22.5269 15.88 23.1657 15.88H24.6667C25.4012 15.88 26 16.5733 26 17.4356" stroke="#292D32" stroke-width="1.5" stroke-linecap="round" stroke-linejoin="round"/>
<path d="M23.9961 15V23" stroke="#292D32" stroke-width="1.5" stroke-linecap="round" stroke-linejoin="round"/>
</svg>
