<svg width="379" height="377" viewBox="0 0 379 377" fill="none" xmlns="http://www.w3.org/2000/svg">
<path d="M52.0007 259.394L40.2279 259.636L34.2472 259.744C32.2536 259.744 30.2421 259.744 28.2396 259.789H27.8445V259.394L27.7996 249.345V248.887H28.2486L40.1381 248.941C44.0983 248.941 48.0674 249.04 52.0276 249.085H52.279V249.327C52.279 251.024 52.2072 252.722 52.1623 254.401L52.0007 259.394ZM52.0007 259.394L51.9019 254.311C51.9019 252.641 51.8031 250.989 51.7851 249.345L52.0276 249.588C48.0674 249.633 44.0983 249.731 40.1381 249.731L28.2486 249.794L28.6976 249.345L28.6437 259.394L28.2486 258.99C30.2062 258.99 32.1638 258.99 34.1215 259.035L40.0303 259.142L52.0007 259.394Z" fill="#EBEBEB"/>
<path d="M38.7373 272.064L26.9466 272.307L20.9659 272.414C18.9724 272.414 16.9608 272.414 14.9583 272.459H14.5542V272.064V262.016V261.558H15.0032L26.8927 261.611C30.8529 261.611 34.8131 261.71 38.7822 261.755H39.0247V262.034C39.0247 263.731 38.9529 265.428 38.908 267.107L38.7373 272.064ZM38.7373 272.064L38.6116 266.982C38.6116 265.311 38.5039 263.659 38.4949 262.016L38.7373 262.258C34.7682 262.303 30.808 262.402 26.8478 262.402L14.9583 262.456L15.4073 262.016L15.3534 272.064L14.9583 271.66C16.9159 271.66 18.8736 271.66 20.8312 271.66L26.7401 271.768L38.7373 272.064Z" fill="#EBEBEB"/>
<path d="M365.205 129.884L353.423 130.127L347.443 130.234C345.44 130.234 343.438 130.234 341.426 130.279H341.058V129.884L341.004 119.835V119.377H341.453L353.343 119.431C357.312 119.431 361.272 119.53 365.232 119.575H365.484V119.817C365.484 121.515 365.403 123.212 365.367 124.891L365.205 129.884ZM365.205 129.884L365.08 124.801C365.08 123.131 364.981 121.479 364.963 119.835L365.205 120.078C361.245 120.123 357.285 120.222 353.316 120.222L341.426 120.284L341.875 119.835L341.83 129.884L341.426 129.48C343.393 129.48 345.341 129.48 347.308 129.534L353.217 129.633L365.205 129.884Z" fill="#EBEBEB"/>
<path d="M351.942 142.6L340.16 142.842L334.179 142.95C332.177 142.95 330.165 142.95 328.163 142.95H327.768V142.6L327.714 132.551V132.093H328.163L340.052 132.147C344.021 132.147 347.981 132.246 351.942 132.291H352.193V132.533C352.193 134.23 352.112 135.928 352.067 137.607L351.942 142.6ZM351.942 142.6L351.816 137.517C351.816 135.847 351.717 134.195 351.699 132.551L351.942 132.794C347.981 132.839 344.021 132.937 340.052 132.937L328.163 133L328.612 132.551L328.567 142.6L328.163 142.196C330.12 142.196 332.078 142.196 334.045 142.241L339.953 142.348L351.942 142.6Z" fill="#EBEBEB"/>
<path d="M338.732 129.884L326.942 130.127L320.961 130.234C318.967 130.234 316.956 130.234 314.953 130.279H314.558V129.884L314.513 119.835V119.377H314.962L326.852 119.431C330.812 119.431 334.781 119.53 338.741 119.575H338.984V119.817C338.984 121.515 338.912 123.212 338.867 124.891L338.732 129.884ZM338.732 129.884L338.607 124.801C338.607 123.131 338.499 121.479 338.49 119.835L338.732 120.078C334.772 120.123 330.803 120.222 326.843 120.222L314.953 120.284L315.402 119.835L315.348 129.884L314.953 129.48C316.911 129.48 318.868 129.48 320.826 129.534L326.735 129.633L338.732 129.884Z" fill="#EBEBEB"/>
<path d="M52.0007 26.3001L40.228 26.5425L34.2473 26.6503C32.2537 26.6503 30.2422 26.6503 28.2397 26.6952H27.8445V26.2911L27.7727 16.2514V15.7935H28.2217L40.1112 15.8473C44.0714 15.8473 48.0406 15.9461 52.0007 15.991H52.2522V16.2335C52.2522 17.9397 52.1803 19.6279 52.1355 21.3072L52.0007 26.3001ZM52.0007 26.3001L51.902 21.2174C51.902 19.5471 51.8032 17.8948 51.7852 16.2514L52.0277 16.4939C48.0675 16.4939 44.0983 16.6376 40.1382 16.6376L28.2487 16.7004L28.6977 16.2514L28.6438 26.3001L28.2217 25.86C30.1793 25.86 32.137 25.86 34.0946 25.9139L40.0035 26.0127L52.0007 26.3001Z" fill="#EBEBEB"/>
<path d="M29.9726 147.251C27.8922 143.688 26.9152 139.588 27.165 135.47C27.4148 131.351 28.8804 127.4 31.3763 124.114C33.8722 120.829 37.2863 118.357 41.1869 117.012C45.0875 115.667 49.2994 115.509 53.2899 116.558C57.2803 117.607 60.8702 119.815 63.6054 122.904C66.3406 125.993 68.0983 129.824 68.6562 133.912C69.2141 138 68.5472 142.162 66.7398 145.871C64.9324 149.58 62.0656 152.67 58.5021 154.75C56.1367 156.132 53.5222 157.034 50.808 157.405C48.0939 157.776 45.3331 157.608 42.6837 156.912C40.0342 156.216 37.548 155.004 35.3669 153.347C33.1859 151.689 31.3529 149.618 29.9726 147.251Z" fill="#EBEBEB"/>
<path d="M58.9332 136.197C57.7209 143.193 51.6145 148.94 51.6145 148.94C51.6145 148.94 43.3529 147.458 38.5216 142.259C34.4986 137.931 34.4627 131.959 38.0726 129.579C43.2541 126.167 47.6633 135.65 47.6633 135.65C47.6633 135.65 46.1816 125.305 52.3868 125.332C56.7151 125.35 59.9839 130.369 58.9332 136.197Z" fill="white"/>
<path d="M313.05 174.856C313.206 171.414 314.379 168.096 316.422 165.321C318.464 162.545 321.283 160.438 324.523 159.265C327.763 158.093 331.278 157.907 334.623 158.732C337.968 159.556 340.994 161.355 343.318 163.899C345.641 166.444 347.158 169.62 347.676 173.026C348.194 176.433 347.691 179.916 346.229 183.036C344.767 186.157 342.413 188.773 339.464 190.556C336.516 192.338 333.105 193.206 329.663 193.05C325.048 192.838 320.706 190.802 317.591 187.391C314.476 183.98 312.842 179.471 313.05 174.856Z" fill="#EBEBEB"/>
<path d="M338.364 180.235C334.35 184.59 327.453 185.848 327.453 185.848C327.453 185.848 322.335 181.07 321.302 175.233C320.404 170.375 323.098 166.172 326.735 166.136C331.916 166.092 330.713 174.739 330.713 174.739C330.713 174.739 334.359 166.81 338.696 169.639C341.731 171.614 341.722 176.598 338.364 180.235Z" fill="white"/>
<path fill-rule="evenodd" clip-rule="evenodd" d="M154.14 81.5361C153.179 80.9344 152.344 80.0633 151.068 80.1891C150.574 80.2429 150.682 79.8388 150.673 79.5694L150.619 65.1296C150.619 64.7794 150.619 64.492 151.015 64.2945C154.687 62.4266 156.268 58.7718 158.513 55.6467C159.663 54.0954 160.489 52.3281 160.941 50.4504C161.394 48.5726 161.462 46.623 161.144 44.7181C160.991 43.6315 161.494 43.1466 162.464 42.9221C162.954 42.7516 163.487 42.7424 163.983 42.8959C164.479 43.0494 164.912 43.3575 165.221 43.7752C166.281 45.7342 166.998 47.8602 167.34 50.0612C167.556 51.8572 166.909 53.6532 166.685 55.4492C166.523 56.7692 166.218 58.0803 165.975 59.4183C166.298 59.6518 166.667 59.5261 167.017 59.5351H179.221C180.936 59.5351 181.771 60.011 182.013 61.1515C182.143 61.8553 182.037 62.5822 181.713 63.22C181.388 63.8578 180.863 64.3711 180.217 64.6806C179.912 64.8333 179.319 64.6806 179.319 65.1745C179.319 65.6684 179.849 65.6145 180.137 65.8031C181.609 66.8089 181.34 68.8922 179.643 70.1045C179.239 70.3919 178.439 70.2662 178.421 70.8678C178.404 71.4695 179.158 71.3348 179.499 71.676C180.684 72.8434 180.101 75.0345 178.332 75.9325C178.088 76.0051 177.85 76.0982 177.622 76.2109C177.416 76.3456 177.218 76.4983 177.622 76.7766C179.418 78.0249 179.355 79.776 177.622 81.0601L177.092 81.4462C176.449 81.8287 175.7 81.9954 174.955 81.9222L155.819 81.9851C155.523 82.0251 155.222 82.006 154.934 81.9289C154.646 81.8519 154.376 81.7183 154.14 81.5361Z" fill="#EBEBEB"/>
<path fill-rule="evenodd" clip-rule="evenodd" d="M135.973 73.1127C135.973 70.0505 135.973 66.9973 135.928 63.9351C135.928 63.3155 135.991 63.0371 136.754 63.0371C140.478 63.073 144.208 63.073 147.943 63.0371C148.671 63.0371 148.787 63.2796 148.787 63.9351C148.787 70.0894 148.808 76.2437 148.85 82.398C148.85 83.1882 148.644 83.4038 147.862 83.3948C144.27 83.3948 140.625 83.3948 137.006 83.4397C136.108 83.4397 135.982 83.1433 135.991 82.3531C136.027 79.2281 135.982 76.1479 135.973 73.1127Z" fill="#EBEBEB"/>
<path fill-rule="evenodd" clip-rule="evenodd" d="M222.639 202.82C222.082 202.47 221.588 201.922 220.843 202.03C220.556 202.03 220.618 201.823 220.618 201.661C220.618 198.833 220.618 196.013 220.618 193.184C220.618 192.978 220.618 192.807 220.852 192.69C223.007 191.595 223.941 189.449 225.261 187.617C225.935 186.704 226.418 185.666 226.683 184.563C226.949 183.46 226.99 182.315 226.806 181.196C226.707 180.558 227.003 180.298 227.578 180.136C227.866 180.038 228.177 180.034 228.468 180.124C228.758 180.215 229.013 180.395 229.194 180.639C229.817 181.796 230.239 183.05 230.442 184.348C230.443 185.419 230.313 186.487 230.056 187.527C229.958 188.299 229.787 189.071 229.634 189.853C229.832 189.987 230.047 189.916 230.254 189.925H237.438C238.444 189.925 238.938 190.212 239.081 190.876C239.157 191.287 239.097 191.712 238.911 192.086C238.724 192.46 238.422 192.763 238.049 192.951C237.869 193.041 237.546 192.951 237.519 193.247C237.492 193.543 237.833 193.499 238.004 193.615C238.902 194.199 238.713 195.411 237.707 196.139C237.474 196.309 237.007 196.228 236.998 196.588C236.989 196.947 237.429 196.857 237.626 197.055C237.781 197.254 237.887 197.486 237.936 197.733C237.985 197.98 237.976 198.235 237.91 198.478C237.844 198.72 237.722 198.945 237.554 199.133C237.387 199.32 237.178 199.467 236.944 199.56C236.799 199.603 236.658 199.657 236.522 199.722C236.405 199.802 236.288 199.892 236.522 200.054C236.757 200.169 236.955 200.348 237.093 200.571C237.231 200.793 237.305 201.049 237.305 201.311C237.305 201.573 237.231 201.829 237.093 202.052C236.955 202.274 236.757 202.453 236.522 202.568L236.217 202.793C235.84 203.022 235.398 203.119 234.959 203.071C231.218 203.071 227.47 203.086 223.716 203.116C223.526 203.146 223.332 203.135 223.146 203.084C222.96 203.033 222.787 202.943 222.639 202.82Z" fill="#EBEBEB"/>
<path fill-rule="evenodd" clip-rule="evenodd" d="M211.97 197.863C211.97 196.067 211.97 194.271 211.97 192.475C211.97 192.107 211.97 191.936 212.446 191.936C214.638 191.936 216.829 191.936 219.02 191.936C219.451 191.936 219.523 192.08 219.514 192.457C219.514 196.049 219.529 199.665 219.559 203.305C219.559 203.763 219.433 203.897 218.975 203.888C216.847 203.888 214.718 203.888 212.599 203.888C212.069 203.888 211.997 203.709 211.997 203.251C212.006 201.464 211.979 199.668 211.97 197.863Z" fill="#EBEBEB"/>
<path d="M348.762 73.7779C359.779 64.8794 361.497 48.7344 352.598 37.7171C343.7 26.6999 327.555 24.9823 316.538 33.8809C305.52 42.7794 303.803 58.9244 312.701 69.9417C321.6 80.959 337.745 82.6765 348.762 73.7779Z" fill="#EBEBEB"/>
<path d="M349.461 70.6109C358.99 61.0826 358.99 45.6342 349.461 36.1059C339.933 26.5777 324.485 26.5777 314.957 36.106C305.428 45.6342 305.428 61.0826 314.957 70.6109C324.485 80.1391 339.933 80.1391 349.461 70.6109Z" fill="#DBDBDB"/>
<path d="M337.441 75.6069C349.734 72.7214 357.36 60.417 354.475 48.1242C351.589 35.8313 339.285 28.2052 326.992 31.0907C314.699 33.9763 307.073 46.2807 309.958 58.5735C312.844 70.8663 325.148 78.4925 337.441 75.6069Z" fill="white"/>
<path opacity="0.5" d="M354.528 48.5074C344.12 54.7934 327.013 65.1564 317.45 70.8317C314.732 68.5577 312.58 65.6833 311.164 62.4354L342.854 33.1157C345.804 34.6757 348.377 36.8616 350.394 39.5203C352.41 42.179 353.821 45.2463 354.528 48.5074Z" fill="#EBEBEB"/>
<path opacity="0.5" d="M355.058 54.1558C354.971 56.6979 354.461 59.2078 353.549 61.5822L325.038 75.0522C323.796 74.6432 322.594 74.1233 321.446 73.4987C330.048 68.5417 345.781 59.4899 355.058 54.1558Z" fill="#EBEBEB"/>
<path d="M332.428 32.1548H331.988V35.6211H332.428V32.1548Z" fill="#C7C7C7"/>
<path d="M321.788 34.8571L321.407 35.0771L323.14 38.079L323.521 37.859L321.788 34.8571Z" fill="#C7C7C7"/>
<path d="M313.948 42.5501L313.728 42.9312L316.73 44.6643L316.95 44.2832L313.948 42.5501Z" fill="#C7C7C7"/>
<path d="M314.477 53.1318H311.011V53.5719H314.477V53.1318Z" fill="#C7C7C7"/>
<path d="M316.756 62.054L313.754 63.7871L313.974 64.1682L316.976 62.435L316.756 62.054Z" fill="#C7C7C7"/>
<path d="M323.175 68.6276L321.443 71.6304L321.825 71.8502L323.556 68.8474L323.175 68.6276Z" fill="#C7C7C7"/>
<path d="M332.428 71.0918H331.988V74.5581H332.428V71.0918Z" fill="#C7C7C7"/>
<path d="M341.271 68.6018L340.89 68.8218L342.623 71.8237L343.004 71.6036L341.271 68.6018Z" fill="#C7C7C7"/>
<path d="M347.7 62.0501L347.48 62.4312L350.481 64.1648L350.701 63.7838L347.7 62.0501Z" fill="#C7C7C7"/>
<path d="M353.415 53.1318H349.948V53.5719H353.415V53.1318Z" fill="#C7C7C7"/>
<path d="M350.471 42.5647L347.47 44.2983L347.69 44.6794L350.691 42.9457L350.471 42.5647Z" fill="#C7C7C7"/>
<path d="M342.627 34.8815L340.895 37.8843L341.276 38.1041L343.008 35.1013L342.627 34.8815Z" fill="#C7C7C7"/>
<path d="M332.545 33.7263L333.299 54.9011L331.126 54.8742L331.952 33.7173L332.545 33.7263Z" fill="#C7C7C7"/>
<path d="M345.737 45.9749L331.485 55.0627L330.453 53.1589L345.449 45.4541L345.737 45.9749Z" fill="#A6A6A6"/>
<path d="M332.976 53.3565C332.976 53.5021 332.933 53.6445 332.852 53.7656C332.771 53.8867 332.656 53.981 332.521 54.0368C332.387 54.0925 332.239 54.1071 332.096 54.0787C331.953 54.0503 331.822 53.9801 331.719 53.8772C331.616 53.7742 331.546 53.643 331.517 53.5001C331.489 53.3573 331.503 53.2092 331.559 53.0747C331.615 52.9401 331.709 52.8251 331.83 52.7442C331.952 52.6633 332.094 52.6201 332.24 52.6201C332.435 52.6201 332.622 52.6977 332.76 52.8358C332.898 52.9739 332.976 53.1612 332.976 53.3565Z" fill="#C7C7C7"/>
<path d="M8.2951 62.3096L108.709 62.3096V56.3469L8.2951 56.3469V62.3096Z" fill="#EBEBEB"/>
<path d="M101.094 62.3096H95.1316V82.0297H101.094V62.3096Z" fill="#EBEBEB"/>
<path d="M101.094 62.3096H95.1316V68.407H101.094V62.3096Z" fill="#DBDBDB"/>
<path d="M21.8819 62.3096H15.9192V82.0297H21.8819V62.3096Z" fill="#EBEBEB"/>
<path d="M21.8819 62.3096H15.9192V68.407H21.8819V62.3096Z" fill="#DBDBDB"/>
<path d="M83.332 56.3559V18.3525H73.7594V56.3559H83.332Z" fill="#C7C7C7"/>
<path d="M83.3411 20.4897V16.314H73.7684V20.4897H83.3411Z" fill="#DBDBDB"/>
<path d="M83.332 27.3953V25.8418H73.7593V27.3953H83.332Z" fill="#DBDBDB"/>
<path d="M83.3411 51.3632V47.1875H72.583V51.3632H83.3411Z" fill="#DBDBDB"/>
<path d="M73.7681 56.3468V12.0215H67.078V56.3468H73.7681Z" fill="#DBDBDB"/>
<path d="M72.457 33.2415V16.1885H68.443V33.2415H72.457Z" fill="#EBEBEB"/>
<path d="M24.2051 56.3658L55.7278 25.2041L51.0245 20.4463L19.5018 51.608L24.2051 56.3658Z" fill="#C7C7C7"/>
<path d="M30.642 48.0946L42.7695 36.106L39.9476 33.2513L27.82 45.2399L30.642 48.0946Z" fill="#DBDBDB"/>
<path d="M67.0872 56.356V22.6899H55.7275V56.356H67.0872Z" fill="#A6A6A6"/>
<path d="M67.0872 52.7913V49.6572H55.7275V52.7913H67.0872Z" fill="#C7C7C7"/>
<path d="M67.0781 47.6002V46.3789H55.7184V47.6002H67.0781Z" fill="#C7C7C7"/>
<path d="M91.1895 56.356V24.7104H83.3409V56.356H91.1895Z" fill="#A6A6A6"/>
<path d="M91.1895 52.9977V50.0522H83.3409V52.9977H91.1895Z" fill="#C7C7C7"/>
<path d="M91.1804 34.1842V31.2388H83.3319V34.1842H91.1804Z" fill="#C7C7C7"/>
<path d="M91.1804 37.3455V36.2051H83.3319V37.3455H91.1804Z" fill="#C7C7C7"/>
<path d="M267.539 311.891H368.537L371.788 247.801H264.288L267.539 311.891Z" fill="#EBEBEB"/>
<path d="M361.191 277.192H272.137L270.906 254.85H362.61L361.191 277.192ZM272.981 276.294H360.347L361.712 255.748H271.912L272.981 276.294Z" fill="#DBDBDB"/>
<path d="M359.988 302.785H274.678L273.708 282.598H361.263L359.988 302.785ZM275.576 301.887H359.171L360.32 283.496H274.606L275.576 301.887Z" fill="#DBDBDB"/>
<path d="M326.941 268.482H307.985L307.284 263.004H327.651L326.941 268.482ZM308.775 267.584H326.151L326.627 263.902H308.299L308.775 267.584Z" fill="#DBDBDB"/>
<path d="M326.941 295.43H307.985L307.284 289.953H327.651L326.941 295.43ZM308.775 294.532H326.151L326.627 290.851H308.299L308.775 294.532Z" fill="#DBDBDB"/>
<path d="M281.548 311.891L280.569 318.869L278.593 332.895H274.732V311.891H281.548Z" fill="#EBEBEB"/>
<path d="M281.548 311.891L280.569 318.869H274.732V311.891H281.548Z" fill="#DBDBDB"/>
<path d="M354.537 311.891L355.516 318.869L357.492 332.895H361.344V311.891H354.537Z" fill="#EBEBEB"/>
<path d="M354.537 311.891L355.516 318.869H361.344V311.891H354.537Z" fill="#DBDBDB"/>
<path d="M187.5 370.926C268.181 370.926 333.587 363.95 333.587 355.345C333.587 346.741 268.181 339.765 187.5 339.765C106.819 339.765 41.4133 346.741 41.4133 355.345C41.4133 363.95 106.819 370.926 187.5 370.926Z" fill="#EBEBEB"/>
<path d="M0.15918 332.895L46.9989 332.68L93.8296 332.599L187.5 332.446L281.17 332.599L328.001 332.68L374.841 332.895L328.001 333.12L281.17 333.201L187.5 333.344L93.8296 333.192L46.9989 333.12L0.15918 332.895Z" fill="#263238"/>
<path d="M196.893 268.051C196.048 271.145 195.489 274.31 195.223 277.507C195.304 277.659 195.286 278.252 195.223 278.09C195.223 278.611 194.415 278.512 194.415 278V277.013C192.619 274.714 189.925 273.259 187.716 271.265C185.97 269.698 184.698 267.673 184.043 265.419C182.247 259.223 183.935 252.65 181.771 246.472C179.903 241.138 176.554 236.495 173.689 231.664C170.699 226.563 168.498 221.193 168.301 215.203C168.13 210.624 168.669 204.517 172.162 201.087C175.862 197.441 180.451 200.189 183.28 203.422C191.496 212.842 195.295 224.758 196.83 236.935C197.674 243.679 198.555 250.459 198.357 257.266C198.225 260.9 197.735 264.513 196.893 268.051Z" fill="#F9C337"/>
<path d="M195.259 279.994C195.705 273.635 195.63 267.25 195.034 260.903C195.034 260.903 195.034 260.903 195.034 260.831C195.142 255.667 195.546 250.531 195.349 245.358C195.096 239.769 194.335 234.215 193.077 228.763C193.077 228.701 192.96 228.718 192.978 228.763C193.98 234.12 194.58 239.544 194.774 244.99C194.873 247.909 194.855 250.827 194.702 253.746C194.648 254.689 194.558 255.65 194.496 256.601C192.348 242.11 187.111 228.249 179.14 215.958C179.032 215.796 178.736 215.958 178.843 216.146C184.534 225.487 188.75 235.649 191.344 246.274C187.392 238.965 181.466 232.948 176.976 225.917C176.976 225.917 176.886 225.917 176.904 225.917C180.882 233.747 187.446 239.917 191.64 247.63C192.37 250.773 192.969 253.943 193.436 257.14C194.031 261.519 194.349 265.931 194.388 270.35C191.872 265.948 189.579 261.422 187.518 256.79C187.464 256.664 187.285 256.79 187.33 256.88C189 261.819 191.254 267.144 194.406 271.356C194.406 274.481 194.325 277.642 194.145 280.731C193.651 289.073 192.224 297.299 191.568 305.605C191.571 305.651 191.59 305.695 191.622 305.729C191.654 305.762 191.696 305.783 191.742 305.789C191.788 305.794 191.835 305.783 191.873 305.758C191.912 305.732 191.941 305.694 191.954 305.65C193.628 297.182 194.732 288.61 195.259 279.994Z" fill="#263238"/>
<path d="M186.405 215.688C186.405 215.676 186.4 215.665 186.391 215.656C186.383 215.648 186.372 215.643 186.36 215.643C186.348 215.643 186.336 215.648 186.328 215.656C186.319 215.665 186.315 215.676 186.315 215.688C187.832 219.9 188.694 224.165 189.799 228.484C189.812 228.521 189.837 228.551 189.869 228.571C189.902 228.59 189.941 228.597 189.979 228.591C190.017 228.584 190.051 228.565 190.075 228.535C190.1 228.506 190.113 228.469 190.113 228.431C189.501 224.026 188.252 219.733 186.405 215.688Z" fill="#263238"/>
<path d="M225.072 233.298C224.058 235.764 222.888 238.163 221.57 240.482C218.831 245.466 215.967 250.027 215.446 255.819C215.366 258.414 214.998 260.992 214.35 263.506C213.632 265.652 212.6 267.68 211.288 269.523C208.316 273.851 204.598 277.605 201.841 282.095C198.973 286.779 196.853 291.881 195.555 297.217C195.483 297.514 195.025 297.433 195.097 297.145C195.097 297.145 195.097 297.101 195.097 297.074C195.093 297.064 195.091 297.053 195.091 297.042C195.091 297.031 195.093 297.021 195.097 297.011C194.657 284.582 195.654 272.046 199.443 260.139C201.116 254.911 203.126 249.796 205.46 244.828C207.37 240.437 210.132 236.469 213.587 233.154C215.904 231.062 220.924 227.119 224.21 229.203C225.818 230.191 225.692 231.78 225.072 233.298Z" fill="#F9C337"/>
<path d="M212.581 261.522C210.387 265.13 207.972 268.6 205.352 271.912C204.149 273.483 202.928 275.046 201.76 276.617C201.194 277.363 200.557 278.099 200.036 278.898C200.368 277.587 200.683 276.285 201.015 274.974C202.622 268.688 204.167 262.402 206.556 256.314C209.004 250.466 211.889 244.811 215.185 239.395C215.275 239.252 215.042 239.144 214.952 239.288C212.33 243.607 209.663 247.917 207.454 252.479C206.231 255.018 205.167 257.631 204.266 260.301C205.28 254.634 206.696 249.046 208.504 243.58C208.504 243.535 208.45 243.499 208.432 243.58C206.06 249.111 204.576 254.981 204.032 260.974C203.493 262.591 202.999 264.225 202.532 265.859C200.575 272.819 198.86 279.85 197.261 286.9C197.235 282.263 197.638 277.633 198.465 273.07C198.465 272.972 198.321 272.945 198.303 273.07C197.088 277.827 196.681 282.754 197.1 287.645C196.501 290.327 195.902 293.021 195.304 295.727C194.082 301.456 192.61 307.293 191.864 313.112C191.871 313.137 191.886 313.158 191.906 313.173C191.926 313.189 191.951 313.197 191.977 313.197C192.002 313.197 192.027 313.189 192.047 313.173C192.067 313.158 192.082 313.137 192.089 313.112C192.942 309.978 193.463 306.727 194.154 303.548C194.846 300.37 195.582 297.182 196.318 294.012C197.396 289.39 198.518 284.774 199.686 280.165C200.449 278.467 201.94 276.968 203.053 275.558C204.284 273.995 205.505 272.442 206.699 270.861C208.932 267.937 210.932 264.841 212.68 261.603C212.725 261.495 212.644 261.45 212.581 261.522Z" fill="#263238"/>
<path d="M213.111 256.197C210.375 259.687 208.004 263.448 206.035 267.422C206.035 267.476 206.089 267.53 206.125 267.485C208.504 263.749 210.839 259.995 213.219 256.26C213.255 256.206 213.156 256.143 213.111 256.197Z" fill="#263238"/>
<path d="M160.183 245.125C161.79 247.899 163.631 251.231 162.94 254.563C162.5 256.673 160.955 258.379 160.677 260.534C160.057 265.285 164.79 268.419 168.211 270.664C176.751 276.267 188.461 281.26 190.015 292.701C190.068 293.105 190.769 292.997 190.724 292.602C190.728 292.578 190.728 292.554 190.724 292.53C190.724 292.53 190.724 292.53 190.724 292.458C191.847 286.685 191.792 280.744 190.562 274.992C189.296 269.092 186.719 263.794 183.684 258.621C178.547 249.857 173.105 240.877 165.337 234.16C163.182 232.31 158.782 228.97 157.067 233.163C155.352 237.357 158.207 241.739 160.183 245.125Z" fill="#F9C337"/>
<path d="M167.995 263.704C173.653 269.828 182.651 273.267 187.527 280.128C184.807 269.68 179.663 260.02 172.512 251.931C172.48 251.888 172.464 251.834 172.468 251.78C172.472 251.726 172.495 251.676 172.533 251.638C172.571 251.599 172.622 251.576 172.676 251.572C172.73 251.569 172.783 251.584 172.827 251.617C178.039 256.681 182.206 262.719 185.093 269.388C183.748 264.746 181.981 260.237 179.813 255.918C179.732 255.747 179.966 255.604 180.065 255.765C182.752 260.495 184.673 265.62 185.758 270.951C192.179 286.495 192.771 304.724 191.424 321.104C191.424 321.337 191.047 321.346 191.056 321.104C191.424 308.191 191.218 295.062 188.12 282.49C188.057 282.221 187.985 281.96 187.922 281.7C182.624 274.309 173.662 270.924 167.897 263.874C167.843 263.731 167.933 263.632 167.995 263.704Z" fill="#263238"/>
<path d="M166.684 258.442C169.657 261.136 172.584 263.956 175.557 266.677C175.557 266.677 175.557 266.757 175.557 266.739C172.202 264.476 169.18 261.756 166.577 258.657C166.557 258.639 166.544 258.614 166.539 258.588C166.534 258.561 166.538 258.534 166.55 258.509C166.562 258.485 166.582 258.466 166.606 258.453C166.63 258.441 166.658 258.437 166.684 258.442Z" fill="#263238"/>
<path d="M166.217 246.633C168.842 250.943 171.816 255.03 175.108 258.855C175.118 258.866 175.124 258.88 175.124 258.895C175.124 258.91 175.118 258.925 175.108 258.936C175.097 258.946 175.082 258.952 175.067 258.952C175.052 258.952 175.037 258.946 175.027 258.936C171.337 255.426 168.297 251.291 166.047 246.723C166.035 246.7 166.032 246.674 166.04 246.649C166.048 246.625 166.065 246.605 166.087 246.593C166.11 246.581 166.136 246.578 166.161 246.586C166.185 246.593 166.205 246.61 166.217 246.633Z" fill="#263238"/>
<path d="M179.589 332.617H205.622L202.111 297.604H183.603L179.589 332.617Z" fill="#455A64"/>
<path d="M182.947 303.297H202.685L202.111 297.604H183.603L182.947 303.297Z" fill="#263238"/>
<path d="M180.406 299.31H204.804V293.715H180.406V299.31Z" fill="#455A64"/>
<path d="M226.437 149.972L231.502 150.906L232.633 156.258L233.765 150.906L238.839 149.972L233.792 148.742L232.633 143.695L231.484 148.742L226.437 149.972Z" fill="#F9C337"/>
<path d="M224.094 53.9134L229.158 54.8474L230.29 60.1905L231.421 54.8474L236.495 53.9045L231.448 52.6742L230.29 47.6274L229.14 52.6742L224.094 53.9134Z" fill="#F9C337"/>
<path d="M300.02 122.332L305.084 123.266L306.216 128.609L307.347 123.266L312.421 122.323L307.374 121.093L306.216 116.046L305.066 121.093L300.02 122.332Z" fill="#F9C337"/>
<path d="M265.042 46.0024L267.88 46.5232L268.509 49.5046L269.146 46.5232L271.975 45.9934L269.155 45.3109L268.509 42.4912L267.862 45.3109L265.042 46.0024Z" fill="#F9C337"/>
<path d="M296.553 77.54L299.382 78.0608L300.019 81.0512L300.648 78.0608L303.477 77.54L300.657 76.8485L300.019 74.0288L299.373 76.8485L296.553 77.54Z" fill="#F9C337"/>
<path d="M205.352 114.888L208.19 115.417L208.819 118.399L209.447 115.417L212.285 114.888L209.465 114.196L208.819 111.376L208.172 114.196L205.352 114.888Z" fill="#F9C337"/>
<path d="M216.236 163.963L219.065 164.484L219.702 167.475L220.331 164.484L223.169 163.963L220.349 163.272L219.702 160.452L219.056 163.272L216.236 163.963Z" fill="#F9C337"/>
<path d="M215.177 42.4907L218.014 43.0115L218.643 46.0019L219.271 43.0115L222.109 42.4907L219.289 41.7992L218.643 38.9795L217.996 41.7992L215.177 42.4907Z" fill="#F9C337"/>
<path d="M302.75 182.705L305.587 183.225L306.216 186.207L306.844 183.225L309.682 182.705L306.862 182.013L306.216 179.193L305.569 182.013L302.75 182.705Z" fill="#F9C337"/>
<path d="M316.516 133.979L319.345 134.5L319.982 137.49L320.62 134.5L323.448 133.979L320.629 133.287L319.982 130.468L319.336 133.287L316.516 133.979Z" fill="#F9C337"/>
<path d="M242.915 34.0586C243.119 34.0799 243.307 34.1756 243.443 34.3273C243.58 34.4791 243.656 34.676 243.656 34.8803C243.656 35.0845 243.58 35.2815 243.443 35.4332C243.307 35.5849 243.119 35.6807 242.915 35.7019C242.712 35.6807 242.524 35.5849 242.388 35.4332C242.251 35.2815 242.175 35.0845 242.175 34.8803C242.175 34.676 242.251 34.4791 242.388 34.3273C242.524 34.1756 242.712 34.0799 242.915 34.0586Z" fill="#F9C337"/>
<path d="M309.682 157.139C309.885 157.16 310.073 157.256 310.21 157.407C310.347 157.559 310.422 157.756 310.422 157.96C310.422 158.165 310.347 158.362 310.21 158.513C310.073 158.665 309.885 158.761 309.682 158.782C309.479 158.761 309.291 158.665 309.154 158.513C309.018 158.362 308.942 158.165 308.942 157.96C308.942 157.756 309.018 157.559 309.154 157.407C309.291 157.256 309.479 157.16 309.682 157.139Z" fill="#F9C337"/>
<path d="M288.839 75.5283C289.056 75.5283 289.264 75.6144 289.417 75.7677C289.57 75.9209 289.657 76.1288 289.657 76.3455C289.657 76.5622 289.57 76.7701 289.417 76.9233C289.264 77.0766 289.056 77.1627 288.839 77.1627C288.623 77.1627 288.415 77.0766 288.262 76.9233C288.108 76.7701 288.022 76.5622 288.022 76.3455C288.022 76.1288 288.108 75.9209 288.262 75.7677C288.415 75.6144 288.623 75.5283 288.839 75.5283Z" fill="#F9C337"/>
<path d="M201.868 133.396C202.023 133.396 202.171 133.457 202.281 133.566C202.39 133.676 202.452 133.824 202.452 133.979C202.452 134.134 202.39 134.282 202.281 134.392C202.171 134.501 202.023 134.563 201.868 134.563C201.713 134.563 201.565 134.501 201.455 134.392C201.346 134.282 201.284 134.134 201.284 133.979C201.284 133.824 201.346 133.676 201.455 133.566C201.565 133.457 201.713 133.396 201.868 133.396Z" fill="#F9C337"/>
<path d="M224.318 175.88C224.459 175.897 224.589 175.966 224.683 176.073C224.778 176.179 224.829 176.317 224.829 176.459C224.829 176.601 224.778 176.739 224.683 176.845C224.589 176.952 224.459 177.021 224.318 177.038C224.177 177.021 224.047 176.952 223.953 176.845C223.859 176.739 223.807 176.601 223.807 176.459C223.807 176.317 223.859 176.179 223.953 176.073C224.047 175.966 224.177 175.897 224.318 175.88Z" fill="#F9C337"/>
<path d="M292.423 66.0542C292.577 66.0542 292.726 66.1157 292.835 66.2252C292.945 66.3346 293.006 66.4831 293.006 66.6379C293.006 66.7927 292.945 66.9412 292.835 67.0506C292.726 67.1601 292.577 67.2216 292.423 67.2216C292.268 67.2216 292.119 67.1601 292.01 67.0506C291.9 66.9412 291.839 66.7927 291.839 66.6379C291.839 66.4831 291.9 66.3346 292.01 66.2252C292.119 66.1157 292.268 66.0542 292.423 66.0542Z" fill="#F9C337"/>
<path d="M250.917 29.6406C251.334 29.6406 251.733 29.8062 252.028 30.1009C252.323 30.3956 252.488 30.7953 252.488 31.2121C252.488 31.6289 252.323 32.0286 252.028 32.3233C251.733 32.6181 251.334 32.7836 250.917 32.7836C250.5 32.7836 250.1 32.6181 249.806 32.3233C249.511 32.0286 249.345 31.6289 249.345 31.2121C249.345 30.7953 249.511 30.3956 249.806 30.1009C250.1 29.8062 250.5 29.6406 250.917 29.6406Z" fill="#F9C337"/>
<path d="M206.753 355.57C208.729 356.207 264.989 355.48 267.108 354.088C267.925 353.576 268.293 345.368 268.464 335.446C268.464 335.338 268.392 298.78 268.392 298.78L231.709 299.157L232.185 335.814C232.185 335.814 210.776 345.692 208.603 347.488C206.43 349.284 204.778 354.941 206.753 355.57Z" fill="#EB9481"/>
<path d="M223.663 339.666C223.806 339.621 223.878 339.576 223.887 339.531L223.663 339.666Z" fill="#F9C337"/>
<path d="M268.32 340.618C268.123 348.089 267.754 353.666 267.081 354.088C264.962 355.48 208.711 356.207 206.726 355.569C204.742 354.932 206.421 349.283 208.576 347.487C209.618 346.643 215.051 343.895 220.448 341.336C212.464 345.907 206.439 352.202 268.32 340.618Z" fill="#292826"/>
<path d="M268.32 340.618C268.122 348.089 267.754 353.666 267.081 354.088C266.246 354.635 256.87 355.093 245.753 355.39L259.34 342.261C262.172 341.77 265.165 341.222 268.32 340.618Z" fill="#292826"/>
<path d="M279.94 136.718C279.94 136.718 270.439 232.498 269.056 239.754C268.742 241.407 269.604 249.677 269.469 261.225C269.182 286.423 268.518 331.88 268.518 331.88H232.032C232.032 331.88 230.873 253.126 232.624 238.641C234.376 224.156 245.61 136.718 245.61 136.718H279.94Z" fill="#EB9481"/>
<path d="M269.469 261.235C269.398 267.179 269.308 274.256 269.218 281.583L245.61 136.727H279.94C279.94 136.727 270.43 232.499 269.056 239.755C268.733 241.38 269.595 249.677 269.469 261.235Z" fill="#263238"/>
<path d="M252.803 358.919C254.823 359.422 310.885 354.708 312.906 353.172C313.678 352.597 313.472 344.39 312.906 334.476C312.906 334.377 309.017 298.008 309.017 298.008L272.954 300.935L276.743 337.412C276.743 337.412 256.089 348.817 254.051 350.738C252.012 352.66 250.791 358.434 252.803 358.919Z" fill="#EB9481"/>
<path d="M312.906 353.172C310.885 354.707 254.823 359.458 252.803 358.919C250.782 358.38 252.048 352.633 254.078 350.747C255.245 349.643 262.573 345.359 268.589 341.992C260.705 347.173 245.682 358.425 313.112 337.969C313.516 346.248 313.588 352.669 312.906 353.172Z" fill="#292826"/>
<path d="M276.312 333.326L312.519 330.632C312.519 330.632 303.117 246.22 302.911 240.832C302.614 232.894 299.588 199.317 296.391 172.773C296.391 172.773 299.893 153.627 291.102 136.691H245.573C245.573 136.691 248.627 157.345 253.844 170.447C257.354 171.678 260.744 173.226 263.973 175.071C263.973 175.071 267.718 235.04 267.889 242.421C268.221 257.023 276.312 333.326 276.312 333.326Z" fill="#EB9481"/>
<path d="M245.573 136.691C245.573 136.691 231.205 234.573 230.622 243.652C230.038 252.731 230.37 255.218 230.37 255.218C230.37 255.218 250.477 261.504 260.992 261.585C284.385 261.8 306.619 253.009 306.619 253.009C306.619 253.009 297.119 173.015 297.056 172.818C299.515 160.534 297.736 147.779 292.009 136.637L245.573 136.691Z" fill="#37474F"/>
<path d="M247.666 136.691L240.769 197.297L237.132 228.925L236.234 236.836C235.956 239.476 235.624 242.116 235.453 244.756C235.282 248.725 235.291 252.704 235.381 256.682C235.282 252.713 235.247 248.734 235.381 244.765C235.552 242.116 235.866 239.476 236.145 236.836L237.043 228.916L240.572 197.279L247.666 136.691Z" fill="#455A64"/>
<path d="M304.025 253.952C302.992 247.783 302.229 241.559 301.384 235.345C300.468 228.371 299.588 221.384 298.744 214.386C297.002 200.413 295.353 186.431 293.796 172.44C294.443 169.346 294.759 166.191 294.739 163.029C294.655 159.867 294.355 156.713 293.841 153.591C293.309 150.474 292.613 147.387 291.758 144.342C291.022 141.756 290.213 139.187 289.252 136.664C290.222 139.178 291.048 141.747 291.785 144.333C292.65 147.38 293.355 150.47 293.895 153.591C294.414 156.713 294.714 159.866 294.793 163.029C294.836 166.202 294.535 169.369 293.895 172.476L298.852 214.368C299.696 221.363 300.54 228.359 301.438 235.336C302.255 241.55 303.01 247.774 304.025 253.952Z" fill="#455A64"/>
<path d="M261.809 136.673L259.34 199.228L257.948 232.095L257.598 240.312C257.481 243.006 257.319 245.78 257.337 248.519C257.337 252.803 257.418 257.095 257.544 261.379C257.409 257.095 257.31 252.812 257.302 248.528C257.302 245.789 257.427 243.05 257.535 240.312L257.849 232.095L259.151 199.237L261.845 136.682L261.809 136.673Z" fill="#455A64"/>
<path d="M298.098 255.847L294.066 216.236C292.575 201.646 291.123 187.048 289.71 172.44C289.917 169.315 289.89 166.178 289.63 163.056C289.423 159.922 289.037 156.77 288.606 153.708C288.175 150.646 287.636 147.512 287.052 144.423C286.558 141.828 286.029 139.232 285.445 136.664C286.038 139.232 286.567 141.828 287.07 144.423C287.663 147.503 288.202 150.592 288.651 153.699C289.1 156.806 289.495 159.922 289.719 163.047C289.981 166.175 290.014 169.317 289.818 172.449C291.309 187.045 292.77 201.64 294.2 216.236L298.098 255.847Z" fill="#455A64"/>
<path d="M251.303 136.682L246.499 198.85L243.966 231.088L243.374 239.17C243.275 240.508 243.185 241.864 243.113 243.202L243.014 247.243L242.754 258.621L242.987 247.252L243.077 243.211C243.149 241.864 243.23 240.517 243.329 239.17L243.903 231.088L246.328 198.841L251.258 136.682H251.303Z" fill="#455A64"/>
<path d="M256.547 136.673L252.767 198.869L250.701 231.116L250.18 239.198C250.046 241.892 249.785 244.586 249.758 247.28C249.651 251.59 249.66 255.901 249.758 260.202C249.669 255.901 249.651 251.599 249.758 247.289C249.758 244.595 250.028 241.901 250.171 239.207L250.656 231.125L252.623 198.869L256.592 136.682L256.547 136.673Z" fill="#455A64"/>
<path d="M266.048 232.4C266.048 237.788 265.922 243.266 265.994 248.698C266.048 252.973 266.111 257.238 266.21 261.504C266.111 257.238 266.021 252.964 265.967 248.689C265.868 243.257 265.967 237.824 265.967 232.391L266.147 199.802L266.677 136.691L266.326 199.802L266.048 232.4Z" fill="#455A64"/>
<path d="M291.497 257.643L288.076 217.403C286.819 202.676 285.601 187.946 284.421 173.213C284.449 171.624 284.392 170.036 284.251 168.453C284.134 166.864 283.999 165.274 283.846 163.694C283.55 160.524 283.236 157.354 282.886 154.184C282.266 148.347 281.583 142.51 280.883 136.664C281.601 142.495 282.284 148.335 282.93 154.184C283.29 157.345 283.622 160.512 283.927 163.685C284.08 165.274 284.215 166.855 284.34 168.444C284.489 170.032 284.552 171.627 284.529 173.222C285.774 187.949 287.001 202.673 288.211 217.394L291.497 257.643Z" fill="#455A64"/>
<path d="M283.299 259.43L280.156 198.366L279.383 182.408L278.988 174.434L278.503 166.451L276.707 136.61L278.629 166.451L279.141 174.425L279.545 182.408L280.38 198.357L283.299 259.43Z" fill="#455A64"/>
<path d="M274.66 260.777H274.651L273.061 198.895L271.652 136.664L273.259 198.895L274.66 260.777Z" fill="#455A64"/>
<path d="M268.5 56.0236C274.013 61.0524 275.908 69.6283 275.908 69.6283C275.908 69.6283 281.359 78.1234 280.147 82.9097C279.83 84.2684 279.19 85.5302 278.28 86.5874C277.369 87.6445 276.217 88.4655 274.92 88.9802L275.306 86.3401C275.306 86.3401 273.753 89.7705 268.122 91.3779C262.492 92.9853 254.922 91.5665 250.935 89.7615C248.569 88.7039 246.518 87.0518 244.981 84.9662L246.606 88.7018C244.749 88.5764 242.951 87.9934 241.373 87.0048C239.795 86.0161 238.487 84.6525 237.563 83.0355C234.043 77.3242 243.068 68.4879 243.787 66.638C244.505 64.7881 244.936 51.5246 258.936 53.168C258.954 53.2039 264.728 52.5663 268.5 56.0236Z" fill="#263238"/>
<path d="M276.914 88.5491C278.463 87.5997 279.685 86.199 280.416 84.5351C281.216 82.9098 281.447 81.0629 281.071 79.2908C280.466 77.2154 279.493 75.2656 278.198 73.5346C276.986 71.6847 275.63 69.9426 274.444 68.0478C274.381 67.94 274.534 67.8502 274.615 67.9311C275.92 69.3234 277.141 70.7927 278.27 72.3313C279.417 73.7282 280.399 75.2529 281.197 76.8751C281.956 78.3685 282.268 80.0491 282.095 81.7154C281.879 83.0688 281.34 84.3503 280.524 85.451C279.507 86.6671 278.336 87.7448 277.039 88.6569C276.914 88.7197 276.824 88.594 276.914 88.5491Z" fill="#263238"/>
<path d="M236.145 77.0459C237.599 72.1069 241.838 68.8292 244.316 64.4739C245.663 62.1122 246.66 59.517 248.456 57.4426C248.501 57.3887 248.6 57.4426 248.555 57.5234C247.091 59.3912 246.292 61.5824 245.268 63.6927C244.174 65.7888 242.875 67.7711 241.389 69.6105C238.776 73.0408 235.642 77.0908 236.477 81.6886C236.863 83.8079 238.228 86.1157 240.446 86.6905C240.536 86.6905 240.491 86.8521 240.446 86.8162C239.567 86.5084 238.761 86.0248 238.075 85.3948C237.39 84.7649 236.84 84.0019 236.459 83.1523C235.625 81.2204 235.514 79.0532 236.145 77.0459Z" fill="#263238"/>
<path d="M235.992 78.3751C235.763 76.5377 236.109 74.6746 236.98 73.041C237.956 71.4869 239.258 70.1633 240.796 69.1616C242.485 67.9313 244.263 66.755 245.286 64.8692C245.286 64.7883 245.439 64.8692 245.403 64.941C243.778 68.0481 240.509 69.6016 238.363 72.2417C235.911 75.268 236.1 79.5066 238.012 82.7573C239.234 84.7317 240.901 86.3925 242.88 87.6065C242.88 87.6065 242.88 87.6784 242.88 87.6604C239.485 85.6399 236.441 82.434 235.992 78.3751Z" fill="#263238"/>
<path d="M262.797 93.9192C261.684 98.6606 245.942 133.341 233.585 138.909C226.482 142.115 214.494 142.77 217.942 128.726C220.232 119.395 240.554 102.414 252.138 93.1289C256.871 89.3394 264.153 88.136 262.797 93.9192Z" fill="#EB9481"/>
<path d="M253.395 118.048L243.365 100.214C247.208 96.6344 251.262 93.2879 255.505 90.1922C262.689 84.9299 266.551 87.2468 262.869 98.6693C260.645 105.545 257.455 112.07 253.395 118.048Z" fill="#F9C337"/>
<path d="M245.969 98.7417C246.867 99.981 247.576 101.355 248.366 102.666C249.157 103.977 249.866 105.162 250.575 106.429C252.048 109.069 253.467 111.727 254.832 114.43C254.832 114.475 254.778 114.52 254.751 114.475C253.201 111.924 251.686 109.35 250.207 106.752C249.471 105.468 248.761 104.157 248.061 102.846C247.361 101.535 246.507 100.152 245.888 98.7866C245.87 98.7417 245.942 98.6968 245.969 98.7417Z" fill="#263238"/>
<path d="M262.86 98.6696C260.642 105.546 257.455 112.071 253.395 118.048L245.646 104.255L263.264 88.1899C264.665 89.5369 264.728 92.9763 262.86 98.6696Z" fill="#263238"/>
<path d="M247.819 125.062L245.609 136.736L292.009 136.655C292.009 136.655 283.487 101.319 272.388 89.5552C267.341 84.1672 262.429 85.0652 258.271 88.5225C257.328 89.3128 246.723 107.219 245.259 113.289C244.074 118.246 247.819 125.062 247.819 125.062Z" fill="#F9C337"/>
<path d="M266.757 125.654C265.12 125.326 263.465 125.092 261.8 124.954C260.965 124.891 260.139 124.873 259.304 124.873C258.909 124.873 258.505 124.873 258.11 124.873C257.714 124.873 257.212 124.963 256.79 124.972V125.044C257.203 125.044 257.616 125.116 258.029 125.151C258.442 125.187 258.864 125.196 259.277 125.232L261.764 125.394C263.435 125.493 265.087 125.609 266.748 125.762C266.758 125.772 266.77 125.779 266.784 125.782C266.797 125.785 266.811 125.784 266.824 125.78C266.837 125.775 266.849 125.767 266.857 125.756C266.865 125.745 266.87 125.732 266.872 125.718C266.873 125.704 266.87 125.691 266.863 125.678C266.857 125.666 266.847 125.656 266.835 125.649C266.823 125.643 266.809 125.64 266.795 125.64C266.782 125.641 266.768 125.646 266.757 125.654Z" fill="#263238"/>
<path d="M268.059 95.967C269.245 100.655 278.835 134.707 278.755 136.458C278.755 136.458 297.972 148.132 301.465 137.149C303.737 129.965 284.834 99.7745 275.423 90.7047C271.014 86.538 265.563 86.1339 268.059 95.967Z" fill="#EB9481"/>
<path d="M291.767 108.566L271.382 110.362C269.695 105.388 268.309 100.317 267.233 95.1764C265.392 86.4658 269.092 83.8885 278.009 91.9436C283.358 96.806 287.99 102.402 291.767 108.566Z" fill="#F9C337"/>
<path d="M271.113 107.398C272.603 107.093 274.157 107.003 275.675 106.824C277.192 106.644 278.566 106.482 280.012 106.357C283.029 106.096 286.029 105.908 289.055 105.773C289.067 105.773 289.078 105.778 289.087 105.786C289.095 105.795 289.1 105.806 289.1 105.818C289.1 105.83 289.095 105.841 289.087 105.85C289.078 105.858 289.067 105.863 289.055 105.863C286.091 106.231 283.119 106.545 280.147 106.833C278.665 106.976 277.183 107.075 275.702 107.183C274.22 107.291 272.639 107.497 271.113 107.488C271.101 107.488 271.089 107.483 271.081 107.475C271.073 107.467 271.068 107.455 271.068 107.443C271.068 107.431 271.073 107.42 271.081 107.411C271.089 107.403 271.101 107.398 271.113 107.398Z" fill="#263238"/>
<path d="M270.466 108.476C270.224 107.767 270.008 107.057 269.802 106.339C269.802 106.195 269.721 106.043 269.676 105.899C269.224 105.08 268.816 104.238 268.455 103.376C268.455 103.376 268.455 103.322 268.5 103.376C268.864 103.993 269.196 104.628 269.496 105.279C269.171 104.185 268.907 103.072 268.706 101.948C268.706 101.948 268.706 101.948 268.76 101.948C269.263 103.358 269.658 104.794 270.134 106.222C270.358 106.905 271.373 110.326 271.409 110.326C271.621 110.312 271.834 110.312 272.047 110.326C272.172 110.326 272.1 110.38 272.047 110.389L271.149 110.595C271.149 110.595 270.673 109.069 270.466 108.476Z" fill="#263238"/>
<path d="M219.774 96.8019C221.417 95.0059 238.515 90.2914 239.036 93.8654C241.614 111.403 233.523 133.629 227.524 138.909C222.333 143.471 218.248 138.352 216.676 134.033C215.248 130.082 218.158 98.5979 219.774 96.8019Z" fill="#EB9481"/>
<path d="M219.217 102.271C219.217 102.271 218.409 100.555 216.775 93.4073C215.932 88.4995 216.536 83.4525 218.513 78.8823C220.491 74.3121 223.756 70.4164 227.91 67.6706C232.4 64.5995 236.558 66.4314 232.4 70.4544C229.491 73.2831 227.228 74.9983 226.545 76.1926C226.545 76.1926 232.723 75.573 235.094 78.285C237.165 80.6556 239.064 83.1703 240.778 85.8102C240.37 86.2384 239.932 86.6375 239.467 87.0046C239.467 87.0046 241.676 93.533 239.351 98.0679L219.217 102.271Z" fill="#EB9481"/>
<path d="M216.46 88.5136C217.718 86.1698 220.475 81.2488 224.129 78.016C228.188 74.424 236.971 68.578 239.602 71.5953C241.524 73.8133 238.363 76.3367 238.363 76.3367C238.363 76.3367 242.502 74.6934 243.805 77.0731C244.99 79.2462 242.431 81.0512 242.431 81.0512C242.431 81.0512 245.125 80.4855 245.852 82.7933C246.75 85.5771 240.976 86.3045 239.44 89.9055C239.099 90.7137 216.46 88.5136 216.46 88.5136Z" fill="#EB9481"/>
<path d="M227.263 83.0267C230.181 79.7448 234.032 77.4325 238.3 76.3994C238.416 76.3994 238.488 76.3994 238.39 76.4892C234.434 78.2202 230.706 80.4309 227.29 83.0716C227.29 83.0716 227.245 83.0536 227.263 83.0267Z" fill="#263238"/>
<path d="M230.963 86.9237C232.481 85.3252 237.474 81.7691 242.386 80.9609C242.494 80.9609 242.566 81.0238 242.467 81.0597C238.431 82.5857 234.584 84.5682 230.999 86.9686C230.999 86.9686 230.945 86.9237 230.963 86.9237Z" fill="#263238"/>
<path d="M220.466 75.1783C221.786 73.1122 223.357 71.2179 225.144 69.5389C226.901 67.7817 229.107 66.5394 231.52 65.9469C232.157 65.7961 232.826 65.8592 233.424 66.1264C233.737 66.2921 233.975 66.5717 234.088 66.9077C234.204 67.2202 234.25 67.5543 234.223 67.8865C234.162 68.547 233.903 69.1733 233.478 69.6825C233.088 70.1757 232.642 70.6218 232.149 71.0116C231.251 71.7928 230.353 72.619 229.455 73.4541L228.152 74.7293C227.725 75.1415 227.323 75.5793 226.949 76.0404L226.608 75.6991C228.027 74.8011 229.446 73.9031 230.9 73.1039C232.338 72.2396 233.839 71.486 235.39 70.8499C236.217 70.5473 237.105 70.4517 237.977 70.5716C238.431 70.6138 238.87 70.7547 239.264 70.9842C239.658 71.2137 239.997 71.5265 240.258 71.9006C240.497 72.3098 240.598 72.7854 240.545 73.2566C240.492 73.7046 240.352 74.1379 240.132 74.5317C239.704 75.2791 239.165 75.9573 238.533 76.5433L238.282 76.1392C239.135 75.8497 240.023 75.6746 240.922 75.6183C241.382 75.5856 241.844 75.6158 242.296 75.7081C242.771 75.7997 243.21 76.0239 243.562 76.3547C243.897 76.7082 244.121 77.1512 244.209 77.6298C244.321 78.09 244.321 78.5705 244.209 79.0307C243.932 79.9197 243.374 80.6949 242.619 81.2398L242.476 80.8985C243.047 80.8335 243.625 80.8731 244.182 81.0153C244.757 81.1412 245.273 81.4576 245.646 81.9133C245.813 82.1534 245.938 82.4208 246.014 82.7035C246.107 82.9932 246.143 83.2981 246.121 83.6015C246.079 83.8963 245.978 84.1795 245.824 84.4341C245.669 84.6887 245.465 84.9095 245.223 85.0832C244.335 85.7413 243.405 86.3412 242.44 86.8792C241.502 87.4377 240.682 88.1727 240.024 89.0434C240.168 89.7439 240.284 90.4443 240.365 91.1627C240.446 91.8728 240.446 92.5898 240.365 93.2999C240.413 92.5861 240.38 91.8691 240.266 91.1627C240.168 90.4623 240.033 89.7618 239.871 89.0704C240.512 88.164 241.327 87.3947 242.269 86.8074C243.196 86.2536 244.095 85.6542 244.963 85.0114C245.275 84.7841 245.506 84.4621 245.621 84.0933C245.736 83.7244 245.729 83.3284 245.601 82.9639C245.532 82.7182 245.42 82.4869 245.268 82.2815C244.905 81.9076 244.455 81.6297 243.958 81.473C243.462 81.3162 242.933 81.2855 242.422 81.3835L241.748 81.4553L242.287 81.0333C242.957 80.5337 243.448 79.8314 243.688 79.0307C243.782 78.6352 243.782 78.223 243.688 77.8274C243.608 77.439 243.425 77.0793 243.158 76.7857C242.833 76.5406 242.462 76.3621 242.068 76.2604C241.673 76.1587 241.263 76.1358 240.859 76.193C240.005 76.2551 239.163 76.4271 238.354 76.7049L237.357 77.0372L238.111 76.3008C238.702 75.7488 239.204 75.1098 239.602 74.406C239.806 74.0914 239.926 73.7294 239.95 73.3551C239.973 72.9807 239.9 72.6066 239.737 72.2688C239.51 71.9639 239.222 71.7102 238.891 71.5245C238.56 71.3388 238.193 71.2252 237.815 71.1912C237.026 71.096 236.226 71.1883 235.48 71.4606C233.951 72.0886 232.469 72.8238 231.044 73.6607C229.601 74.4749 228.176 75.328 226.77 76.22L225.62 76.9474L226.428 75.8787C226.826 75.393 227.252 74.9313 227.703 74.4958C228.134 74.0648 228.601 73.5978 229.024 73.2207C229.922 72.3765 230.82 71.5594 231.771 70.7691C232.244 70.4075 232.672 69.9916 233.047 69.5299C233.426 69.0992 233.667 68.564 233.738 67.9943C233.76 67.7144 233.724 67.4329 233.63 67.1681C233.594 67.0438 233.534 66.928 233.452 66.8277C233.37 66.7274 233.269 66.6447 233.154 66.5844C232.63 66.349 232.043 66.2923 231.484 66.4228C229.123 66.9825 226.954 68.1603 225.198 69.8352C223.416 71.4244 221.828 73.2177 220.466 75.1783Z" fill="#263238"/>
<path d="M239.458 103.716C239.411 106.059 239.237 108.397 238.938 110.721C238.65 113.047 238.237 115.354 237.761 117.653C237.243 119.943 236.601 122.203 235.839 124.424C235.065 126.641 234.063 128.772 232.849 130.782C233.826 128.667 234.66 126.489 235.346 124.263C236.028 122.036 236.627 119.785 237.142 117.51C237.671 115.238 238.04 112.948 238.462 110.649C238.884 108.35 239.153 106.042 239.458 103.716Z" fill="#263238"/>
<path d="M264.629 136.727C256.547 133.988 248.321 129.911 243.185 122.664C242.585 121.876 242.268 120.907 242.287 119.916C239.934 116.71 240.733 114.636 240.733 114.636C239.458 110.972 240.572 108.961 240.572 108.961C240.572 108.961 237.878 105.171 239.862 103.142C242.125 100.861 245.511 106.635 249.318 108.673C258.038 113.343 271.768 117.546 274.39 118.641L264.629 136.727Z" fill="#EB9481"/>
<path d="M255.048 119.781C252.48 118.453 250.005 116.953 247.639 115.291C245.173 113.296 242.856 111.123 240.707 108.79C240.692 108.781 240.675 108.777 240.658 108.779C240.642 108.78 240.626 108.787 240.613 108.797C240.6 108.808 240.591 108.823 240.587 108.839C240.583 108.856 240.584 108.873 240.59 108.889C244.28 113.812 249.249 117.629 254.958 119.925C255.11 119.952 255.173 119.853 255.048 119.781Z" fill="#263238"/>
<path d="M252.991 125.538C250.603 124.011 246.409 121.308 240.832 114.448C240.832 114.448 240.778 114.448 240.787 114.448C243.718 119.224 247.918 123.092 252.919 125.619C253.054 125.718 253.153 125.619 252.991 125.538Z" fill="#263238"/>
<path d="M251.833 128.519C247.864 125.825 245.708 123.544 242.341 119.755C242.341 119.755 242.278 119.755 242.296 119.755C245.663 124.469 247.424 125.789 251.761 128.645C251.905 128.771 251.985 128.627 251.833 128.519Z" fill="#263238"/>
<path d="M260.238 113.631C261.612 113.792 261.711 113.074 259.96 111.341C258.209 109.608 249.812 104.229 251.932 101.463C254.051 98.6968 265.797 106.456 268.491 109.545C270.722 112.405 272.713 115.444 274.444 118.632C271.831 117.591 265.312 115.66 260.238 113.631Z" fill="#EB9481"/>
<path d="M274.66 118.569C271.966 118.255 256.269 131.662 259.645 133.835C275.522 144.064 291.866 144.611 295.565 143.938C300.379 143.04 302.408 137.239 301.357 134.213C299.813 129.821 277.345 118.884 274.66 118.569Z" fill="#EB9481"/>
<path d="M294.021 127.881C286.163 121.811 274.507 118.354 274.489 118.345C274.328 118.255 273.995 118.479 274.085 118.533C275.791 119.431 287.69 124.227 293.841 128.07C293.895 128.106 294.075 127.926 294.021 127.881Z" fill="#263238"/>
<path d="M247.109 107.084C246.197 106.192 245.241 105.347 244.245 104.551C243.257 103.797 242.251 102.845 241.021 102.818C240.731 102.825 240.448 102.902 240.195 103.043C239.955 103.2 239.76 103.416 239.629 103.671C239.384 104.236 239.297 104.857 239.377 105.467C239.434 106.093 239.607 106.702 239.889 107.263C240.158 107.833 240.458 108.387 240.787 108.924L240.841 109.014V109.113C240.551 109.999 240.42 110.929 240.455 111.861C240.483 112.801 240.678 113.728 241.03 114.6V114.681V114.77C240.872 115.185 240.813 115.631 240.859 116.073C240.899 116.536 241.001 116.993 241.164 117.429C241.328 117.867 241.523 118.293 241.748 118.704C241.983 119.116 242.241 119.514 242.52 119.898L242.565 119.961V120.069C242.48 120.65 242.588 121.242 242.871 121.757C243.141 122.317 243.457 122.855 243.814 123.364C244.544 124.388 245.352 125.355 246.229 126.256C245.302 125.399 244.444 124.471 243.661 123.481C243.264 122.98 242.921 122.438 242.637 121.865C242.495 121.577 242.38 121.276 242.296 120.967C242.193 120.627 242.193 120.265 242.296 119.925V120.096C241.997 119.711 241.721 119.309 241.47 118.892C241.215 118.469 240.999 118.025 240.823 117.563C240.644 117.1 240.532 116.613 240.491 116.117C240.428 115.6 240.496 115.075 240.689 114.591V114.761C240.314 113.847 240.101 112.875 240.06 111.888C240.015 110.896 240.161 109.906 240.491 108.969V109.158C240.156 108.605 239.857 108.032 239.593 107.443C239.303 106.848 239.124 106.206 239.063 105.548C238.987 104.872 239.099 104.189 239.386 103.572C239.553 103.263 239.801 103.005 240.105 102.827C240.413 102.66 240.76 102.576 241.111 102.585C241.777 102.636 242.416 102.875 242.951 103.276C243.472 103.65 243.973 104.052 244.451 104.479C245.331 105.252 246.238 106.15 247.109 107.084Z" fill="#263238"/>
<path d="M256.062 89.7884C256.062 89.7884 255.533 95.2842 259.493 95.9577C263.453 96.6312 271.077 87.3548 271.077 87.3548C271.077 87.3548 268.5 85.5588 263.893 85.9091C260.91 86.2484 258.14 87.6209 256.062 89.7884Z" fill="#EB9481"/>
<path d="M267.018 87.9205C266.865 88.8185 262.914 94.9519 258.783 95.0057C257.436 95.0057 256.987 87.6781 256.987 87.6781L256.835 87.1393L254.679 79.6499L263.246 73.3639L264.495 72.5288C264.495 72.5288 264.953 74.6122 265.491 77.2253L265.572 77.5935C265.572 77.7372 265.635 77.8809 265.662 78.0156C265.752 78.4017 265.833 78.8058 265.913 79.2009C265.994 79.5961 266.03 79.7936 266.084 80.0989C266.138 80.4043 266.201 80.7275 266.255 81.0418C266.671 83.3138 266.927 85.6125 267.018 87.9205Z" fill="#EB9481"/>
<path d="M265.518 77.2432C264.88 79.4201 263.775 81.4317 262.28 83.1378C260.785 84.8438 258.936 86.2032 256.861 87.1212L254.706 79.6319L263.273 73.3459L264.521 72.5107C264.521 72.5107 264.979 74.63 265.518 77.2432Z" fill="#263238"/>
<path d="M242.664 67.0058C239.53 80.3322 247.154 83.7176 250.028 84.3911C252.632 85.0018 261.594 86.7529 266.093 73.8217C270.592 60.8905 265.383 55.2241 259.493 53.5089C253.602 51.7937 245.807 53.6975 242.664 67.0058Z" fill="#EB9481"/>
<path d="M245.394 64.6891C245.693 64.7095 245.993 64.7095 246.292 64.6891C246.626 64.7403 246.968 64.677 247.262 64.5095C247.342 64.4382 247.397 64.3426 247.418 64.2373C247.439 64.1319 247.425 64.0226 247.378 63.9258C247.257 63.7491 247.091 63.6077 246.897 63.5162C246.703 63.4247 246.488 63.3863 246.274 63.405C245.835 63.3745 245.402 63.5126 245.062 63.7911C244.983 63.8594 244.927 63.9499 244.902 64.0506C244.876 64.1513 244.881 64.2574 244.918 64.3549C244.954 64.4524 245.019 64.5366 245.104 64.5963C245.189 64.656 245.29 64.6884 245.394 64.6891Z" fill="#263238"/>
<path d="M254.311 66.8178C254.005 66.7103 253.705 66.5843 253.413 66.4407C253.091 66.3461 252.808 66.151 252.605 65.8839C252.559 65.7862 252.547 65.6763 252.57 65.5709C252.592 65.4655 252.649 65.3705 252.731 65.3002C252.915 65.1903 253.126 65.1323 253.341 65.1323C253.556 65.1323 253.767 65.1903 253.952 65.3002C254.368 65.4496 254.711 65.7513 254.913 66.1443C254.945 66.2314 254.952 66.3255 254.935 66.4166C254.918 66.5077 254.876 66.5924 254.814 66.6615C254.752 66.7307 254.673 66.7818 254.584 66.8093C254.496 66.8368 254.401 66.8398 254.311 66.8178Z" fill="#263238"/>
<path d="M251.725 69.3501C251.725 69.3501 251.788 69.413 251.779 69.4489C251.527 70.3469 251.402 71.4155 252.156 71.9184C252.156 71.9184 252.156 71.9723 252.156 71.9184C251.168 71.5861 251.348 70.1673 251.725 69.3501Z" fill="#263238"/>
<path d="M252.758 68.5954C254.239 68.8289 253.656 71.7833 252.291 71.5678C250.926 71.3523 251.509 68.3979 252.758 68.5954Z" fill="#263238"/>
<path d="M253.305 68.8649C253.53 69.0805 253.727 69.4307 254.033 69.5205C254.338 69.6103 254.715 69.3678 255.012 69.1164H255.057C254.949 69.6821 254.616 70.2209 253.997 70.185C253.377 70.1491 253.099 69.5744 253.099 68.9817C253.099 68.9637 253.216 68.7751 253.305 68.8649Z" fill="#263238"/>
<path d="M246.714 68.2632C246.714 68.2632 246.633 68.2632 246.633 68.326C246.49 69.224 246.166 70.2747 245.286 70.4274V70.4812C246.319 70.5261 246.768 69.1522 246.714 68.2632Z" fill="#263238"/>
<path d="M246.077 67.1678C244.622 66.7817 243.957 69.7092 245.304 70.0684C246.651 70.4276 247.298 67.4731 246.077 67.1678Z" fill="#263238"/>
<path d="M245.421 67.1677C245.152 67.2665 244.864 67.5 244.577 67.4551C244.29 67.4102 244.092 67.033 243.957 66.6738C243.957 66.6738 243.912 66.6738 243.903 66.6738C243.76 67.2306 243.814 67.8592 244.325 68.0837C244.837 68.3082 245.223 67.8951 245.529 67.3743C245.574 67.3384 245.529 67.1677 245.421 67.1677Z" fill="#263238"/>
<path d="M250.36 76.974C250.108 77.1626 249.839 77.423 249.462 77.405C249.142 77.3437 248.838 77.2218 248.564 77.0458C248.564 77.0458 248.501 77.0458 248.564 77.0458C248.67 77.2457 248.827 77.4136 249.02 77.532C249.212 77.6505 249.433 77.7151 249.659 77.7193C249.855 77.6996 250.04 77.6213 250.191 77.4948C250.341 77.3683 250.45 77.1993 250.504 77.0099C250.504 77.0099 250.36 76.9471 250.36 76.974Z" fill="#263238"/>
<path d="M247.217 72.8881C247.217 72.8881 246.741 74.2082 246.606 74.8548C246.606 74.9086 246.75 74.9715 246.966 75.0344C247.496 75.2497 248.076 75.315 248.641 75.2231C249.207 75.1313 249.736 74.8858 250.171 74.5135C250.234 74.4596 250.171 74.3788 250.1 74.4058C249.162 74.7983 248.121 74.874 247.136 74.6213C247.136 74.4327 248.034 72.3853 247.926 72.3583C247.42 72.2872 246.906 72.2872 246.4 72.3583C247.298 69.5655 248.645 66.9703 249.498 64.1686C249.498 64.0608 249.39 64.0069 249.345 64.0877C247.819 66.8486 246.57 69.7545 245.619 72.7624C245.511 73.1486 246.939 72.942 247.217 72.8881Z" fill="#263238"/>
<path d="M247.118 74.7379C247.36 75.3442 247.753 75.8789 248.259 76.2915C248.54 76.5088 248.882 76.6314 249.237 76.6417C250.019 76.6417 250.225 75.9951 250.252 75.3935C250.265 75.0715 250.241 74.749 250.18 74.4326C249.218 74.8567 248.145 74.9636 247.118 74.7379Z" fill="#263238"/>
<path d="M248.259 76.2915C248.54 76.5088 248.882 76.6314 249.237 76.6417C250.019 76.6417 250.225 75.9952 250.252 75.3935C249.867 75.3029 249.463 75.3418 249.103 75.5042C248.742 75.6665 248.446 75.9433 248.259 76.2915Z" fill="#FF98B9"/>
<path d="M264.854 75.555C264.086 74.9629 263.486 74.1814 263.111 73.2872C262.736 72.393 262.6 71.4169 262.717 70.4544C260.606 68.9504 258.935 66.9106 257.876 64.5455C257.876 64.8419 258.137 66.9521 258.289 68.0208C250.207 64.6802 248.923 57.6848 248.923 57.6848C247 58.8305 245.361 60.3961 244.128 62.2646C244.128 62.2646 245.152 57.0742 248.537 54.1826C249.654 53.1637 251.022 52.4604 252.501 52.1448C253.98 51.8292 255.516 51.9126 256.951 52.3866C259.14 52.3163 261.308 52.8382 263.225 53.8971C265.142 54.956 266.738 56.5128 267.844 58.4032C272.065 65.4704 264.854 75.555 264.854 75.555Z" fill="#263238"/>
<path d="M252.156 65.2822C253.355 66.3107 254.702 67.1523 256.152 67.7787C253.922 66.6335 252.056 64.8888 250.764 62.7409C250.209 61.8204 249.771 60.8339 249.462 59.8044C249.089 58.6923 248.939 57.5173 249.022 56.3471C249.017 56.3334 249.008 56.3215 248.996 56.3132C248.984 56.3048 248.969 56.3003 248.955 56.3003C248.94 56.3003 248.926 56.3048 248.914 56.3132C248.902 56.3215 248.892 56.3334 248.887 56.3471C248.694 57.4915 248.694 58.6601 248.887 59.8044C249.123 60.9347 249.558 62.0141 250.171 62.9923C250.723 63.8442 251.391 64.615 252.156 65.2822Z" fill="#263238"/>
<path d="M264.638 78.7432C264.422 78.7869 264.203 78.8109 263.983 78.815C263.767 78.8176 263.553 78.7904 263.345 78.7342C263.071 78.6714 262.816 78.5453 262.6 78.366C262.425 78.2335 262.271 78.0762 262.142 77.899C261.959 77.6478 261.825 77.3645 261.747 77.0639L263.022 73.5527C263.022 73.5527 266.614 69.7632 268.356 71.0922C270.098 72.4212 267.009 78.2313 264.638 78.7432Z" fill="#EB9481"/>
<path d="M267.422 72.7357C267.422 72.7357 267.422 72.7896 267.422 72.7985C265.743 73.2026 264.728 74.5945 263.902 75.9775C264.017 75.8333 264.162 75.7157 264.327 75.633C264.492 75.5503 264.673 75.5044 264.857 75.4984C265.042 75.4925 265.225 75.5266 265.395 75.5984C265.565 75.6703 265.717 75.7782 265.842 75.9146C265.842 75.9146 265.842 76.0044 265.788 75.9864C265.522 75.8566 265.223 75.8128 264.932 75.8611C264.64 75.9094 264.371 76.0474 264.162 76.2559C263.827 76.6063 263.526 76.9882 263.264 77.3963C263.174 77.531 262.923 77.3963 263.004 77.2616C263.255 75.2501 265.231 72.6189 267.422 72.7357Z" fill="#263238"/>
<path d="M264.665 77.9889C264.622 78.1054 264.546 78.2067 264.446 78.2799C264.345 78.3531 264.226 78.3949 264.102 78.4002C263.978 78.4054 263.855 78.3738 263.749 78.3094C263.643 78.2449 263.558 78.1505 263.506 78.038C263.453 77.9255 263.435 77.8 263.454 77.6772C263.472 77.5545 263.527 77.4401 263.611 77.3484C263.695 77.2567 263.804 77.1918 263.924 77.162C264.045 77.1321 264.171 77.1387 264.288 77.1807C264.367 77.2077 264.439 77.2504 264.501 77.306C264.563 77.3617 264.613 77.4293 264.648 77.5047C264.683 77.5801 264.703 77.6619 264.706 77.7451C264.709 77.8283 264.695 77.9112 264.665 77.9889Z" fill="white"/>
<path d="M173.572 358.65C171.498 359.297 112.679 358.039 110.47 356.576C109.626 356.028 109.311 347.443 109.221 337.071C109.221 334.826 109.221 332.527 109.221 330.166C109.221 327.382 109.221 324.571 109.284 321.832C109.437 309.547 109.805 298.727 109.805 298.727L148.096 299.436L147.656 322.542L147.494 330.875L147.162 337.772C147.162 337.772 169.468 348.332 171.722 350.2C173.976 352.068 175.638 358.013 173.572 358.65Z" fill="#E98974"/>
<path d="M173.572 358.65C171.498 359.297 112.679 358.039 110.47 356.576C109.626 356.028 109.311 347.443 109.221 337.071C109.221 334.826 109.221 332.527 109.221 330.165C109.221 327.382 109.221 324.571 109.284 321.832L147.656 322.541L147.494 330.875L147.162 337.772C147.162 337.772 169.468 348.332 171.722 350.2C173.976 352.068 175.638 358.012 173.572 358.65Z" fill="white"/>
<path d="M173.743 358.749C172.396 359.162 147.342 358.749 129.103 358.076C124.892 357.905 121.021 357.716 117.914 357.519C113.631 357.24 110.73 356.953 110.29 356.621C109.266 355.938 109.006 343.348 109.015 330.067L147.503 330.785L147.171 337.718C147.171 337.718 169.621 348.332 171.866 350.209C174.111 352.086 175.826 358.12 173.743 358.749Z" fill="#C7C7C7"/>
<path d="M172.943 356.324C163.065 355.866 123.023 354.968 113.199 355.265C113.118 355.265 113.118 355.328 113.199 355.328C123.005 356.001 163.029 356.576 172.943 356.486C173.132 356.522 173.132 356.369 172.943 356.324Z" fill="#263238"/>
<path d="M148.617 335.571C144.737 334.763 139.951 335.257 136.943 337.978C136.826 338.077 136.943 338.247 137.104 338.211C140.858 337.089 144.72 336.37 148.626 336.065C148.683 336.053 148.734 336.021 148.771 335.976C148.807 335.93 148.826 335.873 148.825 335.814C148.824 335.756 148.803 335.7 148.765 335.655C148.727 335.611 148.674 335.581 148.617 335.571Z" fill="#263238"/>
<path d="M151.4 337.332C147.512 336.523 142.726 337.017 139.726 339.729C139.61 339.837 139.726 339.999 139.888 339.963C143.64 338.838 147.503 338.121 151.409 337.825C151.467 337.813 151.518 337.782 151.555 337.736C151.591 337.69 151.61 337.633 151.609 337.575C151.608 337.516 151.587 337.46 151.549 337.416C151.511 337.371 151.458 337.341 151.4 337.332Z" fill="#263238"/>
<path d="M154.184 339.091C150.296 338.274 145.509 338.777 142.465 341.489C142.349 341.597 142.465 341.758 142.627 341.722C146.383 340.6 150.248 339.88 154.157 339.576C154.222 339.58 154.285 339.558 154.333 339.515C154.381 339.472 154.41 339.412 154.413 339.347C154.417 339.283 154.395 339.22 154.352 339.172C154.309 339.124 154.248 339.095 154.184 339.091Z" fill="#263238"/>
<path d="M156.968 340.843C153.08 340.034 148.302 340.528 145.294 343.249C145.177 343.348 145.294 343.519 145.456 343.483C149.206 342.361 153.065 341.641 156.968 341.336C157.025 341.325 157.077 341.295 157.114 341.25C157.152 341.205 157.172 341.148 157.172 341.09C157.172 341.031 157.152 340.974 157.114 340.929C157.077 340.884 157.025 340.854 156.968 340.843Z" fill="#263238"/>
<path d="M143.642 358.533C138.694 358.408 133.683 358.246 129.103 358.066C124.882 357.905 121.021 357.716 117.914 357.518C113.63 357.24 110.73 356.962 110.29 356.62C109.392 356.019 109.078 346.294 109.033 334.97C117.761 340.834 134.913 352.553 143.642 358.533Z" fill="#A6A6A6"/>
<path d="M150.925 337.295L107.228 337.34C107.228 337.34 109.626 238.973 109.159 236.683C108.027 231.215 83.1794 144.486 83.1794 144.486L117.681 145.079L126.966 145.285C126.966 145.285 128.448 159.725 128.861 161.26C134.635 182.301 145.923 218.221 148.186 231.547C152.164 254.626 150.925 337.295 150.925 337.295Z" fill="#292826"/>
<path d="M149.515 329.995C142.699 329.815 118.552 329.097 109.464 329.779C109.392 329.779 109.392 329.896 109.464 329.905C112.571 330.417 142.69 330.273 149.515 330.183C149.535 330.177 149.552 330.165 149.565 330.148C149.577 330.131 149.584 330.11 149.584 330.089C149.584 330.068 149.577 330.048 149.565 330.031C149.552 330.014 149.535 330.001 149.515 329.995Z" fill="#323637"/>
<path d="M112.58 234.51C111.278 229.194 101.543 196.067 98.571 185.596C95.5986 175.125 92.7968 164.628 90.2286 154.067C89.9053 152.729 89.573 151.373 89.2138 150.062C89.2138 149.946 89.0252 149.999 89.0432 150.107C90.031 155.423 91.3241 160.704 92.5813 165.966C93.8385 171.228 95.1586 176.472 96.5684 181.699C99.3882 192.205 102.465 202.634 105.8 212.985C107.461 218.149 110.209 228.736 111.673 233.962C113.137 239.189 110.775 324.84 110.901 326.232C110.913 326.305 110.951 326.371 111.008 326.419C111.064 326.467 111.136 326.493 111.21 326.493C111.285 326.493 111.356 326.467 111.413 326.419C111.47 326.371 111.508 326.305 111.52 326.232C111.709 316.129 113.864 239.763 112.58 234.51Z" fill="#323637"/>
<path d="M117.69 145.07C117.69 145.07 109.248 237.124 109.159 236.666C108.072 231.377 84.706 149.82 83.2422 144.72C83.1884 144.558 83.1704 144.477 83.1704 144.477L117.69 145.07Z" fill="#292826"/>
<path d="M128.232 363.696C126.158 364.343 67.3387 363.077 65.1296 361.613C64.2855 361.065 63.9711 352.48 63.8813 342.109C63.8813 339.873 63.8813 337.565 63.8813 335.203C63.8813 332.428 63.8814 329.608 63.9352 326.87C64.0879 314.585 64.4561 303.773 64.4561 303.773L102.756 304.482L102.307 327.579L102.145 335.912L101.813 342.818C101.813 342.818 124.119 353.369 126.373 355.246C128.627 357.123 130.315 363.059 128.232 363.696Z" fill="#E98974"/>
<path d="M128.232 363.697C126.158 364.343 67.3387 363.077 65.1296 361.613C64.2855 361.065 63.9711 352.481 63.8813 342.109C63.8813 339.873 63.8813 337.565 63.8813 335.203C63.8813 332.428 63.8814 329.609 63.9352 326.87L102.307 327.579L102.145 335.912L101.813 342.818C101.813 342.818 124.119 353.37 126.373 355.246C128.627 357.123 130.315 363.059 128.232 363.697Z" fill="white"/>
<path d="M128.42 363.786C127.073 364.199 102.019 363.831 83.7809 363.113C79.5692 362.942 75.6989 362.754 72.5918 362.565C68.3083 362.287 65.4078 361.999 64.9678 361.667C63.9441 360.985 63.6836 348.395 63.6926 335.113L102.181 335.823L101.849 342.755C101.849 342.755 124.299 353.37 126.544 355.255C128.789 357.141 130.495 363.131 128.42 363.786Z" fill="#C7C7C7"/>
<path d="M127.63 361.398C117.752 360.949 77.7014 360.042 67.8773 360.347C67.7964 360.347 67.7964 360.401 67.8773 360.41C77.6834 361.075 117.707 361.649 127.621 361.568C127.828 361.559 127.837 361.416 127.63 361.398Z" fill="#263238"/>
<path d="M103.295 340.618C99.4152 339.801 94.6288 340.304 91.6205 343.016C91.5038 343.124 91.6205 343.285 91.7822 343.249C95.5385 342.126 99.4037 341.407 103.312 341.103C103.377 341.101 103.438 341.073 103.481 341.026C103.525 340.979 103.548 340.916 103.546 340.852C103.544 340.787 103.516 340.727 103.469 340.683C103.421 340.639 103.359 340.616 103.295 340.618Z" fill="#263238"/>
<path d="M106.078 342.369C102.19 341.561 97.4035 342.055 94.4042 344.776C94.2875 344.875 94.4042 345.045 94.5659 345.01C98.307 343.885 102.157 343.163 106.051 342.854C106.105 342.843 106.154 342.814 106.19 342.772C106.226 342.73 106.248 342.677 106.251 342.622C106.254 342.567 106.239 342.512 106.207 342.467C106.176 342.421 106.131 342.387 106.078 342.369Z" fill="#263238"/>
<path d="M108.862 344.129C104.974 343.321 100.187 343.815 97.1432 346.527C97.0265 346.634 97.1432 346.805 97.3049 346.76C101.063 345.649 104.928 344.942 108.835 344.65C108.904 344.653 108.972 344.629 109.023 344.583C109.075 344.537 109.106 344.472 109.109 344.403C109.113 344.334 109.089 344.266 109.042 344.215C108.996 344.163 108.931 344.132 108.862 344.129Z" fill="#263238"/>
<path d="M111.637 345.89C107.748 345.072 102.971 345.575 99.9628 348.287C99.8461 348.395 99.9628 348.557 100.124 348.521C103.877 347.397 107.74 346.68 111.646 346.384C111.703 346.372 111.754 346.34 111.791 346.294C111.827 346.248 111.847 346.191 111.846 346.133C111.845 346.074 111.823 346.018 111.785 345.974C111.747 345.929 111.694 345.9 111.637 345.89Z" fill="#263238"/>
<path d="M104.399 341.75L61.9956 340.968C61.9956 340.968 73.9031 188.03 72.4214 179.93C69.9968 166.667 72.6638 154.562 76.193 144.342L119.764 145.106C119.764 145.106 120.366 156.717 115.974 163.559C115.974 163.559 112.059 165.939 110.155 166.981L104.399 341.75Z" fill="#292826"/>
<path d="M103.232 334.224C96.802 333.937 98.6519 333.928 92.2222 333.713C89.0702 333.605 68.3893 332.931 65.4348 333.353C65.372 333.353 65.363 333.47 65.4348 333.479C68.3623 334.036 89.0523 334.377 92.2042 334.377C98.6429 334.467 96.793 334.377 103.232 334.377C103.243 334.368 103.252 334.356 103.258 334.343C103.265 334.33 103.268 334.315 103.268 334.301C103.268 334.286 103.265 334.272 103.258 334.259C103.252 334.245 103.243 334.234 103.232 334.224Z" fill="#323637"/>
<path d="M118.587 161.745C114.491 163.635 110.562 165.867 106.842 168.417C106.811 168.436 106.789 168.467 106.78 168.502C106.772 168.538 106.778 168.575 106.797 168.606C106.816 168.637 106.846 168.659 106.882 168.667C106.917 168.676 106.954 168.67 106.985 168.651C110.954 166.55 115.013 164.511 118.857 162.203C119.162 162.024 118.902 161.611 118.587 161.745Z" fill="#323637"/>
<path d="M113.334 161.054C113.081 161.851 112.88 162.664 112.733 163.487C112.554 164.126 112.499 164.794 112.571 165.454C112.571 165.579 112.768 165.57 112.831 165.454C113.159 164.841 113.387 164.18 113.505 163.496C113.72 162.742 113.945 161.987 114.142 161.224C114.163 161.118 114.141 161.008 114.081 160.918C114.021 160.828 113.928 160.765 113.822 160.742C113.716 160.72 113.606 160.74 113.515 160.798C113.423 160.856 113.359 160.948 113.334 161.054Z" fill="#37474F"/>
<path d="M113.038 157.067C113.163 156.385 113.289 155.693 113.424 155.011C113.559 154.328 113.756 153.592 113.846 152.873C113.846 152.757 114.044 152.802 114.017 152.873C113.9 153.565 113.873 154.274 113.801 154.975C113.729 155.675 113.657 156.376 113.577 157.067C113.415 158.369 113.172 159.68 112.885 160.955C113.575 160.853 114.232 160.595 114.807 160.201C115.353 159.671 115.72 158.983 115.857 158.235C116.073 157.453 116.262 156.654 116.495 155.873C116.785 155.016 117.002 154.136 117.142 153.242C117.142 153.125 117.339 153.161 117.321 153.242C117.122 155.126 116.734 156.985 116.163 158.791C116.032 159.498 115.653 160.135 115.094 160.587C114.371 160.958 113.579 161.178 112.768 161.234C112.679 161.279 112.535 161.234 112.544 161.117C112.652 159.833 112.795 158.432 113.038 157.067Z" fill="#37474F"/>
<path d="M79.1472 179.526C78.9047 176.482 78.4647 173.455 78.1863 170.42C77.6386 164.305 78.6084 158.297 79.6231 152.254C79.8656 150.853 79.2101 151.562 79.1921 151.679C78.0048 157.083 77.4503 162.607 77.5398 168.139C77.7014 173.527 78.5545 178.798 78.5366 184.168C78.5186 189.539 77.9978 195.034 77.5488 200.449C77.0998 205.864 76.6508 211.342 76.1928 216.784C74.3968 238.686 72.6726 260.588 70.9305 282.49C70.4456 288.606 70.0325 294.721 69.5117 300.837C68.9908 306.952 68.3173 322.389 67.9761 328.675C67.9761 329.213 68.7484 329.186 68.8022 328.675C69.9337 317.692 70.8497 297.532 71.7567 286.531C72.6636 275.531 73.4539 264.728 74.3519 253.799C75.2499 242.871 76.076 232.014 76.9291 221.121C77.3512 215.67 77.7553 210.219 78.1773 204.778C78.5994 199.336 79.0753 193.921 79.2729 188.479C79.3972 185.494 79.3552 182.506 79.1472 179.526Z" fill="#323637"/>
<path d="M94.2875 152.146C94.2788 152.131 94.2663 152.119 94.2514 152.11C94.2364 152.102 94.2194 152.097 94.2022 152.097C94.1849 152.097 94.168 152.102 94.153 152.11C94.138 152.119 94.1256 152.131 94.1169 152.146C93.8584 152.859 93.713 153.607 93.6858 154.364C93.55 155.175 93.3487 155.974 93.0842 156.753C92.6022 158.325 91.7203 159.745 90.5249 160.875C87.8758 163.263 84.3826 164.099 81.0061 164.862C80.8804 164.862 80.9253 165.059 81.0061 165.068C82.998 165.192 84.9945 164.917 86.879 164.26C88.5567 163.781 90.1123 162.949 91.4408 161.818C92.7116 160.654 93.5928 159.127 93.9642 157.444C94.1521 156.558 94.2632 155.656 94.2965 154.75C94.2965 154.319 94.2965 153.852 94.2965 153.457C94.374 153.023 94.3709 152.579 94.2875 152.146Z" fill="#323637"/>
<path d="M111.789 93.2101C115.13 103.699 133.979 129.13 142.16 131.537C148.078 133.333 172.782 121.766 179.741 117.303C186.458 113.002 170.483 93.2011 166.37 95.4551C160.56 98.634 147.144 108.593 144.728 108.44C143.04 108.332 134.141 101.256 120.698 88.738C113.262 81.8144 109.796 86.9241 111.789 93.2101Z" fill="#E98974"/>
<path d="M175.44 88.3875C179.22 87.3009 183.468 85.7474 187.59 86.0617C191.712 86.376 194.774 92.0244 194.702 93.578C194.63 95.1315 192.484 104.749 188.416 104.507C184.348 104.264 187.222 96.9544 187.114 96.0924C187.006 95.2303 186.925 94.1257 186.144 94.1616C185.363 94.1976 171.336 99.846 171.336 99.846L175.44 88.3875Z" fill="#E98974"/>
<path d="M175.664 88.9715C175.898 88.9715 187.186 85.2897 191.299 85.604C195.411 85.9183 198.483 91.5667 198.42 93.1203C198.357 94.6738 196.202 104.291 192.089 104.049C187.976 103.806 190.894 96.4967 190.787 95.6347C190.679 94.7726 190.598 93.668 189.817 93.704C189.036 93.7399 175.054 99.3883 175.054 99.3883L175.664 88.9715Z" fill="#E98974"/>
<path d="M190.724 103.447C190.325 102.687 190.136 101.835 190.176 100.978C190.143 100.093 190.246 99.2088 190.481 98.3556C190.755 97.6291 190.968 96.8812 191.119 96.1196C191.155 95.3574 191.001 94.5981 190.67 93.9105C190.382 93.3088 189.772 93.4705 189.242 93.6232C188.459 93.877 187.691 94.1768 186.943 94.5212L184.528 95.5898C183.681 95.9277 182.856 96.3176 182.058 96.7572C181.995 96.7572 182.058 96.9008 182.103 96.8739C182.83 96.6415 183.543 96.3687 184.24 96.0567L186.665 95.1587C187.419 94.8714 188.164 94.5481 188.919 94.2607C189.261 94.0853 189.639 93.993 190.023 93.9913C190.338 94.0811 190.445 94.8893 190.499 95.1228C190.631 95.8725 190.537 96.6445 190.23 97.3409C189.968 98.0619 189.781 98.8083 189.673 99.5679C189.558 100.283 189.573 101.013 189.718 101.723C189.942 102.356 190.244 102.96 190.616 103.519C190.634 103.6 190.778 103.528 190.724 103.447Z" fill="#263238"/>
<path d="M161.97 99.0115C161.97 99.0115 173.994 89.2861 176.491 87.3375C181.501 83.4761 202.057 76.4627 204.867 76.328C207.678 76.1933 208.352 81.9944 194.379 87.1489C187.015 89.8429 185.498 93.9019 185.498 96.1918C185.498 98.4817 187.428 102.855 191.263 102.972C195.097 103.088 197.917 97.6465 201.482 97.2334C205.047 96.8203 202.335 103.133 199.623 106.716C196.808 110.168 193.072 112.75 188.847 114.161C185.462 115.211 174.937 119.028 174.937 119.028L161.97 99.0115Z" fill="#E98974"/>
<path d="M196.184 100.574C194.675 101.606 192.951 102.962 191.047 102.917C189.143 102.873 187.877 101.526 187.06 99.8732C186.141 98.2342 185.894 96.303 186.368 94.4852C186.914 92.8582 187.914 91.4216 189.251 90.3454C190.885 89.0388 192.7 87.977 194.639 87.1934C194.72 87.1934 194.639 87.0318 194.567 87.0677C192.771 87.7502 187.141 89.6719 185.758 94.4493C185.297 96.3004 185.564 98.2577 186.503 99.9181C187.266 101.49 188.416 103.034 190.266 103.295C192.52 103.618 194.576 101.885 196.282 100.601C196.363 100.583 196.264 100.52 196.184 100.574Z" fill="#263238"/>
<path d="M165.894 95.7063L174.587 126.651C174.587 126.651 148.742 134.653 141.585 132.201C134.428 129.749 117.187 107.353 111.511 94.045C108.063 85.963 113.02 80.9522 121.704 88.4684C130.684 96.1823 143.184 106.877 144.154 107.326C145.123 107.775 165.894 95.7063 165.894 95.7063Z" fill="#455A64"/>
<path d="M163.254 113.747C162.751 111.44 160.811 102.172 160.506 99.8374H160.578C161.305 102.011 163.487 111.098 163.99 113.406C165.109 117.998 165.976 122.648 166.586 127.334C166.586 127.415 166.469 127.46 166.442 127.379C165.05 122.916 164.224 118.354 163.254 113.747Z" fill="#263238"/>
<path d="M111.511 94.0453C116.109 104.821 128.313 121.578 136.574 128.843L116.289 85.1282C111.17 83.4579 108.871 87.8222 111.511 94.0453Z" fill="#263238"/>
<path d="M72.5561 154.041L128.421 154.364C128.663 154.122 130.845 153.17 130.217 145.124C128.789 126.795 122.673 94.1891 118.74 87.2386C118.007 85.837 117.002 84.5951 115.784 83.5854C114.566 82.5757 113.159 81.8182 111.646 81.3569C110.133 80.8956 108.543 80.7399 106.969 80.8986C105.395 81.0574 103.868 81.5275 102.477 82.2816C99.2087 84.3201 96.1914 86.9871 92.3929 92.6356C83.0717 106.501 75.1782 131.016 71.8377 144.486C70.4099 150.063 72.3944 153.879 72.5561 154.041Z" fill="#455A64"/>
<path d="M111.637 92.4202C110.676 92.2496 105.001 86.3767 103.555 82.2189C103.456 81.9316 104.327 79.2555 105.243 75.9329C105.782 73.9304 106.339 71.6854 106.707 69.593C106.779 69.171 108.099 70.2037 108.099 70.2037L110.685 71.3262L119.252 75.0708C118.052 77.5473 117.163 80.1623 116.603 82.8565C116.55 83.1527 116.529 83.4538 116.54 83.7545C116.544 83.8023 116.544 83.8504 116.54 83.8982C116.558 85.5415 113.2 92.6986 111.637 92.4202Z" fill="#E98974"/>
<path d="M116.558 83.7274C116.562 83.7752 116.562 83.8233 116.558 83.8711C116.102 83.8569 115.648 83.8028 115.202 83.7094C106.429 81.9853 107.273 70.5986 107.273 70.5986L110.73 71.353L119.252 75.0707C118.052 77.5472 117.163 80.1621 116.603 82.8563C116.558 83.1443 116.543 83.4363 116.558 83.7274Z" fill="#263238"/>
<path d="M124.056 49.7021C124.056 49.7021 128.044 51.7226 128.484 55.9881C128.924 60.2536 127.639 64.5461 127.262 64.7257C126.885 64.9053 124.056 49.7021 124.056 49.7021Z" fill="#263238"/>
<path d="M107.03 54.596C105.073 59.086 106.024 72.9062 109.015 76.2916C113.352 81.2037 121.201 82.5058 125.556 77.1268C129.786 71.9094 128.25 53.9584 124.82 50.8064C119.8 46.1907 109.913 47.9597 107.03 54.596Z" fill="#E98974"/>
<path d="M119.297 64.2046C119.297 64.2046 119.234 64.2046 119.234 64.2854C119.324 65.1834 119.234 66.2969 118.444 66.6561V66.71C119.477 66.4945 119.53 65.0667 119.297 64.2046Z" fill="#263238"/>
<path d="M118.408 63.2886C116.908 63.2886 116.98 66.2699 118.408 66.2879C119.836 66.3059 119.665 63.2976 118.408 63.2886Z" fill="#263238"/>
<path d="M124.694 64.2227C124.694 64.2227 124.766 64.2227 124.766 64.3035C124.766 65.2015 124.909 66.297 125.762 66.5844V66.6383C124.721 66.5215 124.532 65.1027 124.694 64.2227Z" fill="#263238"/>
<path d="M125.538 63.2258C127.029 63.0732 127.217 66.0725 125.834 66.2162C124.451 66.3599 124.245 63.3516 125.538 63.2258Z" fill="#263238"/>
<path d="M117.187 61.9417C117.591 61.8249 117.95 61.6543 118.345 61.5016C118.772 61.4038 119.154 61.1669 119.432 60.8281C119.5 60.7061 119.525 60.5647 119.504 60.4264C119.483 60.2882 119.417 60.1609 119.315 60.0648C119.084 59.9041 118.814 59.8077 118.533 59.7857C118.252 59.7636 117.97 59.8165 117.716 59.9391C117.17 60.112 116.707 60.4795 116.414 60.9718C116.351 61.088 116.324 61.2202 116.336 61.3518C116.347 61.4835 116.397 61.6088 116.48 61.7122C116.562 61.8156 116.673 61.8925 116.799 61.9333C116.924 61.9741 117.059 61.977 117.187 61.9417Z" fill="#263238"/>
<path d="M126.625 61.6814C126.218 61.612 125.817 61.519 125.421 61.403C124.982 61.3648 124.568 61.1816 124.245 60.8822C124.162 60.7706 124.117 60.6352 124.117 60.496C124.117 60.3569 124.162 60.2215 124.245 60.1099C124.451 59.9191 124.705 59.7875 124.98 59.729C125.255 59.6705 125.541 59.6873 125.807 59.7776C126.375 59.8686 126.888 60.1699 127.244 60.6218C127.319 60.7274 127.362 60.8525 127.368 60.9819C127.374 61.1114 127.342 61.2397 127.276 61.3516C127.211 61.4634 127.115 61.554 126.999 61.6125C126.884 61.671 126.753 61.6949 126.625 61.6814Z" fill="#263238"/>
<path d="M118.659 72.8614C118.884 73.0769 119.117 73.3733 119.45 73.3912C119.797 73.3771 120.137 73.2883 120.446 73.1308C120.446 73.1308 120.509 73.1308 120.446 73.1308C120.319 73.3181 120.143 73.4672 119.937 73.5621C119.732 73.657 119.504 73.6942 119.279 73.6696C119.087 73.6255 118.913 73.5249 118.778 73.3809C118.644 73.2369 118.555 73.056 118.525 72.8614C118.552 72.8524 118.623 72.8345 118.659 72.8614Z" fill="#263238"/>
<path d="M119.566 70.0509C119.81 70.4141 120.126 70.7224 120.496 70.9559C120.866 71.1895 121.28 71.3431 121.712 71.4069C122.091 71.4607 122.475 71.4607 122.853 71.4069H123.077H123.275C123.324 71.3986 123.369 71.3734 123.402 71.3358C123.435 71.2981 123.453 71.2502 123.455 71.2003C123.459 71.1676 123.459 71.1343 123.455 71.1016V71.0118C123.455 70.3023 123.356 69.2158 123.356 69.2158C123.625 69.3415 124.972 69.9072 124.945 69.539C124.777 66.3098 124.283 63.1057 123.473 59.9753C123.467 59.9574 123.455 59.9417 123.44 59.9306C123.425 59.9195 123.406 59.9136 123.387 59.9136C123.368 59.9136 123.35 59.9195 123.335 59.9306C123.319 59.9417 123.308 59.9574 123.302 59.9753C123.437 62.9657 124.092 65.9021 124.281 68.9015C123.801 68.6892 123.293 68.5471 122.772 68.4794C122.673 68.4794 122.997 70.5807 122.97 70.904C121.793 71.053 120.605 70.7301 119.665 70.006C119.575 69.9162 119.503 69.9791 119.566 70.0509Z" fill="#263238"/>
<path d="M122.422 71.0834C122.043 71.6043 121.535 72.0187 120.949 72.2867C120.624 72.4157 120.268 72.4469 119.926 72.3765C119.171 72.1969 119.135 71.4785 119.261 70.9307C119.33 70.62 119.435 70.3186 119.575 70.0327C120.388 70.6768 121.386 71.0448 122.422 71.0834Z" fill="#263238"/>
<path d="M120.949 72.2866C120.624 72.4156 120.268 72.4469 119.926 72.3764C119.171 72.1968 119.135 71.4784 119.261 70.9307C119.652 70.9422 120.028 71.0809 120.333 71.3256C120.637 71.5703 120.854 71.9077 120.949 72.2866Z" fill="#FF98B9"/>
<path d="M107.165 66.387C108.763 66.6833 110.021 61.8251 110.317 59.9753C110.577 58.3499 110.514 53.2852 110.55 52.9349C110.586 52.5847 117.815 56.5898 121.587 55.0003C125.358 53.4109 127.568 49.6123 127.433 47.978C127.298 46.3436 121.982 42.7337 117.761 43.0031C113.541 43.2725 108.476 49.2891 108.476 49.2891C109.071 48.4328 109.599 47.5322 110.057 46.5951C109.967 46.4155 107.363 47.8074 107.102 49.7919C107.102 49.7919 107.363 47.3045 107.147 47.2865C106.931 47.2686 105.073 49.5764 105.728 51.094C105.728 51.094 103.537 53.4827 103.573 55.8265C103.609 58.1703 105.279 66.0368 107.165 66.387Z" fill="#263238"/>
<path d="M124.263 53.8687C123.18 54.6226 121.991 55.2099 120.734 55.6108C119.309 55.8988 117.835 55.834 116.441 55.4222C115.039 55.0389 113.708 54.4324 112.499 53.6262C111.43 52.9348 110.461 52.0727 109.338 51.471C109.051 51.3184 108.79 51.7315 108.979 51.956C111.002 54.2052 113.693 55.7473 116.657 56.3562C118.033 56.6419 119.461 56.5635 120.798 56.1288C122.135 55.6942 123.335 54.9183 124.281 53.8777C124.281 53.8777 124.281 53.8597 124.263 53.8687Z" fill="#263238"/>
<path d="M108.602 66.0548C108.602 66.0548 105.962 61.3852 103.869 62.2832C101.777 63.1812 103.483 69.7545 105.728 70.8411C106.007 71.0008 106.316 71.1025 106.635 71.1401C106.955 71.1776 107.278 71.1503 107.587 71.0597C107.895 70.9692 108.183 70.8172 108.431 70.613C108.679 70.4088 108.884 70.1565 109.033 69.8713L108.602 66.0548Z" fill="#E98974"/>
<path d="M104.399 64.1597C104.399 64.1597 104.354 64.1597 104.399 64.2135C105.971 65.0307 106.689 66.6292 107.147 68.2635C107.068 68.0905 106.953 67.9366 106.809 67.8126C106.665 67.6885 106.496 67.5973 106.313 67.5452C106.13 67.4931 105.938 67.4813 105.75 67.5108C105.562 67.5402 105.383 67.6102 105.225 67.7157C105.213 67.7157 105.202 67.7205 105.194 67.7289C105.185 67.7373 105.18 67.7487 105.18 67.7606C105.18 67.7726 105.185 67.784 105.194 67.7924C105.202 67.8008 105.213 67.8055 105.225 67.8055C105.521 67.7448 105.828 67.7759 106.106 67.8947C106.384 68.0134 106.618 68.2142 106.779 68.4701C107.044 68.9027 107.261 69.3635 107.425 69.844C107.488 69.9967 107.758 69.9428 107.722 69.7722V69.7273C107.964 67.6439 106.617 64.5817 104.399 64.1597Z" fill="#263238"/>
<path d="M116.558 83.8084L112.445 91.2528L103.986 80.2344L100.861 83.0631C100.861 83.0631 108.44 99.8557 108.584 99.1552L112.598 92.8692L116.666 98.0956L117.708 86.3318L116.558 83.8084Z" fill="white"/>
<path d="M117.456 92.3119C117.564 90.3633 117.725 88.4056 117.743 86.448C117.743 86.3851 117.635 86.3402 117.608 86.448C116.998 88.244 116.63 95.7243 116.405 97.4934C116.244 97.2689 112.616 92.8687 112.562 92.9226C111.736 93.9014 108.799 98.5081 108.584 98.9302C107.38 96.2362 102.738 86.5378 101.256 83.9695C101.246 83.958 101.233 83.95 101.218 83.9466C101.203 83.9432 101.187 83.9446 101.173 83.9506C101.159 83.9566 101.148 83.9669 101.14 83.98C101.132 83.993 101.129 84.0083 101.13 84.0234C102.136 86.8072 108.251 99.891 108.377 99.8731C109.897 97.7181 111.303 95.485 112.589 93.183C113.181 94.081 116.782 99.029 116.827 98.7416C117.15 96.611 117.36 94.4648 117.456 92.3119Z" fill="#263238"/>
<path d="M142.07 125.421C143.597 125.421 144.674 125.349 144.764 125.34L144.558 122.332C144.486 122.332 137.571 122.781 134.015 121.344C131.186 120.195 128.061 112.238 126.678 105.18C125.78 100.69 126.283 99.3252 126.678 98.8942C126.759 98.8044 126.975 98.5439 127.774 98.5439H130.531C131.33 100.951 132.605 103.366 134.527 103.366H140.095V100.394H134.751C133.983 99.2631 133.424 98.004 133.099 96.6761L132.794 95.5716H127.774C127.13 95.5326 126.486 95.6437 125.892 95.8962C125.298 96.1486 124.771 96.5355 124.353 97.0263C123.042 98.5978 122.844 101.292 123.742 105.782C124.463 109.412 125.534 112.963 126.939 116.387C128.735 120.662 130.755 123.266 132.911 124.137C135.56 125.215 139.466 125.421 142.07 125.421Z" fill="#F9C337"/>
<path opacity="0.2" d="M135.667 100.358H140.086V103.375H136.35L135.667 100.358Z" fill="black"/>
<path opacity="0.2" d="M144.791 125.34C144.675 125.34 143.597 125.421 142.097 125.421C141.846 125.421 141.585 125.421 141.307 125.421L140.634 122.395C142.825 122.467 144.576 122.395 144.612 122.395L144.791 125.34Z" fill="black"/>
<path d="M171.013 125.421C169.486 125.421 168.408 125.349 168.319 125.34L168.525 122.332C168.597 122.332 175.512 122.781 179.068 121.344C181.896 120.195 185.021 112.238 186.404 105.18C187.302 100.69 186.799 99.3252 186.404 98.8941C186.324 98.8043 186.117 98.5439 185.318 98.5439H182.561C181.771 100.951 180.487 103.366 178.565 103.366H172.997V100.394H178.385C179.153 99.263 179.713 98.004 180.038 96.6761L180.343 95.5715H185.372C186.014 95.534 186.657 95.6458 187.249 95.8982C187.841 96.1506 188.366 96.5367 188.784 97.0263C190.086 98.6068 190.275 101.319 189.386 105.818C188.665 109.448 187.594 112.999 186.189 116.423C184.393 120.698 182.372 123.302 180.217 124.173C177.523 125.215 173.617 125.421 171.013 125.421Z" fill="#F9C337"/>
<path opacity="0.2" d="M177.415 100.358H172.997V103.375H176.733L177.415 100.358Z" fill="black"/>
<path opacity="0.2" d="M168.292 125.34C168.409 125.34 169.486 125.421 170.986 125.421C171.237 125.421 171.507 125.421 171.776 125.421L172.45 122.395C170.259 122.467 168.508 122.395 168.472 122.395L168.292 125.34Z" fill="black"/>
<path d="M140.804 155.531V157.219H172.288V155.531H169.585L167.582 152.649L158.414 149.003V131.124H154.669V149.003L145.509 152.649L143.498 155.531H140.804Z" fill="#F9C337"/>
<path d="M153.627 133.503H159.447V131.618H153.627V133.503Z" fill="#F9C337"/>
<path opacity="0.2" d="M153.636 132.821L159.447 132.56V131.626H153.636V132.821Z" fill="black"/>
<path d="M137.293 93.5337C137.293 93.5337 138.757 117.896 142.6 124.64C146.444 131.384 154.633 131.95 156.546 131.95C158.459 131.95 166.649 131.375 170.483 124.64C174.318 117.905 175.826 93.5337 175.826 93.5337H137.293Z" fill="#F9C337"/>
<path opacity="0.3" d="M153.619 131.654C150.305 131.097 145.348 129.436 142.6 124.631C138.757 117.896 137.284 93.5337 137.284 93.5337H140.876C141.37 98.6523 142.349 118.193 145.123 123.877C147.584 128.843 153.232 131.51 153.619 131.654Z" fill="white"/>
<path opacity="0.2" d="M169.585 155.531H143.498L144.216 154.498L168.229 153.583L169.585 155.531Z" fill="black"/>
<path opacity="0.1" d="M156.546 101.229L158.611 105.423L163.236 106.088L159.887 109.356L160.677 113.963L156.546 111.79L152.406 113.963L153.196 109.356L149.847 106.088L154.472 105.423L156.546 101.229Z" fill="black"/>
<path d="M94.108 91.791C86.466 106.159 71.2718 138.738 78.1505 144.845C89.4743 154.867 113.711 161.53 121.506 162.805C124.873 163.335 133.297 138.289 129.992 136.763C126.023 134.967 101.355 128.869 101.094 127.783C100.834 126.696 103.034 109.895 102.774 97.0084C102.432 80.9612 97.2689 85.8104 94.108 91.791Z" fill="#E98974"/>
<path d="M117.977 136.664C117.977 136.664 127.442 132.461 133.764 129.992C137.284 128.618 143.543 126.804 146.596 126.984C151.158 127.244 170.088 131.258 169.208 135.874C168.417 140.04 152.595 134.527 152.595 134.527C152.595 134.527 169.055 138.684 167.178 143.507C165.301 148.329 148.248 139.744 148.248 139.744C148.248 139.744 165.05 144.396 162.356 149.11C160.3 152.657 144.396 145.734 144.396 145.734C144.396 145.734 158.818 149.829 156.86 153.564C154.687 157.695 139.637 152.226 139.637 152.226C133.045 160.892 126.58 162.796 121.488 162.778C120.303 162.769 117.977 136.664 117.977 136.664Z" fill="#E98974"/>
<path d="M147.772 132.947C160.129 135.084 165.526 139.915 165.364 139.816C161.35 137.472 154.588 135.254 152.649 134.662C150.709 134.069 149.649 133.611 147.745 133.018C147.701 133.009 147.728 132.938 147.772 132.947Z" fill="#263238"/>
<path d="M144.746 139.574C149.778 140.205 154.659 141.725 159.159 144.064C159.33 144.172 159.249 144.217 159.06 144.154C156.654 143.337 147.153 140.302 144.692 139.61C144.683 139.619 144.701 139.574 144.746 139.574Z" fill="#263238"/>
<path d="M141.747 145.105C145.64 145.682 149.392 146.979 152.81 148.931C152.981 149.021 152.81 149.092 152.667 149.021C149.012 147.683 146.156 146.605 141.72 145.24C141.702 145.213 141.702 145.087 141.747 145.105Z" fill="#263238"/>
<path d="M122.278 134.069L112.858 163.964C112.858 163.964 79.1383 151.23 75.699 143.579C72.2596 135.928 88.9535 98.0504 94.4851 90.0402C100.017 82.0301 102.567 84.6522 103.465 92.842C104.363 101.032 101.373 127.28 101.588 127.738C101.804 128.196 122.278 134.069 122.278 134.069Z" fill="#455A64"/>
<path d="M102.298 115.427C102.465 113.463 102.624 111.499 102.774 109.536C102.854 108.512 102.926 107.488 103.016 106.474C103.016 106.007 103.097 105.531 103.133 105.064C103.17 104.832 103.194 104.598 103.205 104.363C103.203 104.061 103.239 103.759 103.312 103.465C103.312 103.411 103.411 103.411 103.411 103.465C103.411 103.995 103.51 103.771 103.411 104.184C103.312 104.597 103.411 104.794 103.411 105.082C103.411 105.549 103.411 105.98 103.411 106.491C103.411 107.461 103.339 108.422 103.285 109.383C103.285 109.509 103.285 109.634 103.285 109.769C103.285 109.769 103.285 109.697 103.285 109.661C103.501 108.593 103.726 107.533 103.95 106.465H104.022C103.923 107.551 103.779 108.629 103.582 109.697C103.465 110.317 103.303 110.928 103.151 111.493C103.07 112.777 102.998 114.071 102.899 115.355C102.603 119.342 102.28 123.347 101.66 127.298C103.456 127.828 105.18 128.286 106.922 128.816C108.665 129.346 110.425 129.92 112.167 130.477C113.909 131.034 115.651 131.591 117.384 132.183C118.219 132.462 119.036 132.758 119.863 133.081C120.689 133.405 121.659 133.809 122.557 134.105C122.655 134.105 122.557 134.267 122.503 134.24C121.56 133.952 120.59 133.791 119.638 133.521L117.151 132.812C115.4 132.291 113.648 131.743 111.897 131.186C110.146 130.63 108.395 130.1 106.653 129.525C104.911 128.95 103.214 128.304 101.472 127.729C101.446 127.72 101.422 127.706 101.402 127.688C101.382 127.669 101.366 127.646 101.355 127.621C101.317 127.602 101.286 127.572 101.265 127.536C101.245 127.499 101.235 127.457 101.238 127.415C101.472 123.428 101.947 119.432 102.298 115.427Z" fill="#263238"/>
<path d="M110.649 146.919C111.359 144.746 114.241 136.089 115.139 133.997H115.211C114.753 136.161 112.149 144.773 111.44 146.964C110.139 151.341 108.598 155.643 106.824 159.85C106.824 159.922 106.662 159.895 106.68 159.85C107.713 155.441 109.257 151.194 110.649 146.919Z" fill="#263238"/>
<path d="M90.4351 154.148C87.9661 153.144 85.5662 151.977 83.2511 150.655C80.9092 149.352 78.7602 147.729 76.8663 145.833C75.8631 144.856 75.167 143.608 74.8638 142.241C74.8121 141.896 74.7911 141.548 74.8009 141.199C74.8009 140.858 74.8009 140.517 74.8009 140.176C74.8728 139.511 74.9177 138.838 74.9985 138.173C75.4117 135.537 75.9814 132.928 76.7047 130.36C78.1834 125.26 79.9106 120.246 81.8862 115.319C82.8799 112.858 83.9216 110.422 85.0112 108.009C86.1517 105.612 87.2831 103.214 88.6032 100.915C87.4627 103.313 86.4121 105.737 85.4153 108.18C84.4185 110.622 83.4397 113.092 82.5327 115.57C80.6918 120.518 78.9407 125.52 77.5668 130.603C76.8143 133.124 76.2145 135.688 75.7708 138.281C75.69 138.927 75.6361 139.574 75.5642 140.221C75.5281 140.855 75.5281 141.49 75.5642 142.124C75.8537 143.355 76.4749 144.482 77.3602 145.384C79.1579 147.294 81.2132 148.945 83.4666 150.287C85.7125 151.708 88.0393 152.998 90.4351 154.148Z" fill="#263238"/>
<path d="M86.6275 103.555C86.3222 104.875 85.8822 106.123 85.532 107.426C85.5587 106.748 85.6765 106.078 85.8822 105.432C86.0775 104.787 86.3268 104.159 86.6275 103.555Z" fill="#263238"/>
<path d="M177.353 34.2831C176.96 38.0255 175.537 41.5855 173.24 44.566C170.943 47.5466 167.863 49.8305 164.344 51.163C160.825 52.4956 157.005 52.8245 153.31 52.113C149.614 51.4015 146.19 49.6776 143.417 47.1335L133.261 48.6242L138.343 39.8327C137.177 36.9729 136.677 33.8846 136.884 30.8027C137.09 27.7209 137.996 24.7267 139.534 22.0479C141.071 19.369 143.2 17.0761 145.757 15.3435C148.314 13.6109 151.232 12.4842 154.29 12.0492C157.348 11.6141 160.465 11.8822 163.404 12.8329C166.342 13.7837 169.026 15.3921 171.249 17.5359C173.473 19.6796 175.178 22.3023 176.236 25.2043C177.294 28.1063 177.675 31.2113 177.353 34.2831Z" fill="white"/>
<path d="M177.353 34.2834C176.961 38.0281 175.544 41.5922 173.258 44.5835C172.7 45.3235 172.1 46.0311 171.462 46.7027C170.781 47.342 170.065 47.9417 169.316 48.4987C166.29 50.7615 162.703 52.1556 158.944 52.5308C158.006 52.6116 157.064 52.6296 156.124 52.5847C155.181 52.5575 154.241 52.4585 153.313 52.2883C149.569 51.5989 146.09 49.8827 143.265 47.3314L143.498 47.4122L133.351 48.9657L132.614 49.0825L132.982 48.4359L138.038 39.6265V39.9767C136.557 36.3417 136.147 32.3585 136.857 28.498C137.568 24.6375 139.369 21.0611 142.047 18.1917C144.726 15.3223 148.17 13.2799 151.973 12.3059C155.775 11.3319 159.777 11.4671 163.505 12.6955C166.442 13.6918 169.118 15.3335 171.336 17.4998C173.544 19.6595 175.232 22.2923 176.275 25.1996C177.317 28.1069 177.685 31.2129 177.353 34.2834ZM177.353 34.2834C177.675 31.2249 177.291 28.1333 176.232 25.2463C175.172 22.3593 173.464 19.7539 171.239 17.6306C169.014 15.5073 166.332 13.9226 163.398 12.9986C160.465 12.0745 157.359 11.8356 154.319 12.3004C151.308 12.7556 148.44 13.8886 145.932 15.614C143.448 17.3666 141.374 19.6368 139.852 22.2682C138.354 24.9005 137.473 27.8386 137.275 30.8611C137.077 33.8835 137.569 36.9114 138.712 39.7163L138.784 39.8959L138.685 40.0575L133.566 48.831L133.207 48.2922L143.381 46.8644H143.516L143.615 46.9632C146.349 49.4808 149.728 51.1906 153.376 51.9022C154.285 52.0846 155.207 52.1957 156.133 52.2344C157.06 52.3018 157.99 52.3018 158.917 52.2344C160.76 52.0904 162.573 51.6883 164.305 51.0401C166.059 50.4108 167.709 49.5208 169.199 48.4C169.953 47.8489 170.67 47.2489 171.345 46.604C172.006 45.9442 172.624 45.2423 173.195 44.5027C175.495 41.5441 176.934 38.0077 177.353 34.2834Z" fill="#263238"/>
<path d="M154.777 43.757L146.102 34.9746L149.012 32.092L154.085 37.2196L164.61 20.7144L168.067 22.9234L154.777 43.757Z" fill="#F9C337"/>
</svg>
